<svg xmlns="http://www.w3.org/2000/svg" width="1920" height="1080" viewBox="0 0 1920 1080"><g opacity="0.24"><rect width="1920" height="1080" fill="#fff"/><g transform="translate(809.293 22.04)"><path d="M127.791,17.877c-2.2.473-5.689,2.992-7.459,6.65s-1.51,7.384.443,8.234,5.489-1.895,7.735-1.493,5.08,2.647,7.823,1.767.979-8.2-.964-11.189S131.275,17.128,127.791,17.877Z" transform="translate(-114.757 -6.363)" fill="#ff9ea3"/><path d="M133.9,16.638c-1.12-1-3.094-.451-4.41,1.214s-1.48,3.814-.362,4.814,3.1.473,4.414-1.192S135.019,17.637,133.9,16.638Z" transform="translate(-106.574 -7.749)" fill="#ff9ea3"/><path d="M124.735,21.632c1.876-.479,2.862-3.094,2.1-5.825-.73-2.732-2.819-4.537-4.669-4.035s-2.76,3.1-2.036,5.806C120.892,20.282,122.864,22.111,124.735,21.632Z" transform="translate(-114.101 -11.689)" fill="#ff9ea3"/><path d="M121.994,17.7c-1.233-1.689-3.268-2.278-4.38-1.35s-1.073,3.04.185,4.718,3.2,2.3,4.358,1.375S123.241,19.387,121.994,17.7Z" transform="translate(-116.817 -7.948)" fill="#ff9ea3"/><path d="M131.815,17.756c.635-2.742-.364-5.4-2.233-5.928s-3.9,1.273-4.535,4c-.6,2.719.288,5.363,2.127,5.909S131.116,20.5,131.815,17.756Z" transform="translate(-109.695 -11.646)" fill="#ff9ea3"/></g><g transform="translate(1157.652 466.198)"><path d="M174.81,137.135c1.667,1.514,5.745,2.883,9.75,2.191s6.884-3.07,6.437-5.153-4.737-3.36-5.719-5.419-.805-5.672-3.119-7.39-7.235,3.979-8.536,7.3S172.174,134.737,174.81,137.135Z" transform="translate(-161.455 -121.049)" fill="#ff9ea3"/><path d="M168.285,125.417c-.16,1.493,1.437,2.777,3.558,2.879s3.962-1.016,4.124-2.51-1.418-2.793-3.539-2.894S168.447,123.923,168.285,125.417Z" transform="translate(-165.386 -119.422)" fill="#ff9ea3"/><path d="M177.407,131.386c-1.482-1.248-4.182-.526-5.96,1.68-1.8,2.182-2.048,4.933-.564,6.145s4.126.441,5.906-1.725C178.548,135.3,178.886,132.627,177.407,131.386Z" transform="translate(-163.932 -112.434)" fill="#ff9ea3"/><path d="M175.608,134.9c-.656,1.985.051,3.984,1.454,4.348s3.094-.9,3.728-2.9.008-3.941-1.42-4.342S176.253,132.909,175.608,134.9Z" transform="translate(-159.11 -111.405)" fill="#ff9ea3"/><path d="M170.413,127.557c-2.6,1.079-4.18,3.441-3.52,5.266s3.3,2.429,5.889,1.361c2.562-1.094,4.194-3.358,3.567-5.17S173.054,126.526,170.413,127.557Z" transform="translate(-166.743 -115.713)" fill="#ff9ea3"/></g><g transform="translate(1864.037 230.656)"><path d="M264.928,70.467c-.324,2.227.818,6.375,3.628,9.311s6.392,4,7.87,2.461.141-5.806,1.3-7.77,4.256-3.835,4.388-6.714-7.342-3.779-10.821-3S265.445,66.941,264.928,70.467Z" transform="translate(-252.473 -55.921)" fill="#ff9ea3"/><path d="M266.773,60.179c-1.327.7-1.5,2.742-.4,4.559s3.056,2.719,4.386,2.019,1.523-2.738.422-4.554S268.1,59.479,266.773,60.179Z" transform="translate(-251.788 -59.943)" fill="#ff9ea3"/><path d="M268.443,70.456c.207-1.927-1.9-3.764-4.721-4-2.815-.272-5.236,1.056-5.413,2.964s1.938,3.669,4.731,3.935C265.837,73.587,268.239,72.376,268.443,70.456Z" transform="translate(-258.298 -54.21)" fill="#ff9ea3"/><path d="M263.933,71.334c-2.012.564-3.275,2.265-2.794,3.632s2.474,2.067,4.486,1.475,3.273-2.195,2.809-3.6S265.949,70.753,263.933,71.334Z" transform="translate(-255.872 -50.04)" fill="#ff9ea3"/><path d="M267.1,62.684c-2.346-1.554-5.189-1.544-6.334.023s-.168,4.1,2.161,5.643c2.336,1.514,5.127,1.6,6.281.072S269.43,64.3,267.1,62.684Z" transform="translate(-256.536 -58.541)" fill="#ff9ea3"/></g><g transform="translate(1460.574 21.888)"><path d="M222.705,18.057c-2.249.06-6.143,1.893-8.557,5.161s-2.847,6.98-1.084,8.174,5.745-.849,7.878-.04,4.5,3.537,7.363,3.179,2.476-7.878,1.118-11.174S226.269,17.965,222.705,18.057Z" transform="translate(-210.043 -5.9)" fill="#ff9ea3"/><path d="M228.31,18.457c-.915-1.19-2.957-1.013-4.559.381s-2.159,3.475-1.243,4.665,2.957,1.035,4.557-.358S229.227,19.647,228.31,18.457Z" transform="translate(-201.117 -6.242)" fill="#ff9ea3"/><path d="M218.357,21.78c1.933-.124,3.385-2.513,3.141-5.336-.211-2.819-1.933-4.978-3.843-4.829s-3.285,2.536-3.072,5.332C214.829,19.744,216.43,21.9,218.357,21.78Z" transform="translate(-207.763 -11.608)" fill="#ff9ea3"/><path d="M216.222,17.482c-.9-1.887-2.791-2.842-4.056-2.134s-1.614,2.789-.688,4.671,2.721,2.851,4.029,2.155S217.136,19.369,216.222,17.482Z" transform="translate(-210.956 -8.503)" fill="#ff9ea3"/><path d="M226.183,19.177c1.129-2.576.637-5.376-1.1-6.237s-4.065.532-5.195,3.09c-1.094,2.561-.705,5.325,1,6.2S224.988,21.749,226.183,19.177Z" transform="translate(-203.591 -10.654)" fill="#ff9ea3"/></g><g transform="translate(728.557 691.102)"><path d="M117.17,185.757c-2.251-.045-6.224,1.6-8.789,4.757s-3.17,6.839-1.463,8.114,5.777-.581,7.87.326,4.335,3.745,7.209,3.52,2.838-7.755,1.637-11.112S120.732,185.831,117.17,185.757Z" transform="translate(-104.647 -173.491)" fill="#ff9ea3"/><path d="M122.609,186.557c-.86-1.231-2.908-1.15-4.572.168s-2.317,3.371-1.459,4.6,2.906,1.173,4.571-.145S123.469,187.788,122.609,186.557Z" transform="translate(-95.574 -173.556)" fill="#ff9ea3"/><path d="M112.522,189.438c1.936-.036,3.5-2.353,3.386-5.183-.081-2.826-1.7-5.065-3.615-5s-3.4,2.38-3.317,5.182C109.093,187.24,110.592,189.474,112.522,189.438Z" transform="translate(-101.973 -179.251)" fill="#ff9ea3"/><path d="M110.542,185.07c-.811-1.927-2.655-2.968-3.952-2.321s-1.742,2.711-.9,4.635,2.583,2.974,3.924,2.338S111.37,187,110.542,185.07Z" transform="translate(-105.261 -176.324)" fill="#ff9ea3"/><path d="M120.49,187.173c1.25-2.523.888-5.342-.809-6.283s-4.084.341-5.332,2.843c-1.212,2.508-.952,5.287.711,6.241S119.178,189.684,120.49,187.173Z" transform="translate(-97.881 -178.074)" fill="#ff9ea3"/></g><g transform="translate(23.551 1029.506)"><path d="M26.973,277.648c1.823-1.318,4-5.029,4.15-9.09s-1.59-7.369-3.72-7.359-4.261,3.945-6.479,4.482-5.717-.379-7.874,1.533,2.406,7.9,5.387,9.854S24.084,279.735,26.973,277.648Z" transform="translate(-12.49 -261.198)" fill="#ff9ea3"/><path d="M14.638,277.787c1.427.466,3.013-.833,3.549-2.889s-.181-4.086-1.608-4.552-3.024.815-3.56,2.868S13.21,277.321,14.638,277.787Z" transform="translate(-12.18 -253.18)" fill="#ff9ea3"/><path d="M22.162,270.423c-1.525,1.194-1.375,3.986.419,6.179,1.767,2.208,4.407,3.017,5.9,1.816s1.28-3.948-.475-6.136C26.222,270.112,23.682,269.231,22.162,270.423Z" transform="translate(-4.85 -253.502)" fill="#ff9ea3"/><path d="M25.436,271.646c1.806,1.05,3.907.771,4.552-.528s-.241-3.213-2.07-4.243-3.852-.818-4.54.5S23.614,270.605,25.436,271.646Z" transform="translate(-3.051 -256.748)" fill="#ff9ea3"/><path d="M16.961,277.082c.52,2.764,2.508,4.8,4.429,4.527s3.055-2.732,2.544-5.481c-.543-2.732-2.425-4.795-4.325-4.556S16.5,274.284,16.961,277.082Z" transform="translate(-8.62 -252.027)" fill="#ff9ea3"/></g><g transform="translate(24.379 523.779)"><path d="M24.348,142.333c-2.236.249-5.958,2.41-8.085,5.872s-2.242,7.2-.381,8.236,5.651-1.337,7.844-.713,4.791,3.141,7.61,2.54,1.791-8.061.157-11.23S27.889,141.935,24.348,142.333Z" transform="translate(-11.476 -130.431)" fill="#ff9ea3"/><path d="M30.216,141.984c-1.013-1.107-3.032-.758-4.51.767s-1.854,3.649-.839,4.755,3.034.779,4.51-.747S31.23,143.091,30.216,141.984Z" transform="translate(-2.863 -131.268)" fill="#ff9ea3"/><path d="M20.578,146.1c1.914-.29,3.156-2.794,2.674-5.585-.451-2.793-2.351-4.8-4.241-4.482s-3.057,2.806-2.606,5.572C16.888,144.369,18.668,146.385,20.578,146.1Z" transform="translate(-9.937 -135.997)" fill="#ff9ea3"/><path d="M18.159,141.949c-1.058-1.8-3.023-2.593-4.224-1.78s-1.371,2.917-.287,4.714,2.953,2.608,4.2,1.8S19.232,143.752,18.159,141.949Z" transform="translate(-12.929 -132.585)" fill="#ff9ea3"/><path d="M28.091,142.892c.907-2.664.177-5.412-1.627-6.121s-4,.875-4.912,3.52c-.871,2.647-.249,5.366,1.525,6.094S27.12,145.556,28.091,142.892Z" transform="translate(-5.639 -135.461)" fill="#ff9ea3"/></g><g transform="translate(342.164 417.591)"><path d="M66.263,120.6c.173-2.244-1.252-6.305-4.256-9.041s-6.65-3.549-8.019-1.916.255,5.8-.767,7.84-3.982,4.118-3.918,7,7.584,3.27,11,2.257S65.99,124.148,66.263,120.6Z" transform="translate(-49.301 -108.264)" fill="#ff9ea3"/><path d="M60.022,125.819c1.277-.79,1.31-2.84.089-4.576s-3.236-2.5-4.512-1.714-1.333,2.834-.113,4.571S58.746,126.607,60.022,125.819Z" transform="translate(-44.605 -99.038)" fill="#ff9ea3"/><path d="M59.459,115.6c-.075,1.935,2.153,3.624,4.985,3.671,2.826.079,5.149-1.412,5.2-3.328s-2.185-3.528-4.987-3.6C61.844,112.3,59.531,113.673,59.459,115.6Z" transform="translate(-40.308 -105.125)" fill="#ff9ea3"/><path d="M62.6,113.815c1.969-.7,3.113-2.483,2.54-3.814s-2.61-1.893-4.578-1.163-3.113,2.414-2.555,3.786S60.63,114.533,62.6,113.815Z" transform="translate(-41.717 -108.516)" fill="#ff9ea3"/><path d="M61.031,123.72c2.447,1.39,5.283,1.186,6.319-.454s-.111-4.1-2.542-5.483c-2.436-1.352-5.223-1.248-6.271.358S58.6,122.268,61.031,123.72Z" transform="translate(-41.471 -101.14)" fill="#ff9ea3"/></g><g transform="translate(1863.237 598.42)"><path d="M274.326,163.813c-1.41-1.754-5.227-3.743-9.29-3.684s-7.276,1.961-7.159,4.088,4.154,4.058,4.8,6.245-.089,5.728,1.929,7.785,7.769-2.8,9.569-5.879S276.557,166.592,274.326,163.813Z" transform="translate(-257.873 -151.317)" fill="#ff9ea3"/><path d="M274.81,169.883c.392-1.45-.984-2.968-3.064-3.4s-4.073.388-4.465,1.837.965,2.979,3.045,3.411S274.418,171.332,274.81,169.883Z" transform="translate(-249.602 -145.79)" fill="#ff9ea3"/><path d="M267.064,164.137c1.269,1.463,4.048,1.171,6.149-.732,2.116-1.876,2.791-4.552,1.514-5.981s-4.007-1.08-6.1.783C266.548,160.1,265.8,162.679,267.064,164.137Z" transform="translate(-250.283 -154.49)" fill="#ff9ea3"/><path d="M268.116,160.139c.956-1.859.571-3.943-.758-4.52s-3.2.4-4.133,2.281-.622,3.89.726,4.51S267.169,162.009,268.116,160.139Z" transform="translate(-253.613 -155.455)" fill="#ff9ea3"/><path d="M273.987,168.446c2.734-.662,4.665-2.749,4.3-4.654s-2.885-2.913-5.6-2.263c-2.7.681-4.667,2.662-4.331,4.552S271.217,169.051,273.987,168.446Z" transform="translate(-248.629 -150.25)" fill="#ff9ea3"/></g><g transform="translate(29.73 846.634)"><path d="M32.2,228.018c-1.475-1.7-5.366-3.539-9.424-3.324s-7.2,2.24-7,4.361,4.307,3.894,5.04,6.055.132,5.726,2.227,7.7,7.654-3.1,9.335-6.241S34.534,230.709,32.2,228.018Z" transform="translate(-15.767 -215.665)" fill="#ff9ea3"/><path d="M32.943,233.991c.336-1.463-1.1-2.926-3.194-3.277s-4.054.543-4.39,2.006,1.08,2.94,3.173,3.29S32.605,235.454,32.943,233.991Z" transform="translate(-7.317 -210.387)" fill="#ff9ea3"/><path d="M24.921,228.6c1.324,1.412,4.092,1.014,6.115-.967,2.042-1.955,2.615-4.657,1.284-6.036s-4.045-.924-6.068,1.018C24.248,224.579,23.6,227.189,24.921,228.6Z" transform="translate(-8.272 -219.103)" fill="#ff9ea3"/><path d="M25.839,224.52c.886-1.895.42-3.962-.93-4.488s-3.181.526-4.043,2.438-.473,3.913.9,4.48S24.966,226.426,25.839,224.52Z" transform="translate(-11.659 -219.898)" fill="#ff9ea3"/><path d="M32.031,232.633c2.708-.764,4.556-2.925,4.114-4.814s-2.994-2.8-5.687-2.046c-2.672.784-4.559,2.842-4.15,4.714S29.286,233.348,32.031,232.633Z" transform="translate(-6.482 -214.929)" fill="#ff9ea3"/></g><g transform="translate(1098.199 657.847)"><path d="M164.943,179.738c-.865,2.076-.782,6.379,1.216,9.918s5.206,5.449,7.018,4.327,1.571-5.591,3.179-7.207,5.07-2.668,5.911-5.423-6.183-5.478-9.745-5.583S166.314,176.448,164.943,179.738Z" transform="translate(-152.58 -166.441)" fill="#949390"/><path d="M168.691,170.873c-1.459.351-2.133,2.287-1.516,4.318s2.293,3.39,3.75,3.04,2.153-2.274,1.537-4.307S170.151,170.524,168.691,170.873Z" transform="translate(-150.343 -170.818)" fill="#949390"/><path d="M167.846,181.014c.675-1.816-.913-4.116-3.588-5.048-2.661-.958-5.334-.268-5.975,1.537s.971,4.033,3.611,4.982C164.546,183.4,167.173,182.825,167.846,181.014Z" transform="translate(-158.141 -166.641)" fill="#949390"/><path d="M163.252,180.763c-2.089.051-3.733,1.388-3.605,2.83s1.887,2.613,3.984,2.536,3.713-1.318,3.611-2.8S165.349,180.7,163.252,180.763Z" transform="translate(-156.814 -162.014)" fill="#949390"/><path d="M168.416,173.288c-1.889-2.084-4.648-2.779-6.143-1.542s-1.175,3.926.7,6c1.891,2.046,4.572,2.821,6.068,1.622S170.275,175.43,168.416,173.288Z" transform="translate(-155.317 -170.539)" fill="#949390"/></g><g transform="translate(1202.594 835.667)"><path d="M180,229.3c.347,2.223,2.664,5.849,6.215,7.825s7.286,1.929,8.246.026-1.578-5.589-1.05-7.808,2.932-4.921,2.21-7.71-8.132-1.444-11.227.326S179.454,225.777,180,229.3Z" transform="translate(-168.256 -214.239)" fill="#949390"/><path d="M179.272,217.6c-1.062,1.06-.626,3.062.962,4.473s3.724,1.7,4.786.634.649-3.064-.939-4.474S180.335,216.54,179.272,217.6Z" transform="translate(-169.333 -216.959)" fill="#949390"/><path d="M183.771,227.387c-.371-1.9-2.926-3.034-5.694-2.432-2.77.573-4.691,2.557-4.3,4.431s2.936,2.934,5.681,2.363C182.2,231.147,184.142,229.282,183.771,227.387Z" transform="translate(-173.728 -210.022)" fill="#949390"/><path d="M179.711,229.444c-1.755,1.133-2.461,3.132-1.6,4.3s2.974,1.243,4.721.081,2.479-3.062,1.62-4.271S181.466,228.294,179.711,229.444Z" transform="translate(-170.17 -206.64)" fill="#949390"/><path d="M180.273,220.11c-2.7-.79-5.415.057-6.045,1.891s1.047,3.963,3.73,4.755c2.679.756,5.372.017,6.022-1.786S182.975,220.966,180.273,220.11Z" transform="translate(-173.403 -214.431)" fill="#949390"/></g><g transform="translate(34.094 686.491)"><path d="M28.519,195.158c2.221.356,6.386-.73,9.36-3.5s4.084-6.336,2.57-7.835-5.8-.222-7.75-1.41-3.777-4.307-6.652-4.48-3.882,7.288-3.156,10.778S25,194.592,28.519,195.158Z" transform="translate(-14.024 -177.932)" fill="#949390"/><path d="M18.3,188c.681,1.339,2.719,1.54,4.552.466s2.76-3.019,2.08-4.358-2.715-1.561-4.546-.486S17.622,186.657,18.3,188Z" transform="translate(-18.082 -173.501)" fill="#949390"/><path d="M28.586,188.313c-1.921-.232-3.788,1.848-4.071,4.667-.309,2.81.984,5.249,2.889,5.453s3.7-1.886,4-4.674C31.681,190.964,30.5,188.545,28.586,188.313Z" transform="translate(-12.425 -168.755)" fill="#949390"/><path d="M29.4,191.593c.535,2.019,2.219,3.305,3.592,2.843s2.1-2.444,1.537-4.465-2.148-3.3-3.564-2.858S28.85,189.568,29.4,191.593Z" transform="translate(-8.223 -169.88)" fill="#949390"/><path d="M20.807,189.187c-1.586,2.325-1.618,5.168-.068,6.334s4.094.226,5.674-2.08c1.548-2.315,1.674-5.1.16-6.279S22.453,186.879,20.807,189.187Z" transform="translate(-16.74 -170.217)" fill="#949390"/></g><g transform="translate(1466.371 705.967)"><path d="M226.5,189.806c-2.052-.926-6.354-.971-9.952.92s-5.6,5.042-4.535,6.886,5.542,1.737,7.11,3.394,2.513,5.148,5.244,6.07,5.659-6.015,5.872-9.573S229.743,191.275,226.5,189.806Z" transform="translate(-211.723 -177.497)" fill="#949390"/><path d="M229.987,193.757c-.305-1.471-2.221-2.2-4.271-1.644s-3.456,2.189-3.151,3.658,2.21,2.219,4.259,1.663S230.293,195.226,229.987,193.757Z" transform="translate(-202.158 -175.068)" fill="#949390"/><path d="M219.874,192.606c1.793.73,4.141-.788,5.151-3.435,1.037-2.63.428-5.323-1.358-6.019s-4.062.85-5.085,3.46C217.583,189.239,218.084,191.881,219.874,192.606Z" transform="translate(-206.098 -182.986)" fill="#949390"/><path d="M219.284,188.022c.013-2.091-1.275-3.773-2.721-3.688s-2.668,1.808-2.653,3.9,1.207,3.752,2.689,3.694S219.288,190.118,219.284,188.022Z" transform="translate(-209.787 -181.795)" fill="#949390"/><path d="M228.243,193.409c2.14-1.827,2.917-4.563,1.725-6.094s-3.89-1.293-6.021.519c-2.1,1.829-2.955,4.486-1.8,6.017S226.048,195.2,228.243,193.409Z" transform="translate(-202.95 -180.047)" fill="#949390"/></g><g transform="translate(445.774 592.674)"><path d="M74.4,160.654c-2.078.864-5.051,3.975-6.13,7.893s-.147,7.535,1.927,8.016,5.055-2.857,7.337-2.87,5.476,1.684,8.016.321-.524-8.242-2.975-10.829S77.691,159.286,74.4,160.654Z" transform="translate(-61.316 -148.257)" fill="#949390"/><path d="M80.735,157.784c-1.282-.781-3.124.119-4.118,1.995s-.766,4.02.517,4.8,3.13-.1,4.126-1.972S82.017,158.567,80.735,157.784Z" transform="translate(-54.072 -150.56)" fill="#949390"/><path d="M72.7,164.256c1.759-.813,2.255-3.562,1.014-6.109-1.211-2.555-3.594-3.952-5.321-3.124s-2.155,3.547-.95,6.079C68.672,163.624,70.944,165.064,72.7,164.256Z" transform="translate(-62.258 -152.967)" fill="#949390"/><path d="M69.407,160.817c-1.518-1.439-3.626-1.65-4.552-.534s-.505,3.183,1.037,4.606,3.562,1.682,4.535.56S70.94,162.248,69.407,160.817Z" transform="translate(-64.37 -148.727)" fill="#949390"/><path d="M78.82,159.256c.13-2.81-1.337-5.248-3.268-5.425s-3.6,1.957-3.737,4.75c-.1,2.785,1.256,5.223,3.162,5.429S78.63,162.086,78.82,159.256Z" transform="translate(-57.78 -153.82)" fill="#949390"/></g><g transform="translate(1452.815 368.176)"><path d="M222.041,111.412c2.225-.338,5.86-2.64,7.852-6.183s1.959-7.278.06-8.246S224.358,98.54,222.141,98s-4.91-2.953-7.7-2.24-1.478,8.123.279,11.227S218.517,111.946,222.041,111.412Z" transform="translate(-206.982 -95.632)" fill="#949390"/><path d="M210.36,107.9c1.056,1.067,3.06.639,4.478-.943s1.71-3.716.654-4.784-3.062-.66-4.48.92S209.3,106.829,210.36,107.9Z" transform="translate(-209.726 -90.368)" fill="#949390"/><path d="M220.159,104.931c-1.9.364-3.047,2.915-2.455,5.685.56,2.772,2.534,4.7,4.412,4.314s2.945-2.923,2.385-5.672C223.911,106.513,222.055,104.567,220.159,104.931Z" transform="translate(-202.799 -87.436)" fill="#949390"/><path d="M222.2,107.583c1.126,1.759,3.121,2.472,4.288,1.614s1.258-2.968.1-4.721-3.053-2.491-4.265-1.637S221.057,105.824,222.2,107.583Z" transform="translate(-199.406 -89.564)" fill="#949390"/><path d="M212.87,108.368c-.8,2.7.034,5.413,1.865,6.053s3.967-1.031,4.772-3.711c.767-2.677.04-5.372-1.761-6.03S213.735,105.668,212.87,108.368Z" transform="translate(-207.21 -87.747)" fill="#949390"/></g><g transform="translate(1864.391 24.903)"><path d="M265.189,26.554c.788,2.108,3.79,5.191,7.667,6.409s7.525.417,8.082-1.64-2.676-5.153-2.606-7.433,1.878-5.413.607-8-8.255.228-10.929,2.585S263.941,23.215,265.189,26.554Z" transform="translate(-252.958 -11.744)" fill="#949390"/><path d="M262.639,14.263c-.828,1.252.006,3.126,1.844,4.186s3.99.909,4.816-.345.017-3.132-1.823-4.193S263.465,13.009,262.639,14.263Z" transform="translate(-255.09 -13.207)" fill="#949390"/><path d="M268.833,23.3c-.747-1.786-3.479-2.38-6.068-1.231-2.6,1.12-4.077,3.451-3.313,5.206s3.468,2.282,6.041,1.169C268.058,27.3,269.58,25.079,268.833,23.3Z" transform="translate(-257.807 -5.884)" fill="#949390"/><path d="M265.289,25.987c-1.492,1.463-1.778,3.564-.7,4.529s3.164.618,4.64-.873,1.81-3.5.724-4.51S266.775,24.505,265.289,25.987Z" transform="translate(-253.654 -3.146)" fill="#949390"/><path d="M264.043,16.724c-2.8-.23-5.291,1.148-5.538,3.073s1.825,3.669,4.614,3.9c2.777.2,5.264-1.067,5.536-2.966S266.864,17.016,264.043,16.724Z" transform="translate(-258.485 -10.116)" fill="#949390"/></g><g transform="translate(464.073 25.783)"><path d="M80.3,29.441c2.116-.766,5.231-3.735,6.486-7.6s.5-7.522-1.556-8.1-5.182,2.621-7.459,2.529-5.393-1.933-7.993-.688.143,8.257,2.474,10.955S76.952,30.655,80.3,29.441Z" transform="translate(-65.469 -13.674)" fill="#949390"/><path d="M68.03,27.712c1.244.839,3.126.026,4.2-1.8s.95-3.98-.294-4.82-3.132-.047-4.212,1.78S66.785,26.873,68.03,27.712Z" transform="translate(-67 -7.403)" fill="#949390"/><path d="M77.111,22.774c-1.793.73-2.415,3.454-1.294,6.056,1.092,2.608,3.407,4.112,5.172,3.366s2.315-3.445,1.229-6.03C81.1,23.59,78.9,22.046,77.111,22.774Z" transform="translate(-59.688 -5.775)" fill="#949390"/><path d="M79.774,24.885c1.448,1.507,3.545,1.814,4.522.743s.651-3.156-.824-4.65-3.483-1.844-4.5-.769S78.307,23.384,79.774,24.885Z" transform="translate(-56.916 -8.439)" fill="#949390"/><path d="M70.5,27.69c-.258,2.8,1.094,5.3,3.015,5.57s3.688-1.788,3.95-4.572c.228-2.776-1.013-5.276-2.908-5.568S70.815,24.872,70.5,27.69Z" transform="translate(-63.931 -5.334)" fill="#949390"/></g><g transform="translate(776.081 203.503)"><path d="M124.915,68.208c2.174-.575,5.542-3.255,7.139-6.992s1.163-7.448-.828-8.2-5.4,2.15-7.657,1.854-5.2-2.406-7.9-1.4-.592,8.238,1.488,11.132S121.468,69.119,124.915,68.208Z" transform="translate(-109.925 -52.886)" fill="#949390"/><path d="M112.861,65.9c1.165.947,3.111.305,4.35-1.42s1.3-3.879.134-4.825-3.115-.328-4.354,1.4S111.7,64.952,112.861,65.9Z" transform="translate(-112.024 -47.285)" fill="#949390"/><path d="M122.307,61.835c-1.852.566-2.715,3.224-1.829,5.915.856,2.7,3.028,4.4,4.852,3.814s2.613-3.224,1.763-5.9C126.209,63,124.153,61.27,122.307,61.835Z" transform="translate(-104.847 -45.055)" fill="#949390"/><path d="M124.706,64.2c1.309,1.629,3.369,2.123,4.439,1.143s.928-3.087-.407-4.7-3.3-2.148-4.416-1.167S123.38,62.577,124.706,64.2Z" transform="translate(-101.785 -47.489)" fill="#949390"/><path d="M115.351,66.1c-.507,2.768.617,5.38,2.506,5.817s3.833-1.454,4.344-4.2c.475-2.745-.539-5.346-2.4-5.8S115.921,63.324,115.351,66.1Z" transform="translate(-109.185 -44.955)" fill="#949390"/></g><g transform="translate(1038.943 1027.922)"><path d="M166.439,272.206c0-2.251-1.72-6.194-4.919-8.7s-6.9-3.041-8.14-1.312.688,5.766-.179,7.876-3.664,4.4-3.385,7.273,7.806,2.693,11.138,1.427S166.432,275.769,166.439,272.206Z" transform="translate(-149.797 -259.624)" fill="#949390"/><path d="M161.07,277.712c1.214-.881,1.1-2.928-.253-4.569s-3.413-2.253-4.629-1.373-1.118,2.926.23,4.567S159.856,278.595,161.07,277.712Z" transform="translate(-144.889 -250.608)" fill="#949390"/><path d="M159.708,267.676c.07,1.935,2.417,3.453,5.246,3.288,2.825-.132,5.031-1.793,4.935-3.705s-2.442-3.356-5.244-3.221C161.84,264.205,159.636,265.746,159.708,267.676Z" transform="translate(-141.021 -257.106)" fill="#949390"/><path d="M162.707,265.634c1.91-.845,2.917-2.71,2.246-3.994s-2.743-1.693-4.65-.818-2.926,2.638-2.266,3.967S160.793,266.5,162.707,265.634Z" transform="translate(-142.678 -260.358)" fill="#949390"/><path d="M161.907,275.589c2.544,1.2,5.357.788,6.266-.926s-.417-4.077-2.941-5.278c-2.53-1.165-5.3-.856-6.228.826S159.369,274.324,161.907,275.589Z" transform="translate(-141.908 -252.982)" fill="#949390"/></g><g transform="translate(461.938 804.476)"><path d="M73.707,216.771c-1.4,1.759-2.506,5.919-1.559,9.871s3.507,6.671,5.557,6.09,3.049-4.942,5.04-6.055,5.608-1.169,7.175-3.588-4.437-6.965-7.833-8.048S75.93,213.985,73.707,216.771Z" transform="translate(-62.157 -203.449)" fill="#d9ae38"/><path d="M79.034,209.77c-1.5-.066-2.679,1.61-2.644,3.733s1.271,3.89,2.77,3.954,2.694-1.6,2.661-3.718S80.535,209.834,79.034,209.77Z" transform="translate(-58.088 -207.531)" fill="#d9ae38"/><path d="M75.381,219.156c1.148-1.559.256-4.207-2.059-5.838-2.295-1.654-5.055-1.727-6.17-.168s-.175,4.146,2.1,5.783C71.553,220.545,74.236,220.711,75.381,219.156Z" transform="translate(-66.683 -205.53)" fill="#d9ae38"/><path d="M71,217.639c-2.023-.528-3.971.305-4.244,1.729s1.1,3.032,3.132,3.534,3.933-.247,4.243-1.7S73.035,218.152,71,217.639Z" transform="translate(-66.647 -200.702)" fill="#d9ae38"/><path d="M78.086,211.967c-1.244-2.525-3.7-3.95-5.481-3.173s-2.21,3.451-.98,5.962c1.256,2.487,3.62,3.969,5.389,3.228S79.285,214.535,78.086,211.967Z" transform="translate(-62.927 -208.582)" fill="#d9ae38"/></g><g transform="translate(692.605 1023.437)"><path d="M111.412,274.668c2.249.025,6.209-1.661,8.743-4.838s3.107-6.867,1.39-8.127-5.774.634-7.874-.255-4.369-3.705-7.239-3.452-2.768,7.78-1.535,11.125S107.848,274.626,111.412,274.668Z" transform="translate(-96.503 -257.98)" fill="#d9ae38"/><path d="M100.45,269.185c.871,1.222,2.917,1.122,4.571-.209s2.287-3.394,1.418-4.616-2.917-1.146-4.569.187S99.579,267.962,100.45,269.185Z" transform="translate(-100.06 -253.097)" fill="#d9ae38"/><path d="M110.6,267.923c-1.936.053-3.477,2.385-3.339,5.215.106,2.826,1.744,5.048,3.66,4.968s3.377-2.41,3.268-5.212C114.045,270.09,112.525,267.871,110.6,267.923Z" transform="translate(-93.694 -249.174)" fill="#d9ae38"/><path d="M112.032,270.942c.828,1.92,2.683,2.943,3.973,2.285s1.718-2.728.862-4.644-2.61-2.951-3.945-2.3S111.187,269.021,112.032,270.942Z" transform="translate(-89.85 -250.799)" fill="#d9ae38"/><path d="M102.969,270.044c-1.226,2.532-.839,5.349.865,6.275s4.082-.379,5.306-2.892c1.19-2.519.905-5.3-.766-6.236S104.259,267.52,102.969,270.044Z" transform="translate(-98.118 -250.096)" fill="#d9ae38"/></g><g transform="translate(1391.853 1031.768)"><path d="M207.586,275.612c.724,2.131,3.632,5.306,7.469,6.641s7.51.649,8.127-1.39-2.515-5.234-2.376-7.512,2.042-5.351.85-7.976-8.257-.025-11,2.249S206.442,272.238,207.586,275.612Z" transform="translate(-195.509 -260.736)" fill="#d9ae38"/><path d="M205.31,263.383c-.864,1.228-.091,3.124,1.716,4.241s3.96,1.03,4.823-.2.113-3.13-1.693-4.246S206.174,262.155,205.31,263.383Z" transform="translate(-197.49 -262.398)" fill="#d9ae38"/><path d="M211.264,272.553c-.692-1.808-3.4-2.487-6.028-1.418-2.63,1.039-4.18,3.324-3.469,5.1s3.394,2.387,6,1.352C210.366,276.526,211.956,274.356,211.264,272.553Z" transform="translate(-200.468 -255.111)" fill="#d9ae38"/><path d="M207.631,275.156c-1.535,1.42-1.886,3.509-.835,4.507s3.143.715,4.667-.73,1.914-3.441.86-4.486S209.162,273.722,207.631,275.156Z" transform="translate(-196.395 -252.272)" fill="#d9ae38"/><path d="M206.658,265.853c-2.8-.315-5.325.986-5.63,2.9s1.712,3.724,4.491,4.045c2.772.285,5.295-.907,5.625-2.794S209.467,266.232,206.658,265.853Z" transform="translate(-200.997 -259.379)" fill="#d9ae38"/></g><g transform="translate(1468.519 200.607)"><path d="M220.377,69.2c1.976,1.077,6.264,1.444,9.992-.172s5.964-4.608,5.038-6.526-5.395-2.148-6.833-3.918-2.121-5.321-4.776-6.445-6.092,5.574-6.571,9.105S217.249,67.492,220.377,69.2Z" transform="translate(-207.352 -52.014)" fill="#d9ae38"/><path d="M212.18,58.892c.194,1.49,2.05,2.361,4.135,1.959s3.611-1.923,3.417-3.411-2.038-2.38-4.124-1.978S211.986,57.4,212.18,58.892Z" transform="translate(-211.696 -49.046)" fill="#d9ae38"/><path d="M222.111,62.712c-1.733-.86-4.188.477-5.395,3.04-1.231,2.546-.826,5.278.9,6.105s4.114-.545,5.332-3.07C224.142,66.244,223.842,63.572,222.111,62.712Z" transform="translate(-208.294 -42.771)" fill="#d9ae38"/><path d="M221.379,66.294c-.17,2.084.986,3.858,2.436,3.882s2.8-1.6,2.94-3.7-.922-3.831-2.406-3.886S221.533,64.2,221.379,66.294Z" transform="translate(-203.549 -42.646)" fill="#d9ae38"/><path d="M214.528,60.722c-2.27,1.661-3.251,4.329-2.178,5.947s3.782,1.58,6.043-.066c2.233-1.667,3.283-4.252,2.248-5.866S216.853,59.1,214.528,60.722Z" transform="translate(-211.915 -45.372)" fill="#d9ae38"/></g><g transform="translate(1454.903 543.764)"><path d="M225.95,150.91c-.994-2.019-4.286-4.789-8.264-5.617s-7.531.332-7.878,2.432,3.173,4.865,3.33,7.141-1.331,5.572.19,8.017,8.191-1.047,10.618-3.656S227.524,154.106,225.95,150.91Z" transform="translate(-209.783 -137.887)" fill="#d9ae38"/><path d="M224.948,157.251c.7-1.329-.315-3.109-2.251-3.982s-4.06-.507-4.757.82.3,3.119,2.231,3.992S224.251,158.58,224.948,157.251Z" transform="translate(-202.757 -131.006)" fill="#d9ae38"/><path d="M219,149.679c.92,1.7,3.7,2.025,6.16.624,2.474-1.371,3.715-3.837,2.779-5.51s-3.675-1.925-6.126-.562C219.369,145.623,218.075,147.982,219,149.679Z" transform="translate(-201.888 -139.367)" fill="#d9ae38"/><path d="M220.771,146.213c1.339-1.607,1.416-3.724.243-4.578s-3.209-.3-4.531,1.329-1.452,3.662-.272,4.561S219.439,147.833,220.771,146.213Z" transform="translate(-204.807 -141.239)" fill="#d9ae38"/><path d="M224.653,155.427c2.813-.051,5.151-1.669,5.206-3.607s-2.182-3.471-4.978-3.428c-2.783.077-5.133,1.586-5.215,3.5S221.817,155.416,224.653,155.427Z" transform="translate(-201.033 -134.905)" fill="#d9ae38"/></g><g transform="translate(22.504 344.951)"><path d="M28.3,105.53c1.435-1.733,2.613-5.872,1.738-9.841s-3.386-6.733-5.446-6.19-3.138,4.887-5.149,5.962-5.628,1.067-7.237,3.456,4.309,7.044,7.684,8.191S26.028,108.275,28.3,105.53Z" transform="translate(-11.935 -89.431)" fill="#d9ae38"/><path d="M16.8,107.369c1.5.092,2.71-1.563,2.713-3.686s-1.2-3.911-2.7-4-2.725,1.546-2.728,3.669S15.3,107.277,16.8,107.369Z" transform="translate(-10.03 -80.358)" fill="#d9ae38"/><path d="M22.377,98.322c-1.177,1.539-.332,4.2,1.953,5.877,2.265,1.693,5.023,1.818,6.166.279s.251-4.143-2-5.821C26.232,97,23.55,96.789,22.377,98.322Z" transform="translate(-3.155 -82.475)" fill="#d9ae38"/><path d="M25.927,98.669c2.014.564,3.977-.232,4.276-1.652s-1.041-3.051-3.068-3.588-3.937.173-4.273,1.618S23.9,98.118,25.927,98.669Z" transform="translate(-2.302 -86.052)" fill="#d9ae38"/><path d="M18.888,106.1c1.2,2.546,3.632,4.016,5.423,3.273s2.274-3.411,1.088-5.945c-1.211-2.51-3.547-4.033-5.329-3.324S17.735,103.511,18.888,106.1Z" transform="translate(-6.312 -80.132)" fill="#d9ae38"/></g><g transform="translate(1132.242 27.701)"><path d="M171.523,22.543c-1.669,1.508-3.432,5.436-3.136,9.488s2.381,7.152,4.5,6.911,3.809-4.384,5.955-5.159,5.723-.247,7.659-2.38-3.251-7.591-6.426-9.211S174.169,20.154,171.523,22.543Z" transform="translate(-159.25 -9.225)" fill="#d9ae38"/><path d="M177.443,16.779c-1.471-.307-2.906,1.156-3.215,3.258s.624,4.043,2.093,4.35,2.919-1.139,3.228-3.239S178.912,17.087,177.443,16.779Z" transform="translate(-154.101 -12.878)" fill="#d9ae38"/><path d="M172.23,25.434c1.386-1.354.933-4.112-1.088-6.1-2-2-4.708-2.521-6.06-1.163s-.845,4.062,1.137,6.045C168.225,26.184,170.848,26.782,172.23,25.434Z" transform="translate(-162.819 -12.277)" fill="#d9ae38"/><path d="M168.114,23.223c-1.91-.849-3.967-.341-4.469,1.018s.59,3.17,2.519,4,3.922.394,4.461-.988S170.037,24.058,168.114,23.223Z" transform="translate(-163.526 -7.503)" fill="#d9ae38"/><path d="M176.126,18.786c-.818-2.693-3.015-4.5-4.895-4.018s-2.74,3.049-1.933,5.726c.837,2.657,2.932,4.5,4.8,4.056S176.893,21.517,176.126,18.786Z" transform="translate(-158.682 -14.691)" fill="#d9ae38"/></g><g transform="translate(384.056 1022.856)"><path d="M71.645,269.221c-.179-2.242-2.216-6.034-5.606-8.272s-7.12-2.474-8.219-.651,1.15,5.693.456,7.865-3.3,4.686-2.787,7.521,8,2.055,11.219.526S71.924,272.775,71.645,269.221Z" transform="translate(-55.424 -256.422)" fill="#d9ae38"/><path d="M67.246,275c1.141-.979.856-3.007-.62-4.535s-3.584-1.97-4.723-.994-.879,3.006.6,4.533S66.107,275.973,67.246,275Z" transform="translate(-50.314 -247.683)" fill="#d9ae38"/><path d="M65.029,265.226c.226,1.923,2.689,3.247,5.495,2.857,2.8-.362,4.869-2.193,4.618-4.094s-2.7-3.147-5.485-2.785C66.875,261.6,64.8,263.309,65.029,265.226Z" transform="translate(-46.934 -254.598)" fill="#d9ae38"/><path d="M67.851,262.916c1.838-1,2.691-2.938,1.918-4.163s-2.87-1.465-4.7-.439-2.7,2.866-1.938,4.137S66.016,263.929,67.851,262.916Z" transform="translate(-48.846 -257.671)" fill="#d9ae38"/><path d="M67.892,272.866c2.632.994,5.4.355,6.171-1.427s-.745-4.031-3.36-5.023c-2.615-.958-5.355-.424-6.139,1.326S65.261,271.81,67.892,272.866Z" transform="translate(-47.517 -250.345)" fill="#d9ae38"/></g><g transform="translate(619.487 389.536)"><path d="M95.807,112.518c-.034,2.249,1.639,6.215,4.8,8.762s6.854,3.134,8.121,1.42-.611-5.774.285-7.872,3.722-4.354,3.481-7.225-7.769-2.8-11.119-1.578S95.862,108.954,95.807,112.518Z" transform="translate(-83.551 -97.616)" fill="#d9ae38"/><path d="M96.561,101.575c-1.226.867-1.133,2.913.192,4.572s3.383,2.3,4.61,1.435,1.156-2.911-.17-4.571S97.788,100.709,96.561,101.575Z" transform="translate(-83.648 -101.19)" fill="#d9ae38"/><path d="M99.493,111.727c-.043-1.936-2.37-3.486-5.2-3.36-2.826.094-5.055,1.725-4.984,3.639s2.4,3.388,5.2,3.29C97.315,115.169,99.54,113.656,99.493,111.727Z" transform="translate(-89.307 -94.84)" fill="#d9ae38"/><path d="M95.133,113.147c-1.921.82-2.955,2.672-2.3,3.965s2.721,1.727,4.64.879,2.96-2.6,2.317-3.937S97.056,112.31,95.133,113.147Z" transform="translate(-86.359 -90.986)" fill="#d9ae38"/><path d="M97.19,104.094c-2.529-1.235-5.347-.86-6.279.843s.364,4.082,2.872,5.317c2.515,1.2,5.293.926,6.237-.743S99.709,105.395,97.19,104.094Z" transform="translate(-88.154 -99.263)" fill="#d9ae38"/></g><g transform="translate(1541.892 871.74)"><path d="M238.685,242.207c1.518-1.659,2.9-5.736,2.221-9.743s-3.051-6.892-5.136-6.451-3.373,4.725-5.436,5.7-5.674.788-7.4,3.1,3.958,7.248,7.275,8.559S236.281,244.838,238.685,242.207Z" transform="translate(-222.616 -225.969)" fill="#d9ae38"/><path d="M226.953,243.724c1.493.166,2.783-1.427,2.891-3.549s-1.007-3.965-2.5-4.131-2.8,1.41-2.9,3.532S225.462,243.558,226.953,243.724Z" transform="translate(-221.006 -217.059)" fill="#d9ae38"/><path d="M232.946,234.956c-1.25,1.478-.537,4.182,1.663,5.966,2.178,1.8,4.927,2.061,6.143.581s.454-4.124-1.708-5.909C236.861,233.828,234.192,233.481,232.946,234.956Z" transform="translate(-214.012 -218.829)" fill="#d9ae38"/><path d="M236.464,235.476c1.982.662,3.982-.038,4.35-1.439s-.888-3.1-2.887-3.737-3.941-.019-4.346,1.407S234.469,234.827,236.464,235.476Z" transform="translate(-212.972 -222.359)" fill="#d9ae38"/><path d="M229.1,242.559c1.071,2.6,3.428,4.19,5.255,3.535s2.438-3.3,1.378-5.885c-1.086-2.564-3.345-4.2-5.159-3.583S228.074,239.915,229.1,242.559Z" transform="translate(-217.299 -216.648)" fill="#d9ae38"/></g><g transform="translate(816.538 531.756)"><path d="M126.819,155.211c2.078.864,6.379.781,9.918-1.22s5.447-5.208,4.325-7.018-5.593-1.571-7.209-3.179-2.668-5.068-5.425-5.907-5.474,6.183-5.581,9.745S123.529,153.842,126.819,155.211Z" transform="translate(-113.522 -137.817)" fill="#a4d9db"/><path d="M117.953,145.748c.349,1.459,2.285,2.133,4.318,1.514s3.388-2.293,3.038-3.752-2.276-2.151-4.307-1.535S117.6,144.289,117.953,145.748Z" transform="translate(-117.898 -134.335)" fill="#a4d9db"/><path d="M128.093,148.525c-1.814-.675-4.114.913-5.046,3.588-.956,2.661-.268,5.334,1.539,5.975s4.033-.973,4.98-3.613C130.484,151.823,129.9,149.2,128.093,148.525Z" transform="translate(-113.719 -128.473)" fill="#a4d9db"/><path d="M127.844,152.06c.051,2.089,1.388,3.733,2.832,3.6s2.611-1.887,2.534-3.984-1.32-3.713-2.8-3.611S127.778,149.963,127.844,152.06Z" transform="translate(-109.092 -128.744)" fill="#a4d9db"/><path d="M120.368,147.4c-2.084,1.891-2.777,4.648-1.542,6.143s3.928,1.175,6-.7c2.044-1.893,2.819-4.574,1.62-6.07S122.508,145.542,120.368,147.4Z" transform="translate(-117.618 -130.741)" fill="#a4d9db"/></g><g transform="translate(1863.844 412.286)"><path d="M270.071,113.436c-2.249-.023-6.207,1.669-8.74,4.846s-3.1,6.871-1.38,8.129,5.772-.639,7.874.247,4.373,3.7,7.242,3.447,2.759-7.784,1.524-11.127S273.634,113.474,270.071,113.436Z" transform="translate(-257.515 -101.191)" fill="#a4d9db"/><path d="M275.548,114.149c-.871-1.224-2.919-1.12-4.571.213s-2.283,3.4-1.412,4.618,2.917,1.143,4.569-.192S276.419,115.371,275.548,114.149Z" transform="translate(-248.474 -101.317)" fill="#a4d9db"/><path d="M265.487,117.128c1.935-.055,3.473-2.389,3.334-5.219-.109-2.825-1.75-5.046-3.664-4.965s-3.377,2.414-3.264,5.215C262.034,114.965,263.556,117.183,265.487,117.128Z" transform="translate(-254.926 -106.942)" fill="#a4d9db"/><path d="M263.474,112.773c-.83-1.918-2.685-2.941-3.977-2.28s-1.714,2.728-.856,4.642,2.613,2.949,3.948,2.3S264.321,114.693,263.474,112.773Z" transform="translate(-258.195 -103.975)" fill="#a4d9db"/><path d="M273.426,114.786c1.224-2.532.833-5.349-.873-6.273s-4.08.383-5.3,2.9c-1.188,2.521-.9,5.3.773,6.234S272.138,117.313,273.426,114.786Z" transform="translate(-250.817 -105.813)" fill="#a4d9db"/></g><g transform="translate(1861.755 1025.33)"><path d="M263.691,269.693c-.258,2.236,1.011,6.349,3.907,9.2s6.509,3.8,7.94,2.221-.034-5.806,1.067-7.8,4.137-3.963,4.182-6.845-7.452-3.556-10.906-2.676S264.1,266.154,263.691,269.693Z" transform="translate(-251.268 -255.048)" fill="#a4d9db"/><path d="M265.286,259.251c-1.307.739-1.418,2.785-.264,4.569s3.138,2.625,4.444,1.886,1.441-2.781.287-4.563S266.593,258.511,265.286,259.251Z" transform="translate(-250.766 -258.983)" fill="#a4d9db"/><path d="M267.254,269.51c.147-1.931-2.014-3.705-4.842-3.862-2.821-.187-5.2,1.214-5.319,3.126s2.048,3.609,4.846,3.792C264.742,272.718,267.106,271.436,267.254,269.51Z" transform="translate(-257.088 -253.095)" fill="#a4d9db"/><path d="M262.772,270.517c-1.995.624-3.205,2.363-2.683,3.715s2.534,1.991,4.529,1.337,3.2-2.291,2.7-3.686S264.769,269.876,262.772,270.517Z" transform="translate(-254.537 -248.994)" fill="#a4d9db"/><path d="M265.684,261.76c-2.393-1.48-5.234-1.388-6.33.213s-.045,4.1,2.329,5.578c2.381,1.442,5.172,1.448,6.281-.119S268.062,263.3,265.684,261.76Z" transform="translate(-255.465 -257.456)" fill="#a4d9db"/></g><g transform="translate(857.205 837.532)"><path d="M131.211,232.665c1.45,1.721,5.312,3.62,9.373,3.468s7.229-2.131,7.063-4.254-4.25-3.96-4.948-6.13-.047-5.728-2.11-7.738-7.7,2.983-9.43,6.1S128.914,229.941,131.211,232.665Z" transform="translate(-117.931 -217.547)" fill="#a4d9db"/><path d="M125.727,220.485c-.358,1.458,1.054,2.943,3.143,3.326s4.063-.483,4.422-1.94-1.035-2.957-3.124-3.339S126.085,219.027,125.727,220.485Z" transform="translate(-121.471 -216.755)" fill="#a4d9db"/><path d="M134.2,227.49c-1.3-1.431-4.075-1.077-6.13.875-2.07,1.925-2.685,4.616-1.375,6.015s4.031.986,6.083-.926C134.807,231.518,135.5,228.917,134.2,227.49Z" transform="translate(-121.178 -209.515)" fill="#a4d9db"/><path d="M131.844,230.873c-.913,1.88-.479,3.954.864,4.5s3.187-.479,4.078-2.378.532-3.9-.832-4.493S132.747,228.98,131.844,230.873Z" transform="translate(-116.433 -207.989)" fill="#a4d9db"/><path d="M127.689,222.751c-2.719.724-4.6,2.857-4.188,4.752s2.951,2.845,5.655,2.131c2.685-.743,4.6-2.77,4.222-4.65S130.443,222.08,127.689,222.751Z" transform="translate(-123.444 -213.122)" fill="#a4d9db"/></g><g transform="translate(29.896 187.139)"><path d="M25.237,65.932c2.133.718,6.418.338,9.811-1.9s5.076-5.572,3.831-7.3-5.685-1.18-7.41-2.674-3.011-4.872-5.819-5.521-5.034,6.545-4.895,10.109S21.86,64.792,25.237,65.932Z" transform="translate(-11.522 -48.495)" fill="#a4d9db"/><path d="M15.947,57.086c.451,1.431,2.429,1.969,4.412,1.212s3.222-2.521,2.774-3.952-2.419-1.989-4.4-1.233S15.5,55.653,15.947,57.086Z" transform="translate(-15.855 -44.705)" fill="#a4d9db"/><path d="M26.176,59.156c-1.857-.547-4.043,1.2-4.786,3.93-.773,2.719.1,5.34,1.946,5.855s3.956-1.248,4.72-3.946C28.787,62.282,28.029,59.7,26.176,59.156Z" transform="translate(-11.203 -39.144)" fill="#a4d9db"/><path d="M26.245,62.639c.194,2.08,1.64,3.628,3.072,3.4s2.478-2.063,2.255-4.148S30,58.276,28.53,58.48,26.034,60.552,26.245,62.639Z" transform="translate(-6.679 -39.67)" fill="#a4d9db"/><path d="M18.4,58.615c-1.95,2.031-2.451,4.829-1.114,6.236s4,.9,5.94-1.112c1.91-2.029,2.5-4.757,1.2-6.166S20.4,56.612,18.4,58.615Z" transform="translate(-15.254 -41.183)" fill="#a4d9db"/></g><g transform="translate(427.323 230.532)"><path d="M68.316,68.943c-.815,2.1-.626,6.4,1.456,9.886s5.338,5.323,7.122,4.158,1.435-5.628,3-7.282,5-2.789,5.777-5.564-6.311-5.325-9.877-5.347S69.607,65.621,68.316,68.943Z" transform="translate(-55.917 -55.495)" fill="#a4d9db"/><path d="M71.9,59.928c-1.45.385-2.076,2.336-1.41,4.354s2.372,3.334,3.824,2.947,2.1-2.325,1.431-4.342S73.348,59.544,71.9,59.928Z" transform="translate(-53.834 -59.862)" fill="#a4d9db"/><path d="M71.3,70.1c.632-1.831-1.011-4.092-3.709-4.959-2.683-.894-5.338-.14-5.938,1.68s1.069,4.009,3.73,4.893C68.056,72.573,70.668,71.93,71.3,70.1Z" transform="translate(-61.53 -55.516)" fill="#a4d9db"/><path d="M66.7,69.965c-2.087.1-3.7,1.476-3.535,2.917s1.95,2.566,4.045,2.438,3.681-1.407,3.543-2.883S68.795,69.85,66.7,69.965Z" transform="translate(-60.092 -50.922)" fill="#a4d9db"/><path d="M71.681,62.357c-1.94-2.038-4.714-2.666-6.179-1.4s-1.08,3.954.843,5.985c1.94,2,4.64,2.708,6.107,1.473S73.591,64.452,71.681,62.357Z" transform="translate(-58.8 -59.47)" fill="#a4d9db"/></g><g transform="translate(1870.118 788.359)"><path d="M271.6,211.422c-2.085.845-5.089,3.928-6.2,7.836s-.217,7.533,1.854,8.034,5.082-2.811,7.363-2.8,5.459,1.733,8.01.394-.447-8.246-2.874-10.857S274.907,210.087,271.6,211.422Z" transform="translate(-258.515 -199.069)" fill="#a4d9db"/><path d="M277.935,208.636c-1.275-.792-3.126.091-4.137,1.957s-.8,4.012.473,4.8,3.13-.068,4.143-1.935S279.209,209.429,277.935,208.636Z" transform="translate(-251.219 -201.328)" fill="#a4d9db"/><path d="M269.832,215.036c1.765-.8,2.287-3.541,1.071-6.1-1.188-2.566-3.558-3.984-5.293-3.173s-2.187,3.526-1.007,6.07C265.814,214.367,268.071,215.83,269.832,215.036Z" transform="translate(-259.378 -203.816)" fill="#a4d9db"/><path d="M266.567,211.569c-1.5-1.45-3.609-1.682-4.546-.575s-.534,3.179,1,4.616,3.547,1.716,4.527.6S268.087,213.015,266.567,211.569Z" transform="translate(-261.523 -199.598)" fill="#a4d9db"/><path d="M276.008,210.091c.155-2.809-1.288-5.261-3.219-5.455s-3.62,1.921-3.779,4.714c-.128,2.783,1.2,5.234,3.111,5.457S275.792,212.917,276.008,210.091Z" transform="translate(-254.899 -204.623)" fill="#a4d9db"/></g><g transform="translate(30.488 18.785)"><path d="M23.173,18.19c-1.367,1.788-2.383,5.97-1.352,9.9s3.645,6.6,5.683,5.973,2.943-5.006,4.912-6.158,5.581-1.286,7.1-3.737-4.582-6.871-8-7.884S25.338,15.358,23.173,18.19Z" transform="translate(-11.538 -4.886)" fill="#a4d9db"/><path d="M28.405,11.037C26.9,11,25.762,12.7,25.841,14.825s1.35,3.862,2.851,3.9,2.662-1.652,2.583-3.773S29.906,11.071,28.405,11.037Z" transform="translate(-7.608 -9.011)" fill="#a4d9db"/><path d="M24.959,20.5c1.116-1.584.168-4.212-2.182-5.794-2.329-1.6-5.089-1.622-6.171-.04s-.089,4.148,2.223,5.738C21.16,21.972,23.849,22.081,24.959,20.5Z" transform="translate(-16.169 -6.835)" fill="#a4d9db"/><path d="M20.554,19.077c-2.035-.485-3.965.388-4.209,1.818s1.16,3.007,3.205,3.468,3.928-.328,4.207-1.786S22.6,19.549,20.554,19.077Z" transform="translate(-16.037 -2.01)" fill="#a4d9db"/><path d="M27.506,13.256c-1.3-2.5-3.784-3.873-5.545-3.058s-2.138,3.5-.856,5.983c1.309,2.459,3.7,3.892,5.457,3.113S28.76,15.8,27.506,13.256Z" transform="translate(-12.471 -9.963)" fill="#a4d9db"/></g><g transform="translate(919.274 357.644)"><path d="M148.852,101.623c-1.31-1.827-5.016-4.02-9.075-4.18s-7.373,1.563-7.371,3.694,3.928,4.276,4.457,6.494-.4,5.715,1.5,7.88,7.908-2.378,9.873-5.353S150.93,104.519,148.852,101.623Z" transform="translate(-132.406 -88.952)" fill="#a4d9db"/><path d="M148.969,107.806c.47-1.425-.822-3.017-2.875-3.56s-4.088.166-4.557,1.591.8,3.028,2.857,3.571S148.5,109.231,148.969,107.806Z" transform="translate(-124.407 -83.08)" fill="#a4d9db"/><path d="M141.632,101.58c1.188,1.529,3.98,1.388,6.179-.4,2.214-1.759,3.034-4.4,1.837-5.891s-3.943-1.3-6.136.451C141.334,97.517,140.446,100.057,141.632,101.58Z" transform="translate(-124.704 -91.735)" fill="#a4d9db"/><path d="M142.867,97.7c1.058-1.8.784-3.9-.511-4.554s-3.215.23-4.252,2.053-.832,3.852.481,4.544S141.821,99.518,142.867,97.7Z" transform="translate(-127.945 -92.935)" fill="#a4d9db"/><path d="M148.273,106.261c2.766-.511,4.808-2.493,4.542-4.414s-2.721-3.064-5.472-2.562c-2.734.534-4.8,2.406-4.571,4.31S145.474,106.717,148.273,106.261Z" transform="translate(-123.242 -87.416)" fill="#a4d9db"/></g><g transform="translate(1150.441 241.749)"><path d="M174.862,70.266c-1.808,1.337-3.945,5.072-4.048,9.136s1.671,7.35,3.8,7.316,4.218-3.99,6.43-4.552,5.719.315,7.855-1.62-2.493-7.872-5.495-9.794S177.728,68.145,174.862,70.266Z" transform="translate(-162.235 -57.086)" fill="#a4d9db"/><path d="M181.018,65.3c-1.433-.449-3,.867-3.518,2.928s.226,4.084,1.659,4.533,3.015-.847,3.528-2.908S182.449,65.746,181.018,65.3Z" transform="translate(-156.455 -60.408)" fill="#a4d9db"/><path d="M174.918,73.41c1.512-1.211,1.331-4-.486-6.173-1.791-2.187-4.439-2.97-5.917-1.75s-1.239,3.96.541,6.128C170.861,73.767,173.412,74.619,174.918,73.41Z" transform="translate(-165.125 -60.672)" fill="#a4d9db"/><path d="M171.006,70.812c-1.818-1.031-3.914-.728-4.546.577s.277,3.211,2.117,4.222,3.862.775,4.535-.547S172.839,71.833,171.006,70.812Z" transform="translate(-166.262 -55.994)" fill="#a4d9db"/><path d="M179.5,67.169c-.551-2.759-2.561-4.77-4.478-4.478S172,65.457,172.538,68.2c.573,2.727,2.476,4.767,4.376,4.507S180,69.962,179.5,67.169Z" transform="translate(-160.826 -62.663)" fill="#a4d9db"/></g></g></svg>