<svg xmlns="http://www.w3.org/2000/svg" width="244" height="175" viewBox="0 0 244 175">
  <g fill="none" fill-rule="evenodd" transform="translate(.414 .081)">
    <path fill="#234054" d="M243 71L243 153.08C243 164.707 232.494 174 220.867 174L22.245 174C10.618 174 0 164.707 0 153.08L0 71 107.901 71C105.855 73 104.138 76.888 102.768 80.125 101.113 84.038 100.02 88.13 99.497 92.316 99.259 94.219 99.14 96.155 99.14 98.099 99.14 100.627 99.341 103.131 99.743 105.589 99.803 105.966 99.87 106.344 99.942 106.718 99.977 106.906 100.083 107.094 100.121 107.283 100.347 108.407 101 109.524 101 110.629L101 110.631C101 110.999 101.142 111.365 101.256 111.73 101.369 112.096 101.451 112.461 101.574 112.825 101.942 113.916 102.389 114.474 102.841 115.543 103.567 117.26 104.553 119 105.37 120L105.359 120C105.768 122 106.24 122.11 106.747 122.88 107.355 123.806 107.817 124.971 108.491 125.853 108.716 126.147 109 126.63 109 126.917L109 126.953C109 127.241 111 127.544 111 127.826L111 127.836C111 128.119 111 128.403 111 128.681L111 128.684C111 129.102 111.789 129.513 112.175 129.917 112.433 130.187 113 130.454 113 130.719 113 131.382 114.163 132.021 114.858 132.637 115.275 133.007 115.61 133.368 116.039 133.722 116.325 133.958 116.569 134.19 116.86 134.418 117.151 134.647 117.422 134.873 117.719 135.093 117.866 135.203 118.004 135.313 118.154 135.422 119.945 136.727 121.821 137.897 123.787 138.932 123.951 139.018 124.112 139.104 124.277 139.187 124.607 139.356 124.938 139.521 125.273 139.681 125.941 140.003 126.618 140.309 127.305 140.599 132.999 143.007 139.039 144.228 145.26 144.228 151.482 144.228 157.522 143.007 163.215 140.599 168.709 138.275 173.64 134.951 177.872 130.719 182.104 126.488 185.428 121.556 187.751 116.063 190.159 110.369 191.38 104.329 191.38 98.107 191.38 91.886 190.159 85.818 187.751 80.125 186.382 76.888 184.665 73 182.618 71L243 71M243 38.658L243 65 178.959 65C178.605 65 178.242 65.055 177.872 64.685 173.64 60.453 168.709 57.534 163.215 55.211 157.522 52.803 151.481 51.784 145.26 51.784 139.038 51.784 132.998 53.107 127.305 55.515 121.811 57.838 116.88 60.402 112.648 64.634 112.278 65.004 111.915 65 111.561 65L0 65 0 38.658C0 27.477 10.171 18 21.353 18L221.759 18C232.941 18 243 27.477 243 38.658"/>
    <path fill="#C8DE9A" d="M179.675,98.233 C179.675,99.127 179.641,100.013 179.574,100.89 C178.447,115.701 168.009,127.909 154.099,131.673 C153.686,131.785 153.27,131.889 152.851,131.986 C152.571,132.052 152.29,132.112 152.009,132.17 C151.727,132.227 151.444,132.281 151.16,132.332 C149.879,132.561 148.575,132.719 147.251,132.803 C146.957,132.822 146.661,132.837 146.365,132.848 C145.921,132.865 145.474,132.873 145.026,132.873 C126.786,132.873 111.839,118.781 110.478,100.89 C110.411,100.011 110.377,99.121 110.377,98.224 C110.377,97.372 110.408,96.527 110.468,95.69 C110.821,90.817 112.18,86.225 114.341,82.119 C114.414,81.976 114.351,81.836 114.427,81.695 C114.656,81.274 115,80.858 115,80.448 L115,80.447 C115,80.038 115.638,79.633 115.902,79.234 C116.075,78.968 116.324,78.703 116.507,78.443 C118.415,75.703 120.744,73.253 123.344,71.169 C125.53,69.417 127.952,67.924 130.527,66.739 C134.933,64.708 139.848,63.576 145.017,63.576 C150.186,63.576 155.096,64.708 159.502,66.739 C159.824,66.886 160.146,67.039 160.462,67.198 C162.678,68.301 164.758,69.636 166.672,71.169 L166.695,71.187 C169.286,73.267 171.573,75.711 173.475,78.443 C173.656,78.705 173.949,78.969 174.124,79.234 C174.387,79.633 175,80.038 175,80.447 L175,80.448 C175,80.858 175.37,81.274 175.599,81.695 C175.674,81.836 175.693,81.977 175.768,82.119 C177.929,86.225 179.259,90.817 179.612,95.69 C179.673,96.53 179.675,97.377 179.675,98.233"/>
    <polyline fill="#1B2B3A" points="98.045 0 45.404 0 19.083 26 124.365 26 98.045 0"/>
  </g>
</svg>
