<svg xmlns="http://www.w3.org/2000/svg" width="1880.761" height="151.868" viewBox="0 0 1880.761 151.868"><g transform="translate(-462.905 -122.233)" opacity="0.22"><g transform="translate(945.396 142.901)"><g transform="translate(0 55.865)"><g transform="translate(21.076 29.573)"><path d="M595.454,274.393c-9.861-2.561-11.758-3.443-15.6-6.018s-9.27-3.657-12.69-2.079c-6.313,2.911-5.6,10.448-7.4,15.57-2.056,5.854-10.08,13.819-3.784,20.059s14.714-6.686,24.471-8.683,8.46-1.833,15.943-3.352S606.539,277.267,595.454,274.393Z" transform="translate(-553.615 -265.56)" fill="#fff"/></g><path d="M557.741,266.157c4.767,1.387,10.871,3.944,12.513,10.5,1.337,5.331-2.693,10.321-8.456,9.07-3.116-.678-10.739-5.881-12.5-12.763S553.457,264.91,557.741,266.157Z" transform="translate(-548.981 -235.42)" fill="#fff"/><path d="M561.943,263c3.935,3.025,8.688,7.633,7.828,14.337-.7,5.449-6.268,8.629-11.176,5.363-2.656-1.765-7.86-9.393-6.991-16.443S558.409,260.275,561.943,263Z" transform="translate(-540.015 -252.472)" fill="#fff"/><path d="M564.621,265.22c-2.77,4.121-5.809,10-2.861,16.084,2.393,4.944,8.683,6.186,12.3,1.528,1.956-2.515,4.462-11.4,1.4-17.812S567.109,261.517,564.621,265.22Z" transform="translate(-507.918 -251.304)" fill="#fff"/><path d="M556.751,265.429c-.937,4.876-1.437,11.476,3.652,15.92,4.135,3.616,10.412,2.3,11.922-3.4.819-3.084-.35-12.24-5.672-16.943S557.593,261.044,556.751,265.429Z" transform="translate(-523.547 -259.059)" fill="#fff"/></g><g transform="translate(68.097)"><g transform="translate(9.328 27.738)"><path d="M613.827,271.652c-8-6.3-9.388-7.873-11.872-11.776s-7.018-7.073-10.789-7c-6.95.132-9.324,7.319-13.022,11.29-4.234,4.535-14.783,8.606-11.526,16.848s16.161-.214,25.9,1.879,8.488,1.719,15.948,3.334S622.824,278.744,613.827,271.652Z" transform="translate(-566.003 -252.875)" fill="#fff"/></g><path d="M574.586,252.478c3.812,3.179,8.374,7.978,7.246,14.642-.919,5.413-6.609,8.365-11.385,4.908-2.584-1.874-7.473-9.7-6.323-16.711S571.161,249.612,574.586,252.478Z" transform="translate(-563.952 -234.732)" fill="#fff"/><path d="M580.81,251.3c2.384,4.348,4.89,10.48,1.41,16.27-2.829,4.712-9.206,5.385-12.395.423-1.719-2.684-3.42-11.758.2-17.867S578.663,247.388,580.81,251.3Z" transform="translate(-549.994 -246.777)" fill="#fff"/><path d="M584.518,252.783c-4.189,2.661-9.338,6.823-9.079,13.577.2,5.49,5.467,9.156,10.653,6.345,2.8-1.524,8.665-8.651,8.433-15.752S588.284,250.386,584.518,252.783Z" transform="translate(-523.223 -231.185)" fill="#fff"/><path d="M576.639,250.977c-2.816,4.089-5.927,9.93-3.052,16.047,2.333,4.972,8.61,6.291,12.286,1.678,1.983-2.5,4.594-11.353,1.606-17.8S579.172,247.3,576.639,250.977Z" transform="translate(-533.828 -245.731)" fill="#fff"/></g></g><g transform="translate(1946.077 142.901)"><g transform="translate(0 55.865)"><g transform="translate(21.076 29.573)"><path d="M595.454,274.393c-9.861-2.561-11.758-3.443-15.6-6.018s-9.27-3.657-12.69-2.079c-6.313,2.911-5.6,10.448-7.4,15.57-2.056,5.854-10.08,13.819-3.784,20.059s14.714-6.686,24.471-8.683,8.46-1.833,15.943-3.352S606.539,277.267,595.454,274.393Z" transform="translate(-553.615 -265.56)" fill="#fff"/></g><path d="M557.741,266.157c4.767,1.387,10.871,3.944,12.513,10.5,1.337,5.331-2.693,10.321-8.456,9.07-3.116-.678-10.739-5.881-12.5-12.763S553.457,264.91,557.741,266.157Z" transform="translate(-548.981 -235.42)" fill="#fff"/><path d="M561.943,263c3.935,3.025,8.688,7.633,7.828,14.337-.7,5.449-6.268,8.629-11.176,5.363-2.656-1.765-7.86-9.393-6.991-16.443S558.409,260.275,561.943,263Z" transform="translate(-540.015 -252.472)" fill="#fff"/><path d="M564.621,265.22c-2.77,4.121-5.809,10-2.861,16.084,2.393,4.944,8.683,6.186,12.3,1.528,1.956-2.515,4.462-11.4,1.4-17.812S567.109,261.517,564.621,265.22Z" transform="translate(-507.918 -251.304)" fill="#fff"/><path d="M556.751,265.429c-.937,4.876-1.437,11.476,3.652,15.92,4.135,3.616,10.412,2.3,11.922-3.4.819-3.084-.35-12.24-5.672-16.943S557.593,261.044,556.751,265.429Z" transform="translate(-523.547 -259.059)" fill="#fff"/></g><g transform="translate(68.097)"><g transform="translate(9.328 27.738)"><path d="M613.827,271.652c-8-6.3-9.388-7.873-11.872-11.776s-7.018-7.073-10.789-7c-6.95.132-9.324,7.319-13.022,11.29-4.234,4.535-14.783,8.606-11.526,16.848s16.161-.214,25.9,1.879,8.488,1.719,15.948,3.334S622.824,278.744,613.827,271.652Z" transform="translate(-566.003 -252.875)" fill="#fff"/></g><path d="M574.586,252.478c3.812,3.179,8.374,7.978,7.246,14.642-.919,5.413-6.609,8.365-11.385,4.908-2.584-1.874-7.473-9.7-6.323-16.711S571.161,249.612,574.586,252.478Z" transform="translate(-563.952 -234.732)" fill="#fff"/><path d="M580.81,251.3c2.384,4.348,4.89,10.48,1.41,16.27-2.829,4.712-9.206,5.385-12.395.423-1.719-2.684-3.42-11.758.2-17.867S578.663,247.388,580.81,251.3Z" transform="translate(-549.994 -246.777)" fill="#fff"/><path d="M584.518,252.783c-4.189,2.661-9.338,6.823-9.079,13.577.2,5.49,5.467,9.156,10.653,6.345,2.8-1.524,8.665-8.651,8.433-15.752S588.284,250.386,584.518,252.783Z" transform="translate(-523.223 -231.185)" fill="#fff"/><path d="M576.639,250.977c-2.816,4.089-5.927,9.93-3.052,16.047,2.333,4.972,8.61,6.291,12.286,1.678,1.983-2.5,4.594-11.353,1.606-17.8S579.172,247.3,576.639,250.977Z" transform="translate(-533.828 -245.731)" fill="#fff"/></g></g><g transform="translate(739.937 135.914)"><g transform="translate(0 69.423)"><g transform="translate(25.769 28.833)"><path d="M566.064,150.734c-10.175-.478-12.218-.946-16.507-2.679s-9.82-1.674-12.845.578c-5.581,4.148-3.334,11.371-4.039,16.752-.805,6.154-7.023,15.6.423,20.414s13.023-9.57,22.161-13.532,7.906-3.534,14.915-6.559S577.5,151.271,566.064,150.734Z" transform="translate(-529.476 -146.842)" fill="#fff"/></g><path d="M531.594,148.521c4.949.373,11.449,1.624,14.406,7.7,2.4,4.94-.514,10.653-6.414,10.612-3.184-.018-11.717-3.548-14.855-9.92S527.141,148.185,531.594,148.521Z" transform="translate(-523.811 -112.162)" fill="#fff"/><path d="M534.848,144.377c4.471,2.156,10.071,5.686,10.607,12.422.437,5.477-4.357,9.734-9.838,7.546-2.961-1.178-9.62-7.573-10.22-14.651S530.823,142.44,534.848,144.377Z" transform="translate(-518.332 -130.506)" fill="#fff"/><path d="M536.652,146.794c-1.86,4.6-3.63,10.98.5,16.329,3.361,4.344,9.775,4.267,12.358-1.032,1.4-2.87,2.02-12.081-2.3-17.721S538.326,142.654,536.652,146.794Z" transform="translate(-485.412 -136.752)" fill="#fff"/><path d="M529.681,147.988c.082,4.962.951,11.526,6.846,14.833,4.79,2.684,10.662.109,10.967-5.781.168-3.184-2.857-11.908-9.034-15.41S529.6,143.526,529.681,147.988Z" transform="translate(-502.985 -140.503)" fill="#fff"/></g><g transform="translate(52.434)"><g transform="translate(15.461 28.702)"><path d="M584.385,145.452c-9.129-4.526-10.808-5.777-14.042-9.083s-8.324-5.481-12-4.635c-6.773,1.56-7.619,9.079-10.425,13.723-3.206,5.313-12.695,11.462-7.81,18.863s15.769-3.534,25.726-3.489,8.66-.064,16.3-.018S594.646,150.538,584.385,145.452Z" transform="translate(-538.737 -131.551)" fill="#fff"/></g><path d="M545.007,131.484c4.38,2.333,9.834,6.086,10.1,12.841.218,5.486-4.749,9.547-10.134,7.141-2.911-1.3-9.306-7.955-9.62-15.051S541.068,129.388,545.007,131.484Z" transform="translate(-535.339 -107.476)" fill="#fff"/><path d="M550.206,129.314c3.23,3.766,6.941,9.247,4.726,15.633-1.8,5.19-7.9,7.164-12.04,2.961-2.238-2.27-5.768-10.8-3.475-17.526S547.3,125.926,550.206,129.314Z" transform="translate(-523.508 -122.39)" fill="#fff"/><path d="M553.579,131.2c-3.553,3.466-7.733,8.6-6.1,15.156,1.333,5.331,7.232,7.833,11.731,4.016,2.429-2.065,6.7-10.248,5.013-17.148S556.772,128.083,553.579,131.2Z" transform="translate(-493.54 -113.836)" fill="#fff"/><path d="M545.477,130.4c-1.915,4.576-3.757,10.935.314,16.329,3.307,4.385,9.72,4.385,12.367-.882,1.428-2.852,2.165-12.054-2.083-17.748S547.2,126.284,545.477,130.4Z" transform="translate(-506.894 -125.241)" fill="#fff"/></g></g><g transform="translate(1740.618 135.914)"><g transform="translate(0 69.423)"><g transform="translate(25.769 28.833)"><path d="M566.064,150.734c-10.175-.478-12.218-.946-16.507-2.679s-9.82-1.674-12.845.578c-5.581,4.148-3.334,11.371-4.039,16.752-.805,6.154-7.023,15.6.423,20.414s13.023-9.57,22.161-13.532,7.906-3.534,14.915-6.559S577.5,151.271,566.064,150.734Z" transform="translate(-529.476 -146.842)" fill="#fff"/></g><path d="M531.594,148.521c4.949.373,11.449,1.624,14.406,7.7,2.4,4.94-.514,10.653-6.414,10.612-3.184-.018-11.717-3.548-14.855-9.92S527.141,148.185,531.594,148.521Z" transform="translate(-523.811 -112.162)" fill="#fff"/><path d="M534.848,144.377c4.471,2.156,10.071,5.686,10.607,12.422.437,5.477-4.357,9.734-9.838,7.546-2.961-1.178-9.62-7.573-10.22-14.651S530.823,142.44,534.848,144.377Z" transform="translate(-518.332 -130.506)" fill="#fff"/><path d="M536.652,146.794c-1.86,4.6-3.63,10.98.5,16.329,3.361,4.344,9.775,4.267,12.358-1.032,1.4-2.87,2.02-12.081-2.3-17.721S538.326,142.654,536.652,146.794Z" transform="translate(-485.412 -136.752)" fill="#fff"/><path d="M529.681,147.988c.082,4.962.951,11.526,6.846,14.833,4.79,2.684,10.662.109,10.967-5.781.168-3.184-2.857-11.908-9.034-15.41S529.6,143.526,529.681,147.988Z" transform="translate(-502.985 -140.503)" fill="#fff"/></g><g transform="translate(52.434)"><g transform="translate(15.461 28.702)"><path d="M584.385,145.452c-9.129-4.526-10.808-5.777-14.042-9.083s-8.324-5.481-12-4.635c-6.773,1.56-7.619,9.079-10.425,13.723-3.206,5.313-12.695,11.462-7.81,18.863s15.769-3.534,25.726-3.489,8.66-.064,16.3-.018S594.646,150.538,584.385,145.452Z" transform="translate(-538.737 -131.551)" fill="#fff"/></g><path d="M545.007,131.484c4.38,2.333,9.834,6.086,10.1,12.841.218,5.486-4.749,9.547-10.134,7.141-2.911-1.3-9.306-7.955-9.62-15.051S541.068,129.388,545.007,131.484Z" transform="translate(-535.339 -107.476)" fill="#fff"/><path d="M550.206,129.314c3.23,3.766,6.941,9.247,4.726,15.633-1.8,5.19-7.9,7.164-12.04,2.961-2.238-2.27-5.768-10.8-3.475-17.526S547.3,125.926,550.206,129.314Z" transform="translate(-523.508 -122.39)" fill="#fff"/><path d="M553.579,131.2c-3.553,3.466-7.733,8.6-6.1,15.156,1.333,5.331,7.232,7.833,11.731,4.016,2.429-2.065,6.7-10.248,5.013-17.148S556.772,128.083,553.579,131.2Z" transform="translate(-493.54 -113.836)" fill="#fff"/><path d="M545.477,130.4c-1.915,4.576-3.757,10.935.314,16.329,3.307,4.385,9.72,4.385,12.367-.882,1.428-2.852,2.165-12.054-2.083-17.748S547.2,126.284,545.477,130.4Z" transform="translate(-506.894 -125.241)" fill="#fff"/></g></g><g transform="translate(1187.272 174.811)"><g transform="translate(0 15.549)"><g transform="translate(5.443 28.74)"><path d="M711.658,285.126c-7.123-7.282-8.3-9.015-10.261-13.2s-6.045-7.919-9.793-8.333c-6.909-.764-10.189,6.059-14.369,9.516-4.781,3.953-15.77,6.632-13.6,15.229s16.056,1.87,25.44,5.194,8.2,2.8,15.388,5.358S719.664,293.313,711.658,285.126Z" transform="translate(-663.354 -263.529)" fill="#fff"/></g><path d="M673.48,263.067c3.366,3.648,7.273,8.992,5.3,15.456-1.61,5.249-7.633,7.446-11.926,3.4-2.32-2.188-6.159-10.58-4.117-17.385S670.451,259.787,673.48,263.067Z" transform="translate(-662.158 -247.253)" fill="#fff"/><path d="M680.349,262.517c1.81,4.621,3.5,11.021-.7,16.32-3.411,4.3-9.821,4.153-12.34-1.178-1.364-2.884-1.883-12.1,2.5-17.694S678.725,258.359,680.349,262.517Z" transform="translate(-647.316 -257.211)" fill="#fff"/><path d="M684,263.744c-4.5,2.1-10.139,5.567-10.753,12.3-.5,5.467,4.244,9.784,9.748,7.66,2.975-1.146,9.706-7.46,10.389-14.533S688.044,261.856,684,263.744Z" transform="translate(-622.935 -237.587)" fill="#fff"/><path d="M676.442,261.312c-3.321,3.694-7.155,9.088-5.094,15.524,1.678,5.231,7.732,7.346,11.967,3.243,2.292-2.22,6.022-10.666,3.889-17.439S679.426,258,676.442,261.312Z" transform="translate(-631.606 -253.75)" fill="#fff"/></g><g transform="translate(86.421)"><g transform="translate(0 28.173)"><path d="M726.518,288.979c-3.6-9.529-3.976-11.59-4.089-16.215s-2.361-9.68-5.626-11.563c-6.018-3.475-11.763,1.456-16.98,2.943-5.968,1.7-17.1-.259-18.567,8.483s13.95,8.16,21.21,14.978,6.382,5.854,11.936,11.089S730.562,299.7,726.518,288.979Z" transform="translate(-681.157 -259.986)" fill="#fff"/></g><path d="M696.863,259.991c1.619,4.689,3.052,11.153-1.356,16.275-3.58,4.166-9.979,3.757-12.286-1.674-1.246-2.934-1.392-12.163,3.216-17.575S695.407,255.77,696.863,259.991Z" transform="translate(-676.487 -251.476)" fill="#fff"/><path d="M705,261.4c-.2,4.958-1.224,11.5-7.2,14.665-4.853,2.574-10.662-.141-10.83-6.036-.091-3.189,3.138-11.835,9.4-15.2S705.179,256.94,705,261.4Z" transform="translate(-660.519 -253.792)" fill="#fff"/><path d="M707.083,262.14c-4.963.118-11.517,1.028-14.787,6.946-2.652,4.808-.041,10.662,5.854,10.93,3.184.146,11.885-2.934,15.351-9.134S711.545,262.036,707.083,262.14Z" transform="translate(-645.311 -224.178)" fill="#fff"/><path d="M701.651,257.708c-4.521,2.047-10.2,5.444-10.9,12.167-.564,5.463,4.13,9.829,9.657,7.778,2.988-1.114,9.8-7.35,10.566-14.41S705.718,255.865,701.651,257.708Z" transform="translate(-647.271 -243.289)" fill="#fff"/></g></g><g transform="translate(2187.953 174.811)"><g transform="translate(0 15.549)"><g transform="translate(5.443 28.74)"><path d="M711.658,285.126c-7.123-7.282-8.3-9.015-10.261-13.2s-6.045-7.919-9.793-8.333c-6.909-.764-10.189,6.059-14.369,9.516-4.781,3.953-15.77,6.632-13.6,15.229s16.056,1.87,25.44,5.194,8.2,2.8,15.388,5.358S719.664,293.313,711.658,285.126Z" transform="translate(-663.354 -263.529)" fill="#fff"/></g><path d="M673.48,263.067c3.366,3.648,7.273,8.992,5.3,15.456-1.61,5.249-7.633,7.446-11.926,3.4-2.32-2.188-6.159-10.58-4.117-17.385S670.451,259.787,673.48,263.067Z" transform="translate(-662.158 -247.253)" fill="#fff"/><path d="M680.349,262.517c1.81,4.621,3.5,11.021-.7,16.32-3.411,4.3-9.821,4.153-12.34-1.178-1.364-2.884-1.883-12.1,2.5-17.694S678.725,258.359,680.349,262.517Z" transform="translate(-647.316 -257.211)" fill="#fff"/><path d="M684,263.744c-4.5,2.1-10.139,5.567-10.753,12.3-.5,5.467,4.244,9.784,9.748,7.66,2.975-1.146,9.706-7.46,10.389-14.533S688.044,261.856,684,263.744Z" transform="translate(-622.935 -237.587)" fill="#fff"/><path d="M676.442,261.312c-3.321,3.694-7.155,9.088-5.094,15.524,1.678,5.231,7.732,7.346,11.967,3.243,2.292-2.22,6.022-10.666,3.889-17.439S679.426,258,676.442,261.312Z" transform="translate(-631.606 -253.75)" fill="#fff"/></g><g transform="translate(86.421)"><g transform="translate(0 28.173)"><path d="M726.518,288.979c-3.6-9.529-3.976-11.59-4.089-16.215s-2.361-9.68-5.626-11.563c-6.018-3.475-11.763,1.456-16.98,2.943-5.968,1.7-17.1-.259-18.567,8.483s13.95,8.16,21.21,14.978,6.382,5.854,11.936,11.089S730.562,299.7,726.518,288.979Z" transform="translate(-681.157 -259.986)" fill="#fff"/></g><path d="M696.863,259.991c1.619,4.689,3.052,11.153-1.356,16.275-3.58,4.166-9.979,3.757-12.286-1.674-1.246-2.934-1.392-12.163,3.216-17.575S695.407,255.77,696.863,259.991Z" transform="translate(-676.487 -251.476)" fill="#fff"/><path d="M705,261.4c-.2,4.958-1.224,11.5-7.2,14.665-4.853,2.574-10.662-.141-10.83-6.036-.091-3.189,3.138-11.835,9.4-15.2S705.179,256.94,705,261.4Z" transform="translate(-660.519 -253.792)" fill="#fff"/><path d="M707.083,262.14c-4.963.118-11.517,1.028-14.787,6.946-2.652,4.808-.041,10.662,5.854,10.93,3.184.146,11.885-2.934,15.351-9.134S711.545,262.036,707.083,262.14Z" transform="translate(-645.311 -224.178)" fill="#fff"/><path d="M701.651,257.708c-4.521,2.047-10.2,5.444-10.9,12.167-.564,5.463,4.13,9.829,9.657,7.778,2.988-1.114,9.8-7.35,10.566-14.41S705.718,255.865,701.651,257.708Z" transform="translate(-647.271 -243.289)" fill="#fff"/></g></g><g transform="translate(462.905 122.233)"><g transform="translate(0 43.613)"><g transform="translate(15.454 28.699)"><path d="M481.952,112.037c-9.124-4.526-10.807-5.777-14.041-9.088s-8.319-5.481-11.99-4.635c-6.777,1.556-7.623,9.079-10.43,13.723-3.211,5.308-12.7,11.458-7.819,18.858s15.774-3.53,25.731-3.484,8.661-.059,16.293-.014S492.214,117.127,481.952,112.037Z" transform="translate(-436.303 -98.131)" fill="#fff"/></g><path d="M442.574,98.065c4.38,2.329,9.834,6.086,10.1,12.841.214,5.486-4.749,9.547-10.134,7.141-2.911-1.3-9.306-7.96-9.62-15.056S438.635,95.964,442.574,98.065Z" transform="translate(-432.905 -74.063)" fill="#fff"/><path d="M447.774,95.893c3.229,3.771,6.936,9.252,4.721,15.638-1.8,5.19-7.9,7.159-12.04,2.957-2.238-2.27-5.763-10.8-3.471-17.526S444.868,92.5,447.774,95.893Z" transform="translate(-421.072 -88.976)" fill="#fff"/><path d="M451.146,97.78c-3.552,3.466-7.733,8.6-6.1,15.156,1.328,5.326,7.232,7.833,11.726,4.016,2.434-2.06,6.709-10.243,5.022-17.143S454.343,94.664,451.146,97.78Z" transform="translate(-391.107 -80.414)" fill="#fff"/><path d="M443.046,96.983c-1.915,4.576-3.757,10.935.309,16.329,3.311,4.389,9.72,4.389,12.368-.882,1.433-2.847,2.17-12.049-2.079-17.744S444.77,92.867,443.046,96.983Z" transform="translate(-404.458 -91.821)" fill="#fff"/></g><g transform="translate(80.494 0)"><g transform="translate(3.143 29.067)"><path d="M499.558,111.816c-6.541-7.81-7.573-9.634-9.206-13.96s-5.422-8.36-9.125-9.065c-6.827-1.3-10.625,5.254-15.06,8.378-5.076,3.571-16.234,5.395-14.737,14.132s15.865,3.1,24.967,7.146,7.955,3.421,14.924,6.532S506.909,120.6,499.558,111.816Z" transform="translate(-451.293 -88.623)" fill="#fff"/></g><path d="M462.378,88.174c3.079,3.9,6.559,9.525,4.089,15.815-2.006,5.113-8.183,6.836-12.149,2.47-2.147-2.361-5.326-11.026-2.761-17.653S459.613,84.671,462.378,88.174Z" transform="translate(-450.602 -73.613)" fill="#fff"/><path d="M469.632,87.992c1.446,4.749,2.638,11.262-1.956,16.22-3.734,4.03-10.111,3.38-12.213-2.129-1.137-2.979-.942-12.208,3.862-17.444S468.336,83.721,469.632,87.992Z" transform="translate(-435.395 -82.233)" fill="#fff"/><path d="M473.121,89.091c-4.649,1.747-10.539,4.762-11.672,11.426-.923,5.417,3.475,10.084,9.124,8.392,3.057-.914,10.257-6.691,11.485-13.687S477.3,87.517,473.121,89.091Z" transform="translate(-412.547 -60.37)" fill="#fff"/><path d="M465.835,86.282c-3.6,3.425-7.837,8.506-6.277,15.083,1.264,5.345,7.137,7.919,11.681,4.157,2.452-2.033,6.823-10.166,5.222-17.089S469.064,83.2,465.835,86.282Z" transform="translate(-420.003 -77.357)" fill="#fff"/></g></g><g transform="translate(1463.586 122.233)"><g transform="translate(0 43.613)"><g transform="translate(15.454 28.699)"><path d="M481.952,112.037c-9.124-4.526-10.807-5.777-14.041-9.088s-8.319-5.481-11.99-4.635c-6.777,1.556-7.623,9.079-10.43,13.723-3.211,5.308-12.7,11.458-7.819,18.858s15.774-3.53,25.731-3.484,8.661-.059,16.293-.014S492.214,117.127,481.952,112.037Z" transform="translate(-436.303 -98.131)" fill="#fff"/></g><path d="M442.574,98.065c4.38,2.329,9.834,6.086,10.1,12.841.214,5.486-4.749,9.547-10.134,7.141-2.911-1.3-9.306-7.96-9.62-15.056S438.635,95.964,442.574,98.065Z" transform="translate(-432.905 -74.063)" fill="#fff"/><path d="M447.774,95.893c3.229,3.771,6.936,9.252,4.721,15.638-1.8,5.19-7.9,7.159-12.04,2.957-2.238-2.27-5.763-10.8-3.471-17.526S444.868,92.5,447.774,95.893Z" transform="translate(-421.072 -88.976)" fill="#fff"/><path d="M451.146,97.78c-3.552,3.466-7.733,8.6-6.1,15.156,1.328,5.326,7.232,7.833,11.726,4.016,2.434-2.06,6.709-10.243,5.022-17.143S454.343,94.664,451.146,97.78Z" transform="translate(-391.107 -80.414)" fill="#fff"/><path d="M443.046,96.983c-1.915,4.576-3.757,10.935.309,16.329,3.311,4.389,9.72,4.389,12.368-.882,1.433-2.847,2.17-12.049-2.079-17.744S444.77,92.867,443.046,96.983Z" transform="translate(-404.458 -91.821)" fill="#fff"/></g><g transform="translate(80.494 0)"><g transform="translate(3.143 29.067)"><path d="M499.558,111.816c-6.541-7.81-7.573-9.634-9.206-13.96s-5.422-8.36-9.125-9.065c-6.827-1.3-10.625,5.254-15.06,8.378-5.076,3.571-16.234,5.395-14.737,14.132s15.865,3.1,24.967,7.146,7.955,3.421,14.924,6.532S506.909,120.6,499.558,111.816Z" transform="translate(-451.293 -88.623)" fill="#fff"/></g><path d="M462.378,88.174c3.079,3.9,6.559,9.525,4.089,15.815-2.006,5.113-8.183,6.836-12.149,2.47-2.147-2.361-5.326-11.026-2.761-17.653S459.613,84.671,462.378,88.174Z" transform="translate(-450.602 -73.613)" fill="#fff"/><path d="M469.632,87.992c1.446,4.749,2.638,11.262-1.956,16.22-3.734,4.03-10.111,3.38-12.213-2.129-1.137-2.979-.942-12.208,3.862-17.444S468.336,83.721,469.632,87.992Z" transform="translate(-435.395 -82.233)" fill="#fff"/><path d="M473.121,89.091c-4.649,1.747-10.539,4.762-11.672,11.426-.923,5.417,3.475,10.084,9.124,8.392,3.057-.914,10.257-6.691,11.485-13.687S477.3,87.517,473.121,89.091Z" transform="translate(-412.547 -60.37)" fill="#fff"/><path d="M465.835,86.282c-3.6,3.425-7.837,8.506-6.277,15.083,1.264,5.345,7.137,7.919,11.681,4.157,2.452-2.033,6.823-10.166,5.222-17.089S469.064,83.2,465.835,86.282Z" transform="translate(-420.003 -77.357)" fill="#fff"/></g></g></g></svg>