<?xml version="1.0" encoding="UTF-8"?>
<svg width="21px" height="19px" viewBox="0 0 21 19" version="1.1" xmlns="http://www.w3.org/2000/svg" xmlns:xlink="http://www.w3.org/1999/xlink">
    <!-- Generator: Sketch 57.1 (83088) - https://sketch.com -->
    <title>icon-in</title>
    <desc>Created with Sketch.</desc>
    <defs>
        <rect id="path-1" x="0.619" y="0.435" width="23" height="22"></rect>
    </defs>
    <g id="Page-1" stroke="none" stroke-width="1" fill="none" fill-rule="evenodd">
        <g id="icon-in" transform="translate(-3.000000, -4.000000)">
            <mask id="mask-2" fill="white">
                <use xlink:href="#path-1"></use>
            </mask>
            <g id="Rectangle"></g>
            <g id="Group" opacity="0.89" mask="url(#mask-2)">
                <g transform="translate(3.381000, 4.564000)">
                    <g transform="translate(0.194000, 0.115000)">
                        <g transform="translate(0.000000, 6.406000)" fill="#BACFD8" fill-rule="nonzero" id="Rectangle">
                            <rect x="0" y="0" width="4.584" height="14.093"></rect>
                        </g>
                        <g transform="translate(6.406000, 6.406000)" fill="#BACFD8" fill-rule="nonzero" id="Path">
                            <path d="M10.665,0.165 C10.616,0.15 10.57,0.133 10.519,0.119 C10.468,0.105 10.396,0.093 10.333,0.083 C10.0621579,0.0277139799 9.78642715,-2.35596316e-07 9.51,-2.35596316e-07 C7.54085043,0.0879743958 5.72339537,1.08273749 4.588,2.694 L4.588,-2.35596316e-07 L0,-2.35596316e-07 L0,14.092 L4.588,14.092 L4.588,6.405 C4.588,6.405 8.052,1.58 9.514,5.124 L9.514,14.092 L14.097,14.092 L14.097,4.587 C14.0948029,2.50298437 12.6832815,0.684293334 10.665,0.165 L10.665,0.165 Z"></path>
                        </g>
                        <circle id="Oval" fill="#BACFD8" fill-rule="nonzero" cx="2.242" cy="2.242" r="2.242"></circle>
                    </g>
                </g>
            </g>
        </g>
    </g>
</svg>