<?xml version="1.0" encoding="UTF-8"?>
<svg width="24px" height="16px" viewBox="0 0 24 16" version="1.1" xmlns="http://www.w3.org/2000/svg" xmlns:xlink="http://www.w3.org/1999/xlink">
    <!-- Generator: Sketch 57.1 (83088) - https://sketch.com -->
    <title>icon-arrow-right-orange</title>
    <desc>Created with Sketch.</desc>
    <g id="Page-1" stroke="none" stroke-width="1" fill="none" fill-rule="evenodd">
        <g id="icon-arrow-right-orange" fill="#FF5B4C" fill-rule="nonzero" stroke="#FF5B4C">
            <path d="M22.615,7.589 L15.662,0.636 C15.4811267,0.455126744 15.1878733,0.455126744 15.007,0.636 C14.8261267,0.816873256 14.8261267,1.11012674 15.007,1.291 L21.169,7.453 L0.964,7.453 C0.793271225,7.4450677 0.632004596,7.53163446 0.544267766,7.67830922 C0.456530937,7.82498398 0.456530937,8.00801602 0.544267766,8.15469078 C0.632004596,8.30136554 0.793271225,8.3879323 0.964,8.38 L21.164,8.38 L15.002,14.542 C14.8758347,14.6572315 14.8232101,14.8324791 14.8650233,14.9981524 C14.9068364,15.1638256 15.0363203,15.2931121 15.2020571,15.3346725 C15.367794,15.3762328 15.5429611,15.3233409 15.658,15.197 L22.611,8.244 C22.6984288,8.15769357 22.7479725,8.04017848 22.7487314,7.91732884 C22.749473,7.7944792 22.7013682,7.67636779 22.615,7.589 L22.615,7.589 Z" id="Path"></path>
        </g>
    </g>
</svg>