<svg xmlns="http://www.w3.org/2000/svg" width="95" height="95" viewBox="0 0 95 95"><g transform="translate(-519.001 -1302.001)"><g transform="translate(519.001 1302.001)" fill="#fff" stroke="#ffbf71" stroke-width="4"><rect width="95" height="95" rx="12" stroke="none"/><rect x="2" y="2" width="91" height="91" rx="10" fill="none"/></g><rect width="71" height="71" rx="12" transform="translate(531.001 1314.001)" fill="#ffbf71"/><g transform="translate(543.013 1327.187)"><path d="M20,5h1.6V9.813H20Z" transform="translate(-5.56 -5)" fill="#fff"/><path d="M0,0H1.6V4.813H0Z" transform="translate(7.299 3.621) rotate(-45)" fill="#fff"/><path d="M0,0H4.813V1.6H0Z" transform="translate(18.642 5.892) rotate(-45)" fill="#fff"/><path d="M46.121,35.659h-.259l-3.8-9.511a3.992,3.992,0,0,0-3.725-2.522h-5.85v-.8a4.016,4.016,0,0,0-4.011-4.011h-7.22v-.8a4.011,4.011,0,0,0-8.022,0v.8H6.011A4.016,4.016,0,0,0,2,22.824V43.681a4.016,4.016,0,0,0,4.011,4.011H9.284a5.608,5.608,0,0,0,11.1,0H34.954a5.608,5.608,0,0,0,11.1,0h1.669a2.407,2.407,0,0,0,2.407-2.407V39.67a4.016,4.016,0,0,0-4.011-4.011ZM38.333,25.231a2.394,2.394,0,0,1,2.234,1.513l3.567,8.916H32.484V25.231Zm-23.5-7.22a2.407,2.407,0,0,1,4.813,0v.8H14.835Zm0,32.89a4.011,4.011,0,1,1,4.011-4.011A4.011,4.011,0,0,1,14.835,50.9Zm16.044-4.813H20.386a5.608,5.608,0,0,0-11.1,0H6.011A2.407,2.407,0,0,1,3.6,43.681V22.824a2.407,2.407,0,0,1,2.407-2.407H28.473a2.407,2.407,0,0,1,2.407,2.407ZM40.506,50.9a4.011,4.011,0,1,1,4.011-4.011A4.011,4.011,0,0,1,40.506,50.9Zm8.022-5.615a.8.8,0,0,1-.8.8H46.057a5.608,5.608,0,0,0-11.1,0H32.484V37.264H46.121a2.407,2.407,0,0,1,2.407,2.407Z" transform="translate(-2 -6.78)" fill="#fff"/><path d="M17.407,52a2.407,2.407,0,1,0,2.407,2.407A2.407,2.407,0,0,0,17.407,52Zm0,3.209a.8.8,0,1,1,.8-.8A.8.8,0,0,1,17.407,55.209Z" transform="translate(-4.571 -14.297)" fill="#fff"/><path d="M49.407,52a2.407,2.407,0,1,0,2.407,2.407A2.407,2.407,0,0,0,49.407,52Zm0,3.209a.8.8,0,1,1,.8-.8A.8.8,0,0,1,49.407,55.209Z" transform="translate(-10.901 -14.297)" fill="#fff"/><path d="M24.835,30.813H21.626V27.6a1.6,1.6,0,0,0-1.6-1.6h-1.6a1.6,1.6,0,0,0-1.6,1.6v3.209H13.6a1.6,1.6,0,0,0-1.6,1.6v1.6a1.6,1.6,0,0,0,1.6,1.6h3.209v3.209a1.6,1.6,0,0,0,1.6,1.6h1.6a1.6,1.6,0,0,0,1.6-1.6V35.626h3.209a1.6,1.6,0,0,0,1.6-1.6v-1.6A1.6,1.6,0,0,0,24.835,30.813Zm0,3.209H21.626a1.6,1.6,0,0,0-1.6,1.6v3.209h-1.6V35.626a1.6,1.6,0,0,0-1.6-1.6H13.6v-1.6h3.209a1.6,1.6,0,0,0,1.6-1.6V27.6h1.6v3.209a1.6,1.6,0,0,0,1.6,1.6h3.209Z" transform="translate(-3.978 -9.154)" fill="#fff"/><path d="M0,0H4.011V1.6H0Z" transform="matrix(0.8, -0.6, 0.6, 0.8, 31.607, 22.613)" fill="#fff"/><path d="M0,0H8.022V1.6H0Z" transform="matrix(0.8, -0.6, 0.6, 0.8, 31.607, 25.822)" fill="#fff"/></g></g></svg>