<svg xmlns="http://www.w3.org/2000/svg" width="95" height="95" viewBox="0 0 95 95"><g transform="translate(-519 -1302)"><g transform="translate(519 1302)" fill="#fff" stroke="#ffbf71" stroke-width="4"><rect width="95" height="95" rx="12" stroke="none"/><rect x="2" y="2" width="91" height="91" rx="10" fill="none"/></g><rect width="75" height="75" rx="12" transform="translate(529 1312)" fill="#ffbf71"/><g transform="translate(546.091 1325.024)"><path d="M39.4,33.571H28.6V27.713a10.807,10.807,0,0,0,9.97-10.758V15.293a2.492,2.492,0,0,0-1.662-2.34v-6.8a2.492,2.492,0,0,0-2.492-2.492A1.662,1.662,0,0,0,32.755,2a2.492,2.492,0,0,0,0,4.985,1.662,1.662,0,0,0,1.662-1.662.831.831,0,0,1,.831.831v6.8a2.492,2.492,0,0,0-1.662,2.34v1.662A5.838,5.838,0,0,1,31.739,21.2a5.763,5.763,0,0,1-4.368,1.556,5.955,5.955,0,0,1-5.416-6.038V15.293a2.492,2.492,0,0,0-1.662-2.34v-6.8a.831.831,0,0,1,.831-.831,1.662,1.662,0,0,0,1.662,1.662,2.492,2.492,0,1,0,0-4.985,1.662,1.662,0,0,0-1.662,1.662,2.492,2.492,0,0,0-2.492,2.492v6.8a2.492,2.492,0,0,0-1.662,2.34v1.662a10.807,10.807,0,0,0,9.97,10.758v5.858H16.894a4.985,4.985,0,1,0,0,1.662H26.939V41.88a9.981,9.981,0,0,0,9.97,9.97H39.4a9.139,9.139,0,1,0,0-18.278ZM32.755,5.323a.831.831,0,0,1,0-1.662Zm-9.97-1.662a.831.831,0,1,1,0,1.662Zm-10.8,34.064A3.323,3.323,0,1,1,15.307,34.4,3.323,3.323,0,0,1,11.984,37.726Zm6.647-20.771V15.293a.831.831,0,1,1,1.662,0V16.72a7.62,7.62,0,0,0,6.967,7.7,7.422,7.422,0,0,0,5.615-2,7.5,7.5,0,0,0,2.373-5.46V15.293a.831.831,0,1,1,1.662,0v1.662a9.139,9.139,0,1,1-18.278,0ZM39.4,50.188H36.909A8.317,8.317,0,0,1,28.6,41.88V35.233H39.4a7.477,7.477,0,1,1,0,14.955Z" transform="translate(-6.994 -2)" fill="#fff"/><circle cx="2.039" cy="2.039" r="2.039" transform="translate(2.803 30.705)" fill="#fff"/></g></g></svg>