<?xml version="1.0" encoding="UTF-8"?>
<svg width="26px" height="24px" viewBox="0 0 26 24" version="1.1" xmlns="http://www.w3.org/2000/svg" xmlns:xlink="http://www.w3.org/1999/xlink">
    <!-- Generator: Sketch 57.1 (83088) - https://sketch.com -->
    <title>icon-tw</title>
    <desc>Created with Sketch.</desc>
    <defs>
        <rect id="path-1" x="0.582" y="0" width="28" height="27"></rect>
    </defs>
    <g id="Page-1" stroke="none" stroke-width="1" fill="none" fill-rule="evenodd">
        <g id="icon-tw" transform="translate(-3.000000, -1.000000)">
            <mask id="mask-2" fill="white">
                <use xlink:href="#path-1"></use>
            </mask>
            <g id="Rectangle"></g>
            <g id="Group" opacity="0.89" mask="url(#mask-2)">
                <g transform="translate(2.418000, 1.000000)">
                    <g transform="translate(0.586000, 0.439000)">
                        <g fill="#FF908B" fill-rule="nonzero" id="Path">
                            <path d="M27.919,2.685 C26.8679227,3.14190261 25.7565094,3.44501533 24.619,3.585 C25.8172942,2.87406564 26.7132069,1.74830402 27.137,0.421 C26.0161464,1.08806 24.7894624,1.55850868 23.51,1.812 C21.9041069,0.0974157615 19.4135168,-0.461654614 17.2288663,0.4020547 C15.0442157,1.26576401 13.6092658,3.37681052 13.61,5.726 C13.605638,6.16459369 13.6502475,6.60230381 13.743,7.031 C9.13679628,6.80587476 4.84486674,4.6282661 1.943,1.044 C0.413978426,3.65715007 1.1839147,7.00902404 3.7,8.693 C2.79436311,8.67024737 1.90745825,8.43017258 1.114,7.993 L1.114,8.056 C1.11965954,10.7784969 3.03386341,13.1238766 5.7,13.675 C5.21053531,13.8038354 4.70612033,13.8670554 4.2,13.863 C3.83612224,13.8687374 3.47268703,13.8352102 3.116,13.763 C3.87404187,16.0907439 6.01671745,17.688135 8.464,17.75 C6.43706519,19.3350603 3.93710479,20.1945537 1.364,20.191 C0.908116048,20.193697 0.4525243,20.1673101 -8.92619312e-16,20.112 C2.617317,21.7987347 5.6672689,22.6910392 8.781,22.6810838 C19.314,22.6810838 25.072,13.956 25.072,6.394 C25.072,6.141 25.063,5.894 25.051,5.654 C26.1794451,4.84680172 27.1513251,3.84069578 27.919,2.685 Z"></path>
                        </g>
                    </g>
                </g>
            </g>
        </g>
    </g>
</svg>