<svg xmlns="http://www.w3.org/2000/svg" width="27" height="27" viewBox="0 0 27 27"><g transform="translate(-483.202 -1060.415)"><circle cx="13.5" cy="13.5" r="13.5" transform="translate(483.202 1060.415)" fill="#fff"/><path d="M10.919,6.87H7.139V3.09a.84.84,0,0,0-.84-.84h-.84a.84.84,0,0,0-.84.84V6.87H.84a.84.84,0,0,0-.84.84v.84a.84.84,0,0,0,.84.84H4.62v3.78a.84.84,0,0,0,.84.84H6.3a.84.84,0,0,0,.84-.84V9.389h3.78a.84.84,0,0,0,.84-.84v-.84A.84.84,0,0,0,10.919,6.87Z" transform="translate(490.674 1065.531)" fill="#ff5b4c"/></g></svg>