<svg xmlns="http://www.w3.org/2000/svg" xmlns:xlink="http://www.w3.org/1999/xlink" width="28" height="27" viewBox="0 0 28 27"><defs><clipPath id="a"><rect width="28" height="27" transform="translate(-2.418)" fill="#fff"/></clipPath></defs><g transform="translate(2.418)" opacity="0.89" clip-path="url(#a)"><g transform="translate(-2.414 1.439)"><g transform="translate(0 0)"><path d="M27.919,5.873a11.934,11.934,0,0,1-3.3.9,5.692,5.692,0,0,0,2.518-3.164A11.439,11.439,0,0,1,23.51,5a5.723,5.723,0,0,0-9.9,3.914,5.894,5.894,0,0,0,.133,1.305,16.2,16.2,0,0,1-11.8-5.987A5.725,5.725,0,0,0,3.7,11.881a5.653,5.653,0,0,1-2.586-.7v.063A5.75,5.75,0,0,0,5.7,16.863a5.713,5.713,0,0,1-1.5.188,5.061,5.061,0,0,1-1.084-.1,5.778,5.778,0,0,0,5.348,3.987,11.5,11.5,0,0,1-7.1,2.441A10.72,10.72,0,0,1,0,23.3a16.114,16.114,0,0,0,8.781,2.569c10.533,0,16.291-8.725,16.291-16.287,0-.253-.009-.5-.021-.74A11.418,11.418,0,0,0,27.919,5.873Z" transform="translate(0 -3.188)" fill="#fff"/></g></g></g></svg>