<svg xmlns="http://www.w3.org/2000/svg" xmlns:xlink="http://www.w3.org/1999/xlink" width="26" height="26" viewBox="0 0 26 26"><defs><clipPath id="a"><rect width="26" height="26" transform="translate(0 -0.085)" fill="#fff"/></clipPath></defs><g transform="translate(0 0.085)" clip-path="url(#a)"><g transform="translate(3.477 0)"><g transform="translate(0)"><path d="M12.583,0A9.147,9.147,0,0,0,3.446,9.137c0,6.252,8.177,15.431,8.525,15.819a.823.823,0,0,0,1.224,0c.348-.388,8.525-9.566,8.525-15.819A9.147,9.147,0,0,0,12.583,0Zm0,13.734a4.6,4.6,0,1,1,4.6-4.6A4.6,4.6,0,0,1,12.583,13.734Z" transform="translate(-3.446)" fill="#fff"/></g></g></g></svg>