<svg xmlns="http://www.w3.org/2000/svg" width="95" height="95" viewBox="0 0 95 95"><g transform="translate(-519 -1302)"><g transform="translate(519 1302)" fill="#fff" stroke="#ffbf71" stroke-width="4"><rect width="95" height="95" rx="12" stroke="none"/><rect x="2" y="2" width="91" height="91" rx="10" fill="none"/></g><rect width="75" height="75" rx="12" transform="translate(529 1312)" fill="#ffbf71"/><g transform="translate(542.872 1333.33)"><path d="M45.99,17.4H31.574A3.979,3.979,0,0,0,28.394,11H17.2A15.213,15.213,0,0,0,2,26.2v3.2a15.213,15.213,0,0,0,15.2,15.2h15.2a3.981,3.981,0,0,0,2.968-6.654,4.049,4.049,0,0,0,1.464-.919,3.97,3.97,0,0,0,.135-5.48,4.049,4.049,0,0,0,1.464-.919A4,4,0,0,0,39.592,27.8a3.958,3.958,0,0,0-.821-2.4H45.99a4,4,0,1,0,0-8Zm1.7,5.693a2.414,2.414,0,0,1-1.7.705h-19.2a.8.8,0,1,0,0,1.6h8.692A2.479,2.479,0,0,1,37.9,27.142,2.4,2.4,0,0,1,35.593,30.2h-8.8a.8.8,0,1,0,0,1.6h7.092A2.479,2.479,0,0,1,36.3,33.541a2.4,2.4,0,0,1-2.311,3.054h-7.2a.8.8,0,1,0,0,1.6h5.492A2.479,2.479,0,0,1,34.7,39.939a2.4,2.4,0,0,1-2.311,3.054H17.2A13.6,13.6,0,0,1,3.6,29.4V26.2A13.6,13.6,0,0,1,17.2,12.6H28.288A2.479,2.479,0,0,1,30.7,14.345,2.4,2.4,0,0,1,28.394,17.4H18A.8.8,0,0,0,18,19H45.884A2.479,2.479,0,0,1,48.3,20.743,2.412,2.412,0,0,1,47.692,23.092Z" transform="translate(-2 -11)" fill="#fff"/><path d="M55,22h1.6v3.2H55Z" transform="translate(-12.609 -13.202)" fill="#fff"/><path d="M54.8,49.677a4.8,4.8,0,0,1-4.8-4.8c0-2.419,3.748-7.166,4.175-7.7l.624-.78.624.779c.427.533,4.175,5.279,4.175,7.7A4.8,4.8,0,0,1,54.8,49.677Zm0-10.69c-1.433,1.914-3.2,4.674-3.2,5.891a3.2,3.2,0,1,0,6.4,0C58,43.662,56.232,40.9,54.8,38.987Z" transform="translate(-11.608 -16.084)" fill="#fff"/></g></g></svg>