<svg xmlns="http://www.w3.org/2000/svg" width="222" height="224" viewBox="0 0 222 224">
  <g fill="none" fill-rule="evenodd" transform="translate(.35 .844)">
    <path fill="#E36A5A" d="M218.19,125.996259 L166.86,96.1562588 C165.93,95.6262588 164.43,95.6162588 163.499,96.1562588 L111.55,126.146259 C110.62,126.686259 109.87,127.986259 109.879901,129.056259 L110.04,188.736259 C110.05,189.806259 110.8,191.106259 111.73,191.646259 L163.06,221.476259 C163.98,222.016259 165.49,222.016259 166.42,221.476259 L218.36,191.486259 C219.289,190.956259 220.039,189.646259 220.039,188.576259 L219.87,128.906259 C219.87,127.836259 219.11,126.526259 218.19,125.996259"/>
    <path fill="#80B342" d="M108.68,125.846259 L57.17,95.9162588 C56.24,95.3762588 54.73,95.3762588 53.8,95.9162588 L1.68,126.006259 C0.75,126.546259 -2.13162821e-14,127.846259 -2.13162821e-14,128.926259 L0.17,188.806259 C0.17,189.876259 0.93,191.186259 1.86,191.726259 L53.36,221.656259 C54.289,222.196259 55.8,222.206259 56.73,221.666259 L108.86,191.566259 C109.789,191.036259 110.539,189.726259 110.539,188.646259 L110.37,128.776259 C110.36,127.696259 109.61,126.386259 108.68,125.846259"/>
    <path fill="#FACD63" d="M164.07,30.3362588 L112.56,0.406258762 C111.629,-0.133741238 110.129,-0.133741238 109.19,0.396258762 L57.07,30.4962588 C56.14,31.0362588 55.39,32.3362588 55.39,33.4162588 L55.56,93.2862588 C55.56,94.3662588 56.32,95.6762588 57.25,96.2162588 L108.749,126.146259 C109.68,126.686259 111.19,126.686259 112.12,126.156259 L164.249,96.0562588 C165.18,95.5162588 165.93,94.2162588 165.93,93.1362588 L165.76,33.2662588 C165.749,32.1862588 164.999,30.8762588 164.07,30.3362588"/>
  </g>
</svg>
