<svg xmlns="http://www.w3.org/2000/svg" width="95" height="95" viewBox="0 0 95 95"><g transform="translate(-519 -1302)"><g transform="translate(519 1302)" fill="#fff" stroke="#ffbf71" stroke-width="4"><rect width="95" height="95" rx="12" stroke="none"/><rect x="2" y="2" width="91" height="91" rx="10" fill="none"/></g><rect width="75" height="75" rx="12" transform="translate(529 1312)" fill="#ffbf71"/><g transform="translate(544.567 1327.607)"><path d="M36.565,26.257H35.376l7.966-7.965A9.558,9.558,0,1,0,29.825,4.775L12.142,22.458a9.562,9.562,0,0,0-2.382,3.976,9.558,9.558,0,0,0,1.807,18.94h25a9.558,9.558,0,1,0,0-19.117Zm-5.7-20.44A8.087,8.087,0,1,1,42.3,17.254l-8.317,8.324L22.543,14.136ZM13.184,23.5l8.32-8.322L32.584,26.257H11.566c-.065,0-.129.009-.194.01A8.088,8.088,0,0,1,13.184,23.5ZM3.478,35.816a8.1,8.1,0,0,1,8.088-8.088H23.33V43.9H11.566a8.1,8.1,0,0,1-8.088-8.088ZM36.565,43.9H24.8V27.728H36.565a8.088,8.088,0,1,1,0,16.176Z" transform="translate(-2.029 -1.975)" fill="#fff"/><path d="M7.471,48H6a6.625,6.625,0,0,0,6.617,6.617V53.147A5.153,5.153,0,0,1,7.471,48Z" transform="translate(-3.08 -14.159)" fill="#fff"/><path d="M49,39v1.471a5.153,5.153,0,0,1,5.147,5.147h1.471A6.625,6.625,0,0,0,49,39Z" transform="translate(-14.464 -11.777)" fill="#fff"/><path d="M47.339,7.452a5.114,5.114,0,0,1,3.637,1.5L52.014,7.91a6.628,6.628,0,0,0-9.353,0l1.04,1.04a5.115,5.115,0,0,1,3.639-1.5Z" transform="translate(-12.785 -3.036)" fill="#fff"/></g></g></svg>