<svg xmlns="http://www.w3.org/2000/svg" xmlns:xlink="http://www.w3.org/1999/xlink" width="23" height="22" viewBox="0 0 23 22"><defs><clipPath id="a"><rect width="23" height="22" transform="translate(-1.381 -2.565)" fill="#fff"/></clipPath></defs><g transform="translate(1.381 2.564)" opacity="0.89" clip-path="url(#a)"><g transform="translate(0.194 -0.885)"><g transform="translate(0 6.406)"><rect width="4.584" height="14.093" fill="#fff"/></g><g transform="translate(6.406 6.406)"><path d="M20.977,10.478c-.049-.015-.095-.032-.146-.046s-.123-.026-.186-.036a4.108,4.108,0,0,0-.823-.083A6.369,6.369,0,0,0,14.9,13.007V10.313H10.312V24.405H14.9V16.718s3.464-4.825,4.926-1.281v8.968h4.583V14.9A4.571,4.571,0,0,0,20.977,10.478Z" transform="translate(-10.312 -10.313)" fill="#fff"/></g><ellipse cx="2.242" cy="2.242" rx="2.242" ry="2.242" fill="#fff"/></g></g></svg>