<svg xmlns="http://www.w3.org/2000/svg" xmlns:xlink="http://www.w3.org/1999/xlink" width="26" height="25" viewBox="0 0 26 25"><defs><clipPath id="a"><rect width="26" height="25" transform="translate(0 0.248)" fill="#fff"/></clipPath></defs><g transform="translate(0 -0.248)" clip-path="url(#a)"><g transform="translate(0.166 -0.092)"><g transform="translate(7.115 2.19)"><path d="M11.185,1.717A5.484,5.484,0,0,0,5.706,7.195V9.856a5.478,5.478,0,0,0,10.318,2.565,5.906,5.906,0,0,1-2.152.406H12.28a.821.821,0,0,1,0-1.643h1.592a4.285,4.285,0,0,0,2.783-1.03q.008-.149.008-.3V7.195A5.484,5.484,0,0,0,11.185,1.717Z" transform="translate(-5.706 -1.717)" fill="#fff"/></g><g transform="translate(2.704)"><path d="M19.854,6.8h-.1a7.668,7.668,0,0,0-15.239,0h-.1a2.173,2.173,0,1,0,0,4.347h.869a.821.821,0,0,0,.821-.821V7.668a6.026,6.026,0,0,1,12.052,0v2.387a4.262,4.262,0,0,1-.556.573,5.432,5.432,0,0,1-.631,2.266,5.928,5.928,0,0,0,2.412-1.744h.464a2.173,2.173,0,0,0,0-4.347Z" transform="translate(-2.249)" fill="#fff"/></g><g transform="translate(13.414 14.262)"><path d="M22.375,21.361l-2.462-7.635a.821.821,0,0,0-.385-.467l-3.772-2.081a7.129,7.129,0,0,1-5.113,3.141v8.115h10.95A.822.822,0,0,0,22.375,21.361Z" transform="translate(-10.644 -11.178)" fill="#fff"/></g><g transform="translate(0 14.262)"><path d="M6.79,11.178,3.017,13.258a.822.822,0,0,0-.385.467L.17,21.361a.822.822,0,0,0,.782,1.073H11.9V14.319A7.128,7.128,0,0,1,6.79,11.178Z" transform="translate(-0.13 -11.178)" fill="#fff"/></g></g></g></svg>