<svg xmlns="http://www.w3.org/2000/svg" width="51.771" height="52.315" viewBox="0 0 51.771 52.315"><g transform="translate(0 12.066) rotate(-17)"><path d="M77.587,160.92c-3.084,1.282-7.5,5.9-9.1,11.716s-.218,11.185,2.861,11.9,7.5-4.24,10.891-4.26,8.128,2.5,11.9.476-.778-12.234-4.417-16.074S82.474,158.891,77.587,160.92Z" transform="translate(-58.167 -142.518)" fill="#ff908b"/><path d="M83.029,157.921c-1.9-1.159-4.638.176-6.113,2.961s-1.136,5.967.767,7.126,4.646-.143,6.124-2.928S84.932,159.082,83.029,157.921Z" transform="translate(-43.451 -147.196)" fill="#ff908b"/><path d="M75.574,168.844c2.611-1.206,3.348-5.287,1.506-9.069-1.8-3.793-5.335-5.867-7.9-4.638s-3.2,5.265-1.411,9.024C69.6,167.906,72.974,170.045,75.574,168.844Z" transform="translate(-60.081 -152.088)" fill="#ff908b"/><path d="M71.847,161.42c-2.253-2.136-5.382-2.449-6.757-.792s-.75,4.725,1.539,6.838c2.273,2.116,5.287,2.5,6.731.831S74.122,163.544,71.847,161.42Z" transform="translate(-64.37 -143.474)" fill="#ff908b"/><path d="M82.216,161.889c.193-4.17-1.984-7.789-4.851-8.053s-5.349,2.905-5.548,7.051c-.148,4.134,1.864,7.753,4.694,8.058S81.933,166.09,82.216,161.889Z" transform="translate(-50.984 -153.82)" fill="#ff908b"/></g></svg>