<svg xmlns="http://www.w3.org/2000/svg" xmlns:xlink="http://www.w3.org/1999/xlink" width="55" height="48" viewBox="0 0 55 48"><defs><clipPath id="a"><rect width="55" height="48" transform="translate(0 0.526)" fill="#fff"/></clipPath></defs><g transform="translate(0 -0.526)" clip-path="url(#a)"><g transform="translate(1.133 7.215)"><g transform="translate(0 0)"><path d="M56.426,23.145a11.237,11.237,0,0,1-3.592,8.363,11.275,11.275,0,0,1-8.248,3.476,11.339,11.339,0,0,1-9.351-4.348,14.867,14.867,0,0,1-3.361-9.89q0-10.762,18.253-20.755l1.745,2.719q-6.2,5.131-6.2,8.261,0,.975,2.565,1.963a16.752,16.752,0,0,1,5.323,2.719Q56.426,18.039,56.426,23.145Z" transform="translate(-31.867 0.009)" fill="#ff908b"/><path d="M24.453,23.145a11.788,11.788,0,0,1-3.258,8.363,11.4,11.4,0,0,1-8.363,3.476A11.352,11.352,0,0,1,3.48,30.636,14.572,14.572,0,0,1,0,20.746Q0,9.984,18.257-.009L20.22,2.711q-6.414,5.131-6.414,8.261,0,.975,2.822,1.963a16.676,16.676,0,0,1,5.259,2.707Q24.453,18.039,24.453,23.145Z" transform="translate(27.928 0.009)" fill="#ff908b"/></g></g></g></svg>