<?xml version="1.0" encoding="UTF-8"?>
<svg width="14px" height="27px" viewBox="0 0 14 27" version="1.1" xmlns="http://www.w3.org/2000/svg" xmlns:xlink="http://www.w3.org/1999/xlink">
    <!-- Generator: Sketch 57.1 (83088) - https://sketch.com -->
    <title>icon-fb</title>
    <desc>Created with Sketch.</desc>
    <defs>
        <rect id="path-1" x="0.068" y="0.662" width="28" height="26"></rect>
    </defs>
    <g id="Page-1" stroke="none" stroke-width="1" fill="none" fill-rule="evenodd">
        <g id="icon-fb" transform="translate(-7.000000, 0.000000)">
            <mask id="mask-2" fill="white">
                <use xlink:href="#path-1"></use>
            </mask>
            <g id="Rectangle"></g>
            <g id="Group" opacity="0.89" mask="url(#mask-2)">
                <g transform="translate(7.932000, 0.338000)">
                    <g transform="translate(0.063000, 0.376000)">
                        <g fill="#FFBF71" fill-rule="nonzero" id="Path">
                            <path d="M7.989,8.788 L7.989,5.588 C7.989,4.7043444 8.7053444,3.988 9.589,3.988 L11.189,3.988 L11.189,-1.04491858e-07 L7.989,-1.04491858e-07 C6.71747083,-0.000265316476 5.49794401,0.504730175 4.59883709,1.40383709 C3.69973018,2.30294401 3.19473468,3.52247083 3.195,4.794 L3.195,8.788 L0,8.788 L0,12.783 L3.2,12.783 L3.2,25.566 L7.994,25.566 L7.994,12.783 L11.194,12.783 L12.794,8.788 L7.989,8.788 Z"></path>
                        </g>
                    </g>
                </g>
            </g>
        </g>
    </g>
</svg>