<svg xmlns="http://www.w3.org/2000/svg" xmlns:xlink="http://www.w3.org/1999/xlink" width="26" height="26" viewBox="0 0 26 26"><defs><clipPath id="a"><rect width="26" height="26" transform="translate(0 -0.418)" fill="#fff"/></clipPath></defs><g transform="translate(0 0.418)" clip-path="url(#a)"><g transform="translate(0 2.858)"><g transform="translate(1.282)"><path d="M23,2.383H1.966A2.217,2.217,0,0,0,1,2.608L12.432,14.035l2.561-2.461h0L23.96,2.608A2.217,2.217,0,0,0,23,2.383Z" transform="translate(-1.005 -2.383)" fill="#fff"/></g><g transform="translate(16.857 1.282)"><path d="M21.649,3.388l-8.437,8.437,8.437,8.437a2.217,2.217,0,0,0,.225-.961V4.348A2.217,2.217,0,0,0,21.649,3.388Z" transform="translate(-13.211 -3.388)" fill="#fff"/></g><g transform="translate(0 1.282)"><path d="M.225,3.388A2.217,2.217,0,0,0,0,4.348V19.3a2.217,2.217,0,0,0,.225.961l8.437-8.437Z" transform="translate(0 -3.388)" fill="#fff"/></g><g transform="translate(1.282 10.776)"><path d="M15.522,10.829,12.961,13.29a.747.747,0,0,1-1.057,0L9.442,10.829,1,19.265a2.217,2.217,0,0,0,.961.225H23a2.217,2.217,0,0,0,.961-.225Z" transform="translate(-1.004 -10.829)" fill="#fff"/></g></g></g></svg>