<svg xmlns="http://www.w3.org/2000/svg" viewBox="0 0 32 32"><title>Artboard-10</title><g id="Wrist_Watch" data-name="Wrist Watch"><path d="M20.99,11.41a.9952.9952,0,0,1-.53,1.02,1.0388,1.0388,0,0,1-.46.11,1.0079,1.0079,0,0,1-.67-.26,5.0913,5.0913,0,0,0-6.66,0,.9966.9966,0,0,1-1.66-.87l1-7.54A.9942.9942,0,0,1,13,3h6a.9942.9942,0,0,1,.99.87Z" style="fill:#e5739f"/><path d="M20.99,20.59l-1,7.54A.9942.9942,0,0,1,19,29H13a.9942.9942,0,0,1-.99-.87l-1-7.54a.9966.9966,0,0,1,1.66-.87,5.0913,5.0913,0,0,0,6.66,0,.9966.9966,0,0,1,1.66.87Z" style="fill:#e5739f"/><path d="M20.99,20.59l-1,7.54A.9942.9942,0,0,1,19,29H16V20.96a4.984,4.984,0,0,0,3.33-1.24.9966.9966,0,0,1,1.66.87Z" style="fill:#db568c"/><path d="M19.33,12.28A4.984,4.984,0,0,0,16,11.04V3h3a.9942.9942,0,0,1,.99.87l1,7.54a.9952.9952,0,0,1-.53,1.02,1.0388,1.0388,0,0,1-.46.11A1.0079,1.0079,0,0,1,19.33,12.28Z" style="fill:#db568c"/><path d="M23,16a7.0141,7.0141,0,0,1-7,7A7,7,0,0,1,16,9,7.0206,7.0206,0,0,1,23,16Z" style="fill:#f48fb1"/><path d="M23,16a7.0141,7.0141,0,0,1-7,7V9A7.0206,7.0206,0,0,1,23,16Z" style="fill:#e5739f"/><path d="M18.12,18.12a.9959.9959,0,0,1-1.41,0l-.71-.7-.71-.71A1.0327,1.0327,0,0,1,15,16V14a1,1,0,0,1,2,0v1.59l1.12,1.12A.9959.9959,0,0,1,18.12,18.12Z" style="fill:#e5739f"/><path d="M18.12,18.12a.9959.9959,0,0,1-1.41,0l-.71-.7V13a1.0029,1.0029,0,0,1,1,1v1.59l1.12,1.12A.9959.9959,0,0,1,18.12,18.12Z" style="fill:#db568c"/></g></svg>