<svg xmlns="http://www.w3.org/2000/svg" width="438" height="75" viewBox="0 0 438 75">
  <g fill="none">
    <g fill="#89C340">
      <path d="M290.7 9.5C280.3 9.5 271.9 17.9 271.9 28.3 271.9 38.7 280.3 47.1 290.7 47.1 301.1 47.1 309.5 38.7 309.5 28.3 309.4 17.9 301 9.5 290.7 9.5zM290.4 36.2C285.9 36.2 282.2 32.5 282.2 28 282.2 23.5 285.9 19.8 290.4 19.8 294.9 19.8 298.6 23.5 298.6 28 298.6 32.6 295 36.2 290.4 36.2zM154.2 9.5C143.8 9.5 135.4 17.9 135.4 28.3 135.4 38.7 143.8 47.1 154.2 47.1 164.6 47.1 173 38.6 173 28.3 173 17.9 164.6 9.5 154.2 9.5zM154 36.2C149.5 36.2 145.8 32.5 145.8 28 145.8 23.5 149.5 19.8 154 19.8 158.5 19.8 162.2 23.5 162.2 28 162.2 32.6 158.5 36.2 154 36.2z"/>
      <g transform="translate(230 5)">
        <path d="M19.3,0.1 C9.4,0.8 3.6,6.6 2.1,12.7 C0.6,18.8 0.9,26.7 0.9,26.7 C0.9,26.7 5.7,20.1 13.5,18.8 C14.1,15.2 17.2,12.4 20.9,12.4 C25,12.4 28.4,15.8 28.4,19.9 C28.4,24 25,27.4 20.9,27.4 C18.1,27.4 15.7,25.9 14.4,23.7 C13.7,23.8 12.8,23.9 11.9,24.3 L11.9,24.3 C11.8,24.3 11.7,24.4 11.7,24.4 C11.6,24.4 11.5,24.5 11.4,24.5 C1.6,28.3 1.6,35.4 1.6,35.4 L1.6,47.7 L13.4,47.7 L12.7,36.1 C15.4,37.9 18.4,39 21.4,38.7 C30.3,37.7 37.4,30.6 38.4,21.7 C39.8,10 30.7,0.1 19.3,0.1 Z"/>
        <circle cx="20.7" cy="20.2" r="2.6"/>
      </g>
      <g transform="translate(189)">
        <path d="M38.6,22.5 C38.6,22.5 34.4,27.5 27.6,29.2 C27.2,32.9 24,35.8 20.1,35.8 C16,35.8 12.6,32.4 12.6,28.3 C12.6,24.2 16,20.8 20.1,20.8 C22.7,20.8 24.9,22.1 26.3,24.1 C27.1,23.9 27.6,23.8 27.6,23.8 C36.1,21.3 37.9,16.3 37.9,16.3 L37.9,0.6 L27.7,0.6 L27.7,11.7 C25.3,10.5 22.2,9.6 18.1,9.7 C8.6,10.1 2.3,17.2 1.1,26.7 C-0.2,38.4 8.9,48.2 20.3,48.2 C29.8,47.8 36.1,42 37.5,35.6 C38.9,29.4 38.6,22.5 38.6,22.5 Z"/>
        <circle cx="20.1" cy="28.3" r="2.6"/>
      </g>
      <path d="M109.2,22.7 L109.2,22.5 L109.2,1 L99.4,1 L99.4,11.8 C97.1,10.6 94.1,9.8 90,9.9 C80.7,10.3 74.5,17.2 73.3,26.6 C73.2,40 79.5,46.4 91.7,46.7 C94.5,46.7 97,45.8 99.2,44.6 L99.3,46.1 L109.2,46.1 L109.2,24.6 L109.2,24.2 L109.2,22.7 L109.2,22.7 Z M91.4,35.8 C87.3,35.8 83.9,32.4 83.9,28.3 C83.9,24.2 87.3,20.8 91.4,20.8 C95.5,20.8 98.9,24.2 98.9,28.3 C98.9,32.4 95.6,35.8 91.4,35.8 Z"/>
      <g transform="translate(113 10)">
        <path d="M25.1,1.3 C24,1 23,0.8 22.7,0.8 C22.1,0.7 21.4,0.6 20.6,0.6 C18,0.6 15.6,1.4 13.5,2.9 C12.7,3.5 11.9,3.8 11,3.8 C10.1,3.8 9.8,7.4 9.8,7.4 L10.6,10.3 L11.1,9.8 L10.2,7.3 L10.9,3.8 C10.9,3.8 10.7,1.4 9.5,1.4 C9.5,1.4 0.5,1.5 0.4,1.5 C0.3,1.5 0.5,35.2 0.5,35.2 L10.6,35.2 L10.6,17.5 C10.6,15.8 10.9,14.3 11.6,13.1 C12.3,11.9 13.2,10.9 14.4,10.3 C15.6,9.6 17.1,9.3 19,9.3 C19.3,9.3 19.7,9.3 20,9.4 C21.1,6.3 22.1,4.3 25.1,1.3 Z"/>
        <path d="M10.9,10.3 L10.5,7.3 C10.2,8.1 9.9,8.9 9.8,9.8 L10.9,10.3 Z"/>
      </g>
      <path d="M345.3 14.5C347.7 17.2 348.9 20.9 348.9 25.6L348.9 46 338.1 46 338.1 27C338.1 24.7 337.5 22.8 336.2 21.5 334.9 20.2 333.3 19.5 331.2 19.5 329 19.5 327.2 20.2 325.9 21.6 324.6 23 324 25 324 27.5L324 46.1 313.2 46.1 313.2 10.9 324 10.9 324 17.3C325 15.2 326.5 13.5 328.5 12.3 330.5 11.1 332.9 10.5 335.6 10.5 339.7 10.5 342.9 11.9 345.3 14.5zM66.2 14.5C68.6 17.2 69.8 20.9 69.8 25.6L69.8 46 59 46 59 27C59 24.7 58.4 22.8 57.1 21.5 55.8 20.2 54.2 19.5 52.1 19.5 49.9 19.5 48.1 20.2 46.8 21.6 45.5 23 44.9 25 44.9 27.5L44.9 46.1 34.1 46.1 34.1 10.9 44.9 10.9 44.9 17.3C45.9 15.2 47.4 13.5 49.4 12.3 51.4 11.1 53.8 10.5 56.5 10.5 60.6 10.5 63.8 11.9 66.2 14.5z"/>
      <polygon points="187.1 47 176.3 47 176.3 10.9 187.1 10.9"/>
      <path d="M376.8 13.1C379.5 15.3 381.1 18.3 381.8 22L371.7 22C371.4 20.6 370.7 19.4 369.7 18.6 368.7 17.8 367.4 17.4 365.8 17.4 364.6 17.4 363.7 17.7 363 18.2 362.4 18.7 362.1 19.5 362.1 20.5 362.1 21.6 362.7 22.4 363.8 23 365 23.6 366.8 24.1 369.3 24.7 372 25.3 374.2 26 375.9 26.6 377.6 27.3 379.1 28.3 380.4 29.8 381.7 31.3 382.3 33.3 382.3 35.8 382.3 37.8 381.8 39.6 380.7 41.2 379.6 42.8 378 44 376 44.9 373.9 45.8 371.5 46.2 368.7 46.2 363.9 46.2 360.1 45.1 357.3 43 354.4 40.9 352.7 37.9 352.1 33.9L362.5 33.9C362.7 35.4 363.3 36.6 364.4 37.4 365.5 38.2 367 38.6 368.7 38.6 369.9 38.6 370.8 38.3 371.5 37.7 372.1 37.1 372.4 36.4 372.4 35.4 372.4 34.2 371.8 33.3 370.7 32.8 369.5 32.3 367.7 31.7 365.1 31.1 362.5 30.5 360.3 30 358.7 29.3 357 28.7 355.6 27.6 354.3 26.2 353.1 24.8 352.5 22.8 352.5 20.4 352.5 17.2 353.7 14.6 356.1 12.7 358.5 10.7 361.9 9.7 366.3 9.7 370.5 9.7 374.1 10.9 376.8 13.1zM410.6 33.3C408.9 35.7 406.5 37.2 403.7 37.7 401.3 38.1 399.2 37.8 397.5 36.7 395.9 35.7 394.7 34.2 394 32.2L419.4 28 419.1 26.1C418.3 20.6 416 16.3 412.3 13.5 408.6 10.6 404.2 9.6 399.1 10.5 394.3 11.3 390.6 13.7 387.9 17.6 385.3 21.5 384.3 26.1 385.1 31.2 385.9 36.2 388.1 40.1 391.8 42.9 394.6 45.1 397.9 46.1 401.6 46.1 402.7 46.1 403.8 46 405 45.8 408.2 45.3 411 44.2 413.2 42.6 415.4 41 417.2 38.8 418.5 36L418.7 35.6 410.9 33.2 410.6 33.3zM395.3 20.8C396.7 19.3 398.5 18.4 400.6 18 401.1 17.9 401.7 17.9 402.2 17.9 403.6 17.9 404.9 18.2 406.1 18.8 407.6 19.6 408.8 20.7 409.5 22.2L393.3 24.9C393.8 23 394.5 21.6 395.3 20.8zM29.6 18.1C29 16.4 28.1 14.9 27 13.6 25.9 12.3 24.5 11.4 22.8 10.7 21.2 10 19.3 9.6 17.3 9.6 14.4 9.6 10.1 10.1 7.6 11 5.1 11.9 2.8 13.4.8 15.3L2.6 18.6C2.9 19.1 3.3 19.6 3.8 19.9 4.3 20.3 4.9 20.4 5.6 20.4 6.4 20.4 7.1 20.3 7.6 20 8.2 19.7 8.6 19.5 9.2 19.2 12.5 17.8 14.8 17.7 16 17.7 17.5 17.7 18.7 18.2 19.5 19.1 20.3 20 20.7 21.6 20.7 23.7L20.7 24 20.7 24.8C18.9 23.6 16.3 22.7 12.5 22.7 5.7 23 1.2 27.5.4 33.6-.7 41.8 4.9 46.6 13.7 46.8 17.2 46.8 20.2 45.1 22.3 43.4L22.5 44.1C22.8 45 23.2 45.5 23.7 45.8 24.2 46.1 24.9 46.2 25.9 46.2L30.5 46.2 30.5 23.7C30.5 21.7 30.2 19.8 29.6 18.1zM20.7 37.2C20.5 40 16.2 39.8 16.2 39.8 12.6 39.8 9.9 38.6 10.1 34.3 10.2 31.8 12.4 28.8 16.2 28.7 16.2 28.7 20.1 28.5 20.7 30.3 20.7 30.3 20.9 34.4 20.7 37.2zM422.5 4.8L432.2 4.8 432.2 33.3C432.2 33.3 432.5 36.9 437.6 36.8L437.6 45.7 432.2 45.7C432.2 45.7 422.3 45.7 422.4 35.5L422.5 4.8z"/>
    </g>
    <path fill="#000" d="M1 10.7C.9 10.6.9 10.6.9 10.5L.9.7C.9.6.9.5 1 .4 1.1.3 1.1.3 1.3.3L2 .3C2.2.3 2.3.4 2.4.5L5.6 6.6 8.8.5C8.9.3 9 .3 9.2.3L9.9.3C10 .3 10.1.3 10.2.4 10.3.5 10.3.6 10.3.7L10.3 10.5C10.3 10.6 10.3 10.7 10.2 10.7 10.1 10.8 10.1 10.8 10 10.8L9.3 10.8C9.2 10.8 9.1 10.8 9.1 10.7 9 10.6 9 10.6 9 10.5L9 3 6.4 8C6.3 8.2 6.1 8.3 5.9 8.3L5.4 8.3C5.2 8.3 5 8.2 4.9 8L2.3 3 2.3 10.5C2.3 10.6 2.3 10.7 2.2 10.7 2.1 10.8 2.1 10.8 2 10.8L1.3 10.8C1.1 10.8 1 10.8 1 10.7zM13.2 10C12.6 9.4 12.3 8.6 12.2 7.5L12.2 6.9 12.2 6.3C12.2 5.3 12.6 4.4 13.2 3.8 13.8 3.2 14.7 2.9 15.7 2.9 16.8 2.9 17.6 3.2 18.2 3.8 18.8 4.4 19.1 5.2 19.2 6.3 19.2 6.5 19.2 6.7 19.2 6.9 19.2 7.1 19.2 7.3 19.2 7.5 19.2 8.5 18.8 9.4 18.2 10 17.6 10.6 16.8 10.9 15.7 10.9 14.7 11 13.8 10.7 13.2 10zM17.3 9.2C17.7 8.8 17.9 8.2 17.9 7.4 17.9 7.3 17.9 7.1 17.9 6.8 17.9 6.5 17.9 6.3 17.9 6.2 17.9 5.4 17.7 4.9 17.3 4.4 16.9 4 16.4 3.8 15.8 3.8 15.2 3.8 14.7 4 14.3 4.4 13.9 4.8 13.7 5.4 13.7 6.2L13.7 6.8 13.7 7.4C13.7 8.2 13.9 8.7 14.3 9.2 14.7 9.6 15.2 9.8 15.8 9.8 16.4 9.8 16.9 9.6 17.3 9.2zM22.5 9.8L22.5 10.4C22.5 10.5 22.5 10.6 22.4 10.6 22.3 10.7 22.3 10.7 22.2 10.7L21.6 10.7C21.5 10.7 21.4 10.7 21.4 10.6 21.3 10.5 21.3 10.5 21.3 10.4L21.3.4C21.3.3 21.3.2 21.4.1 21.5 0 21.5 0 21.6 0L22.3 0C22.4 0 22.5 0 22.5.1 22.6.2 22.6.2 22.6.3L22.6 4C23.2 3.3 24 2.9 25 2.9 26.1 2.9 26.8 3.2 27.4 3.9 27.9 4.6 28.2 5.4 28.2 6.5 28.2 6.6 28.2 6.8 28.2 7 28.2 7.2 28.2 7.3 28.2 7.5 28.2 8.5 27.9 9.4 27.4 10.1 26.9 10.8 26.1 11.1 25 11.1 23.9 11 23.1 10.6 22.5 9.8zM26.3 9.1C26.6 8.6 26.8 8.1 26.8 7.3 26.8 7.2 26.8 7.1 26.8 6.9 26.8 5 26.1 4 24.7 4 24 4 23.5 4.2 23.1 4.7 22.7 5.1 22.5 5.7 22.5 6.3 22.5 6.4 22.5 6.6 22.5 6.9 22.5 7.2 22.5 7.4 22.5 7.5 22.5 8.1 22.7 8.7 23.1 9.2 23.5 9.7 24 9.9 24.7 9.9 25.4 9.8 26 9.6 26.3 9.1zM30.1 1.4C30 1.3 30 1.3 30 1.2L30 .4C30 .3 30 .2 30.1.1 30.2 1.42108547e-14 30.2 1.42108547e-14 30.3 1.42108547e-14L31.2 1.42108547e-14C31.3 1.42108547e-14 31.4 1.42108547e-14 31.5.1 31.6.2 31.6.3 31.6.4L31.6 1.2C31.6 1.3 31.6 1.4 31.5 1.4 31.4 1.5 31.3 1.5 31.2 1.5L30.3 1.5C30.2 1.5 30.2 1.5 30.1 1.4zM30.2 10.7C30.1 10.6 30.1 10.6 30.1 10.5L30.1 3.4C30.1 3.3 30.1 3.2 30.2 3.2 30.3 3.2 30.3 3.1 30.4 3.1L31.1 3.1C31.2 3.1 31.3 3.1 31.3 3.2 31.4 3.3 31.4 3.3 31.4 3.4L31.4 10.5C31.4 10.6 31.4 10.7 31.3 10.7 31.2 10.8 31.2 10.8 31.1 10.8L30.4 10.8C30.4 10.8 30.3 10.8 30.2 10.7zM33.8 10.7C33.7 10.6 33.7 10.6 33.7 10.5L33.7.5C33.7.4 33.7.3 33.8.2 33.9.1 33.9.1 34 .1L34.7.1C34.8.1 34.9.1 34.9.2 35 .3 35 .3 35 .4L35 10.4C35 10.5 35 10.6 34.9 10.6 34.8 10.7 34.8 10.7 34.7 10.7L34 10.7C34 10.8 33.9 10.8 33.8 10.7zM38 10C37.4 9.4 37.1 8.5 37 7.4L37 6.9 37 6.4C37.1 5.3 37.4 4.5 38 3.8 38.6 3.2 39.4 2.8 40.4 2.8 41.5 2.8 42.4 3.2 43 3.9 43.6 4.6 43.9 5.6 43.9 6.8L43.9 7C43.9 7.1 43.9 7.2 43.8 7.2 43.7 7.2 43.7 7.3 43.6 7.3L38.4 7.3 38.4 7.4C38.4 8.1 38.6 8.6 39 9.1 39.4 9.6 39.9 9.8 40.5 9.8 41 9.8 41.4 9.7 41.6 9.5 41.9 9.3 42.1 9.1 42.3 8.9 42.4 8.8 42.5 8.7 42.5 8.7 42.6 8.7 42.6 8.7 42.8 8.7L43.5 8.7C43.6 8.7 43.7 8.7 43.7 8.8 43.8 8.8 43.8 8.9 43.8 9 43.8 9.2 43.7 9.5 43.4 9.8 43.1 10.1 42.7 10.4 42.3 10.6 41.8 10.8 41.2 10.9 40.6 10.9 39.4 11 38.6 10.7 38 10zM42.5 6.4L42.5 6.4C42.5 5.7 42.3 5.1 41.9 4.6 41.5 4.2 41 3.9 40.4 3.9 39.7 3.9 39.2 4.1 38.9 4.6 38.5 5 38.3 5.6 38.3 6.3L38.3 6.3 42.5 6.3 42.5 6.4zM49.6 13.6C49.5 13.5 49.5 13.5 49.5 13.3L49.5 3.3C49.5 3.2 49.5 3.1 49.6 3 49.7 2.9 49.7 2.9 49.8 2.9L50.4 2.9C50.5 2.9 50.6 2.9 50.7 3 50.8 3.1 50.8 3.1 50.8 3.3L50.8 4C51.4 3.2 52.2 2.8 53.3 2.8 54.4 2.8 55.1 3.1 55.7 3.8 56.2 4.5 56.5 5.3 56.5 6.3 56.5 6.4 56.5 6.6 56.5 6.8 56.5 7 56.5 7.2 56.5 7.3 56.5 8.3 56.2 9.2 55.7 9.8 55.2 10.5 54.4 10.8 53.3 10.8 52.2 10.8 51.4 10.4 50.9 9.7L50.9 13.2C50.9 13.3 50.9 13.4 50.8 13.4 50.7 13.5 50.7 13.5 50.6 13.5L49.9 13.5C49.7 13.7 49.6 13.6 49.6 13.6zM54.5 9.1C54.8 8.6 55 8.1 55 7.3 55 7.2 55 7.1 55 6.9 55 5 54.3 4 52.9 4 52.2 4 51.7 4.2 51.3 4.7 50.9 5.2 50.8 5.7 50.7 6.3 50.7 6.4 50.7 6.6 50.7 6.9 50.7 7.2 50.7 7.4 50.7 7.5 50.7 8.1 50.9 8.6 51.3 9.1 51.7 9.5 52.2 9.8 52.9 9.8 53.7 9.8 54.2 9.6 54.5 9.1zM58.5 10.7C58.4 10.6 58.4 10.6 58.4 10.5L58.4.5C58.4.4 58.4.3 58.5.2 58.6.1 58.6.1 58.7.1L59.4.1C59.5.1 59.6.1 59.7.2 59.8.3 59.8.3 59.8.5L59.8 4C60.1 3.6 60.4 3.3 60.8 3.2 61.2 3 61.7 2.9 62.3 2.9 63.3 2.9 64 3.2 64.5 3.8 65 4.4 65.3 5.2 65.3 6.2L65.3 10.5C65.3 10.6 65.3 10.7 65.2 10.7 65.1 10.8 65.1 10.8 65 10.8L64.3 10.8C64.2 10.8 64.1 10.8 64.1 10.7 64 10.6 64 10.6 64 10.5L64 6.3C64 5.6 63.8 5 63.5 4.6 63.1 4.2 62.6 4 62 4 61.4 4 60.8 4.2 60.5 4.6 60.1 5 59.9 5.6 59.9 6.3L59.9 10.5C59.9 10.6 59.9 10.7 59.8 10.7 59.7 10.8 59.7 10.8 59.6 10.8L58.9 10.8C58.6 10.8 58.5 10.8 58.5 10.7zM68.1 10C67.5 9.4 67.2 8.6 67.1 7.5L67.1 6.9 67.1 6.3C67.1 5.3 67.5 4.4 68.1 3.8 68.7 3.2 69.6 2.9 70.6 2.9 71.7 2.9 72.5 3.2 73.1 3.8 73.7 4.4 74 5.2 74.1 6.3 74.1 6.5 74.1 6.7 74.1 6.9 74.1 7.1 74.1 7.3 74.1 7.5 74.1 8.5 73.7 9.4 73.1 10 72.5 10.6 71.7 10.9 70.6 10.9 69.6 11 68.7 10.7 68.1 10zM72.2 9.2C72.6 8.8 72.8 8.2 72.8 7.4 72.8 7.3 72.8 7.1 72.8 6.8 72.8 6.5 72.8 6.3 72.8 6.2 72.8 5.4 72.6 4.9 72.2 4.4 71.8 4 71.3 3.8 70.7 3.8 70.1 3.8 69.6 4 69.2 4.4 68.8 4.8 68.6 5.4 68.6 6.2L68.6 6.8 68.6 7.4C68.6 8.2 68.8 8.7 69.2 9.2 69.6 9.6 70.1 9.8 70.7 9.8 71.3 9.8 71.8 9.6 72.2 9.2zM76.2 10.7C76.1 10.6 76.1 10.6 76.1 10.5L76.1 3.4C76.1 3.3 76.1 3.2 76.2 3.2 76.3 3.2 76.3 3.1 76.4 3.1L77 3.1C77.1 3.1 77.2 3.1 77.3 3.2 77.4 3.3 77.4 3.3 77.4 3.5L77.4 4C77.7 3.6 78 3.3 78.4 3.1 78.8 2.9 79.3 2.8 79.9 2.8 80.9 2.8 81.6 3.1 82.1 3.7 82.6 4.3 82.9 5.1 82.9 6.1L82.9 10.4C82.9 10.5 82.9 10.6 82.8 10.6 82.7 10.6 82.7 10.7 82.6 10.7L81.9 10.7C81.8 10.7 81.7 10.7 81.7 10.6 81.6 10.5 81.6 10.5 81.6 10.4L81.6 6.2C81.6 5.5 81.4 4.9 81.1 4.5 80.7 4.1 80.2 3.9 79.6 3.9 79 3.9 78.4 4.1 78.1 4.5 77.7 4.9 77.5 5.5 77.5 6.2L77.5 10.4C77.5 10.5 77.5 10.6 77.4 10.6 77.3 10.7 77.3 10.7 77.2 10.7L76.5 10.7C76.3 10.8 76.2 10.8 76.2 10.7zM85.8 10C85.2 9.4 84.9 8.5 84.8 7.4L84.8 6.9 84.8 6.4C84.9 5.3 85.2 4.5 85.8 3.8 86.4 3.2 87.2 2.8 88.2 2.8 89.3 2.8 90.2 3.2 90.8 3.9 91.4 4.6 91.7 5.6 91.7 6.8L91.7 7C91.7 7.1 91.7 7.2 91.6 7.2 91.5 7.2 91.5 7.3 91.4 7.3L86.2 7.3 86.2 7.4C86.2 8.1 86.4 8.6 86.8 9.1 87.2 9.6 87.7 9.8 88.3 9.8 88.8 9.8 89.2 9.7 89.4 9.5 89.7 9.3 89.9 9.1 90.1 8.9 90.2 8.8 90.3 8.7 90.3 8.7 90.4 8.7 90.4 8.7 90.6 8.7L91.3 8.7C91.4 8.7 91.5 8.7 91.5 8.8 91.6 8.8 91.6 8.9 91.6 9 91.6 9.2 91.5 9.5 91.2 9.8 90.9 10.1 90.5 10.4 90.1 10.6 89.6 10.8 89 10.9 88.4 10.9 87.2 11 86.4 10.7 85.8 10zM90.4 6.4L90.4 6.4C90.4 5.7 90.2 5.1 89.8 4.6 89.4 4.2 88.9 3.9 88.3 3.9 87.6 3.9 87.1 4.1 86.8 4.6 86.4 5 86.2 5.6 86.2 6.3L86.2 6.3 90.4 6.3 90.4 6.4zM97.3 10.7C97.2 10.6 97.2 10.6 97.2 10.5L97.2 3.4C97.2 3.3 97.2 3.2 97.3 3.1 97.4 3 97.4 3 97.5 3L98.1 3C98.2 3 98.3 3 98.4 3.1 98.5 3.2 98.5 3.3 98.5 3.4L98.5 4C98.9 3.3 99.6 3 100.6 3L101.2 3C101.3 3 101.4 3 101.5 3.1 101.6 3.2 101.6 3.2 101.6 3.4L101.6 4C101.6 4.1 101.6 4.2 101.5 4.2 101.4 4.3 101.4 4.3 101.2 4.3L100.3 4.3C99.7 4.3 99.3 4.5 99 4.8 98.7 5.1 98.5 5.6 98.5 6.1L98.5 10.5C98.5 10.6 98.5 10.7 98.4 10.7 98.3 10.8 98.2 10.8 98.1 10.8L97.4 10.8C97.5 10.8 97.4 10.8 97.3 10.7zM103.4 10C102.8 9.4 102.5 8.5 102.4 7.4L102.4 6.9 102.4 6.4C102.5 5.3 102.8 4.5 103.4 3.8 104 3.2 104.8 2.8 105.8 2.8 106.9 2.8 107.8 3.2 108.4 3.9 109 4.6 109.3 5.6 109.3 6.8L109.3 7C109.3 7.1 109.3 7.2 109.2 7.2 109.1 7.2 109.1 7.3 109 7.3L103.8 7.3 103.8 7.4C103.8 8.1 104 8.6 104.4 9.1 104.8 9.6 105.3 9.8 105.9 9.8 106.4 9.8 106.8 9.7 107 9.5 107.3 9.3 107.5 9.1 107.7 8.9 107.8 8.8 107.9 8.7 107.9 8.7 108 8.7 108 8.7 108.2 8.7L108.9 8.7C109 8.7 109.1 8.7 109.1 8.8 109.2 8.8 109.2 8.9 109.2 9 109.2 9.2 109.1 9.5 108.8 9.8 108.5 10.1 108.1 10.4 107.7 10.6 107.2 10.8 106.6 10.9 106 10.9 104.8 11 104 10.7 103.4 10zM107.9 6.4L107.9 6.4C107.9 5.7 107.7 5.1 107.3 4.6 106.9 4.2 106.4 3.9 105.8 3.9 105.1 3.9 104.6 4.1 104.3 4.6 103.9 5 103.7 5.6 103.7 6.3L103.7 6.3 107.9 6.3 107.9 6.4zM113 10.4L110.2 3.4C110.2 3.4 110.2 3.3 110.2 3.3 110.2 3.2 110.2 3.1 110.3 3.1 110.4 3 110.4 3 110.5 3L111.2 3C111.4 3 111.5 3.1 111.6 3.2L113.9 9.2 116.2 3.2C116.2 3.1 116.3 3.1 116.3 3 116.4 3 116.4 2.9 116.5 2.9L117.2 2.9C117.3 2.9 117.4 2.9 117.4 3 117.5 3.1 117.5 3.1 117.5 3.2L117.5 3.3 114.7 10.3C114.6 10.6 114.4 10.7 114.1 10.7L113.5 10.7C113.3 10.8 113.1 10.7 113 10.4zM119.1 1.4C119 1.3 119 1.3 119 1.2L119 .4C119 .3 119 .2 119.1.1 119.2 1.42108547e-14 119.2 1.42108547e-14 119.3 1.42108547e-14L120.2 1.42108547e-14C120.3 1.42108547e-14 120.4 1.42108547e-14 120.5.1 120.6.2 120.6.3 120.6.4L120.6 1.2C120.6 1.3 120.6 1.4 120.5 1.4 120.4 1.5 120.3 1.5 120.2 1.5L119.3 1.5C119.3 1.5 119.2 1.5 119.1 1.4zM119.3 10.7C119.2 10.6 119.2 10.6 119.2 10.5L119.2 3.4C119.2 3.3 119.2 3.2 119.3 3.2 119.4 3.2 119.4 3.1 119.5 3.1L120.2 3.1C120.3 3.1 120.4 3.1 120.4 3.2 120.4 3.3 120.5 3.3 120.5 3.4L120.5 10.5C120.5 10.6 120.5 10.7 120.4 10.7 120.3 10.7 120.3 10.8 120.2 10.8L119.5 10.8C119.4 10.8 119.3 10.8 119.3 10.7zM123.4 10C122.8 9.4 122.5 8.5 122.4 7.4L122.4 6.9 122.4 6.4C122.5 5.3 122.8 4.5 123.4 3.8 124 3.2 124.8 2.8 125.8 2.8 126.9 2.8 127.8 3.2 128.4 3.9 129 4.6 129.3 5.6 129.3 6.8L129.3 7C129.3 7.1 129.3 7.2 129.2 7.2 129.1 7.3 129.1 7.3 129 7.3L123.8 7.3 123.8 7.4C123.8 8.1 124 8.6 124.4 9.1 124.8 9.6 125.3 9.8 125.9 9.8 126.4 9.8 126.8 9.7 127 9.5 127.3 9.3 127.5 9.1 127.7 8.9 127.8 8.8 127.9 8.7 127.9 8.7 128 8.7 128 8.7 128.2 8.7L128.9 8.7C129 8.7 129.1 8.7 129.1 8.8 129.2 8.8 129.2 8.9 129.2 9 129.2 9.2 129.1 9.5 128.8 9.8 128.5 10.1 128.1 10.4 127.7 10.6 127.2 10.8 126.6 10.9 126 10.9 124.8 11 124 10.7 123.4 10zM128 6.4L128 6.4C128 5.7 127.8 5.1 127.4 4.6 127 4.2 126.5 3.9 125.9 3.9 125.2 3.9 124.7 4.1 124.4 4.6 124 5 123.8 5.6 123.8 6.3L123.8 6.3 128 6.3 128 6.4zM132.7 10.7C132.6 10.6 132.6 10.5 132.5 10.4L130.4 3.4 130.4 3.3C130.4 3.2 130.4 3.1 130.5 3.1 130.6 3 130.6 3 130.7 3L131.3 3C131.4 3 131.5 3 131.5 3.1 131.6 3.2 131.6 3.2 131.6 3.3L133.3 9 135.1 3.3C135.1 3.2 135.2 3.1 135.2 3.1 135.3 3 135.4 3 135.5 3L136 3C136.1 3 136.2 3 136.3 3.1 136.4 3.2 136.4 3.2 136.4 3.3L138.2 9 139.9 3.3C139.9 3.3 139.9 3.2 140 3.1 140.1 3 140.1 3 140.2 3L140.8 3C140.9 3 141 3 141 3.1 141 3.2 141.1 3.2 141.1 3.3L141.1 3.4 139 10.4C139 10.5 138.9 10.6 138.8 10.7 138.7 10.8 138.6 10.8 138.5 10.8L138 10.8C137.7 10.8 137.6 10.7 137.5 10.4L135.7 5 133.9 10.4C133.8 10.7 133.6 10.8 133.4 10.8L133 10.8C132.9 10.8 132.8 10.8 132.7 10.7zM143.7 10.6C143.2 10.4 142.9 10.1 142.6 9.8 142.4 9.5 142.3 9.3 142.3 9.1 142.3 9 142.3 8.9 142.4 8.9 142.5 8.8 142.5 8.8 142.6 8.8L143.2 8.8C143.3 8.8 143.3 8.8 143.3 8.8 143.3 8.8 143.4 8.9 143.4 8.9 143.6 9.2 143.9 9.4 144.2 9.6 144.5 9.8 144.9 9.8 145.3 9.8 145.8 9.8 146.3 9.7 146.6 9.5 146.9 9.3 147.1 9 147.1 8.6 147.1 8.4 147 8.1 146.9 8 146.8 7.8 146.5 7.7 146.2 7.6 145.9 7.5 145.4 7.3 144.8 7.2 143.9 7 143.3 6.7 143 6.4 142.6 6 142.5 5.6 142.5 5 142.5 4.6 142.6 4.3 142.8 3.9 143 3.6 143.3 3.3 143.8 3.1 144.2 2.9 144.8 2.8 145.4 2.8 146 2.8 146.6 2.9 147 3.1 147.4 3.3 147.8 3.6 148 3.8 148.2 4.1 148.3 4.3 148.3 4.5 148.3 4.6 148.3 4.7 148.2 4.7 148.1 4.8 148.1 4.8 148 4.8L147.4 4.8C147.3 4.8 147.2 4.7 147.1 4.6 146.9 4.4 146.8 4.3 146.7 4.2 146.6 4.1 146.4 4 146.2 3.9 146 3.8 145.7 3.8 145.4 3.8 144.9 3.8 144.5 3.9 144.3 4.1 144 4.3 143.9 4.6 143.9 4.9 143.9 5.1 144 5.3 144.1 5.4 144.2 5.5 144.4 5.7 144.7 5.8 145 5.9 145.5 6.1 146.1 6.2 147.1 6.4 147.7 6.7 148.1 7.1 148.5 7.5 148.7 7.9 148.7 8.5 148.7 8.9 148.6 9.3 148.3 9.7 148.1 10.1 147.7 10.3 147.2 10.5 146.7 10.7 146.1 10.8 145.5 10.8 144.8 11 144.2 10.9 143.7 10.6zM150.1 11.9C150.1 11.8 150 11.8 150.1 11.7L150.4 9.6C150.4 9.3 150.6 9.2 150.8 9.2L151.8 9.2C151.9 9.2 151.9 9.2 152 9.3 152 9.4 152.1 9.4 152.1 9.5 152.1 9.6 152.1 9.7 152 9.8L151.2 11.8C151.1 12 151 12.1 150.8 12.1L150.3 12.1C150.2 12 150.2 11.9 150.1 11.9zM157.9 10.7C157.8 10.6 157.8 10.6 157.8 10.5L157.8 3.4C157.8 3.3 157.8 3.2 157.9 3.2 158 3.1 158 3.1 158.1 3.1L158.7 3.1C158.8 3.1 158.9 3.1 159 3.2 159.1 3.3 159.1 3.3 159.1 3.5L159.1 4C159.4 3.6 159.7 3.3 160.1 3.1 160.5 2.9 161 2.8 161.6 2.8 162.6 2.8 163.3 3.1 163.8 3.7 164.3 4.3 164.6 5.1 164.6 6.1L164.6 10.4C164.6 10.5 164.6 10.6 164.5 10.6 164.4 10.7 164.4 10.7 164.3 10.7L163.6 10.7C163.5 10.7 163.4 10.7 163.4 10.6 163.3 10.5 163.3 10.5 163.3 10.4L163.3 6.2C163.3 5.5 163.1 4.9 162.8 4.5 162.4 4.1 161.9 3.9 161.3 3.9 160.7 3.9 160.1 4.1 159.8 4.5 159.4 4.9 159.2 5.5 159.2 6.2L159.2 10.4C159.2 10.5 159.2 10.6 159.1 10.6 159 10.7 159 10.7 158.9 10.7L158.2 10.7C158.1 10.8 158 10.8 157.9 10.7zM167.6 10C167 9.4 166.7 8.5 166.6 7.4L166.6 6.9 166.6 6.4C166.7 5.3 167 4.5 167.6 3.8 168.2 3.2 169 2.8 170 2.8 171.1 2.8 172 3.2 172.6 3.9 173.2 4.6 173.5 5.6 173.5 6.8L173.5 7C173.5 7.1 173.5 7.2 173.4 7.2 173.3 7.3 173.3 7.3 173.2 7.3L168 7.3 168 7.4C168 8.1 168.2 8.6 168.6 9.1 169 9.6 169.5 9.8 170.1 9.8 170.6 9.8 171 9.7 171.2 9.5 171.5 9.3 171.7 9.1 171.9 8.9 172 8.8 172.1 8.7 172.1 8.7 172.1 8.7 172.2 8.7 172.4 8.7L173.1 8.7C173.2 8.7 173.3 8.7 173.3 8.8 173.4 8.8 173.4 8.9 173.4 9 173.4 9.2 173.3 9.5 173 9.8 172.7 10.1 172.3 10.4 171.9 10.6 171.4 10.8 170.8 10.9 170.2 10.9 169 11 168.2 10.7 167.6 10zM172.1 6.4L172.1 6.4C172.1 5.7 171.9 5.1 171.5 4.6 171.1 4.2 170.6 3.9 170 3.9 169.3 3.9 168.8 4.1 168.5 4.6 168.1 5 167.9 5.6 167.9 6.3L167.9 6.3 172.1 6.3 172.1 6.4zM176.9 10.7C176.8 10.6 176.8 10.5 176.7 10.4L174.6 3.4 174.6 3.3C174.6 3.2 174.6 3.1 174.7 3.1 174.8 3.1 174.8 3 174.9 3L175.5 3C175.6 3 175.7 3 175.7 3.1 175.8 3.2 175.8 3.2 175.8 3.3L177.5 9 179.3 3.3C179.3 3.2 179.4 3.1 179.4 3.1 179.4 3.1 179.6 3 179.7 3L180.2 3C180.3 3 180.4 3 180.5 3.1 180.6 3.2 180.6 3.2 180.6 3.3L182.4 9 184.1 3.3C184.1 3.3 184.1 3.2 184.2 3.1 184.3 3 184.3 3 184.4 3L185 3C185.1 3 185.2 3 185.2 3.1 185.3 3.2 185.3 3.2 185.3 3.3L185.3 3.4 183.2 10.4C183.2 10.5 183.1 10.6 183 10.7 182.9 10.8 182.8 10.8 182.7 10.8L182.2 10.8C181.9 10.8 181.8 10.7 181.7 10.4L180 5 178.2 10.4C178.1 10.7 177.9 10.8 177.7 10.8L177.2 10.8C177 10.8 176.9 10.8 176.9 10.7zM187.9 10.6C187.4 10.4 187.1 10.1 186.8 9.8 186.6 9.5 186.5 9.3 186.5 9.1 186.5 9 186.5 8.9 186.6 8.9 186.7 8.9 186.7 8.8 186.8 8.8L187.4 8.8C187.5 8.8 187.5 8.8 187.5 8.8 187.5 8.8 187.6 8.9 187.6 8.9 187.8 9.2 188.1 9.4 188.4 9.6 188.7 9.8 189.1 9.8 189.5 9.8 190 9.8 190.5 9.7 190.8 9.5 191.1 9.3 191.3 9 191.3 8.6 191.3 8.4 191.2 8.1 191.1 8 191 7.8 190.7 7.7 190.4 7.6 190.1 7.5 189.6 7.3 189 7.2 188.1 7 187.5 6.7 187.2 6.4 186.8 6 186.7 5.6 186.7 5 186.7 4.6 186.8 4.3 187 3.9 187.2 3.6 187.5 3.3 188 3.1 188.4 2.9 189 2.8 189.6 2.8 190.2 2.8 190.8 2.9 191.2 3.1 191.6 3.3 192 3.6 192.2 3.8 192.4 4.1 192.5 4.3 192.5 4.5 192.5 4.6 192.5 4.7 192.4 4.7 192.3 4.8 192.3 4.8 192.2 4.8L191.6 4.8C191.5 4.8 191.4 4.7 191.3 4.6 191.1 4.4 191 4.3 190.9 4.2 190.8 4.1 190.6 4 190.4 3.9 190.2 3.8 189.9 3.8 189.6 3.8 189.1 3.8 188.7 3.9 188.5 4.1 188.2 4.3 188.1 4.6 188.1 4.9 188.1 5.1 188.2 5.3 188.3 5.4 188.4 5.5 188.6 5.7 188.9 5.8 189.2 5.9 189.7 6.1 190.3 6.2 191.3 6.4 191.9 6.7 192.3 7.1 192.7 7.5 192.9 7.9 192.9 8.5 192.9 8.9 192.8 9.3 192.5 9.7 192.3 10.1 191.9 10.3 191.4 10.5 190.9 10.7 190.3 10.8 189.7 10.8 188.9 11 188.3 10.9 187.9 10.6zM199.1 10.7C198.7 10.5 198.4 10.2 198.1 9.9 197.9 9.6 197.7 9.2 197.7 8.8 197.7 8.1 198 7.6 198.5 7.2 199 6.8 199.8 6.5 200.7 6.4L203 6.1 203 5.7C203 4.7 202.4 4.2 201.2 4.2 200.7 4.2 200.4 4.3 200.1 4.5 199.8 4.7 199.6 4.9 199.5 5.2 199.5 5.3 199.4 5.4 199.4 5.4 199.4 5.4 199.3 5.5 199.2 5.5L198.6 5.5C198.5 5.5 198.4 5.5 198.4 5.4 198.3 5.3 198.3 5.3 198.3 5.2 198.3 5 198.4 4.7 198.6 4.4 198.8 4.1 199.1 3.8 199.6 3.6 200.1 3.4 200.6 3.3 201.3 3.3 202.4 3.3 203.2 3.6 203.7 4.1 204.2 4.6 204.4 5.3 204.4 6.1L204.4 11C204.4 11.1 204.4 11.2 204.3 11.2 204.2 11.3 204.2 11.3 204.1 11.3L203.4 11.3C203.3 11.3 203.2 11.3 203.2 11.2 203.1 11.1 203.1 11.1 203.1 11L203.1 10.3C202.9 10.6 202.6 10.9 202.1 11.1 201.7 11.3 201.1 11.4 200.5 11.4 199.9 11 199.5 10.9 199.1 10.7zM202.3 9.2C202.7 8.8 202.9 8.1 202.9 7.3L202.9 6.9 201.1 7.2C200.4 7.3 199.8 7.5 199.5 7.7 199.1 7.9 198.9 8.2 198.9 8.6 198.9 9 199.1 9.3 199.4 9.5 199.7 9.7 200.1 9.8 200.6 9.8 201.4 9.9 201.9 9.7 202.3 9.2zM206.6 10.7C206.5 10.6 206.5 10.6 206.5 10.5L206.5 3.4C206.5 3.3 206.5 3.2 206.6 3.2 206.7 3.1 206.7 3.1 206.8 3.1L207.4 3.1C207.5 3.1 207.6 3.1 207.7 3.2 207.8 3.3 207.8 3.3 207.8 3.5L207.8 4C208.1 3.6 208.4 3.3 208.8 3.1 209.2 2.9 209.7 2.8 210.3 2.8 211.3 2.8 212 3.1 212.5 3.7 213 4.3 213.3 5.1 213.3 6.1L213.3 10.4C213.3 10.5 213.3 10.6 213.2 10.6 213.1 10.6 213.1 10.7 213 10.7L212.3 10.7C212.2 10.7 212.1 10.7 212.1 10.6 212 10.5 212 10.5 212 10.4L212 6.2C212 5.5 211.8 4.9 211.5 4.5 211.1 4.1 210.6 3.9 210 3.9 209.4 3.9 208.8 4.1 208.5 4.5 208.1 4.9 207.9 5.5 207.9 6.2L207.9 10.4C207.9 10.5 207.9 10.6 207.8 10.6 207.7 10.7 207.7 10.7 207.6 10.7L206.9 10.7C206.8 10.8 206.7 10.8 206.6 10.7zM216.1 10C215.6 9.3 215.3 8.5 215.3 7.4L215.3 6.9 215.3 6.4C215.3 5.4 215.6 4.5 216.2 3.8 216.7 3.1 217.5 2.8 218.6 2.8 219.6 2.8 220.5 3.2 221 3.9L221 .4C221 .3 221 .2 221.1.2 221.2.1 221.2.1 221.3.1L222 .1C222.1.1 222.2.1 222.2.2 222.3.3 222.3.3 222.3.4L222.3 10.4C222.3 10.5 222.3 10.6 222.2 10.6 222.1 10.7 222.1 10.7 222 10.7L221.4 10.7C221.3 10.7 221.2 10.7 221.2 10.6 221.1 10.5 221.1 10.5 221.1 10.4L221.1 9.8C220.5 10.6 219.7 10.9 218.6 10.9 217.4 11 216.6 10.6 216.1 10zM220.3 9.1C220.7 8.6 220.8 8.1 220.9 7.4 220.9 7.3 220.9 7.1 220.9 6.8 220.9 6.5 220.9 6.3 220.9 6.2 220.9 5.6 220.7 5.1 220.3 4.6 219.9 4.2 219.4 3.9 218.7 3.9 218 3.9 217.5 4.1 217.1 4.6 216.8 5.1 216.6 5.6 216.6 6.4L216.6 6.8C216.6 8.7 217.3 9.7 218.7 9.7 219.4 9.8 220 9.6 220.3 9.1zM228.9 10.1C228.4 9.5 228.1 8.7 228.1 7.6L228.1 3.4C228.1 3.3 228.1 3.2 228.2 3.2 228.3 3.1 228.3 3.1 228.4 3.1L229.1 3.1C229.2 3.1 229.3 3.1 229.3 3.2 229.4 3.3 229.4 3.3 229.4 3.4L229.4 7.6C229.4 9.1 230.1 9.9 231.4 9.9 232 9.9 232.5 9.7 232.9 9.3 233.3 8.9 233.5 8.3 233.5 7.6L233.5 3.4C233.5 3.3 233.5 3.2 233.6 3.2 233.7 3.1 233.7 3.1 233.8 3.1L234.5 3.1C234.6 3.1 234.7 3.1 234.7 3.2 234.8 3.3 234.8 3.3 234.8 3.4L234.8 10.5C234.8 10.6 234.8 10.7 234.7 10.7 234.6 10.8 234.6 10.8 234.5 10.8L234 10.8C233.9 10.8 233.8 10.8 233.8 10.7 233.7 10.6 233.7 10.6 233.7 10.5L233.7 9.8C233.4 10.2 233.1 10.5 232.7 10.7 232.3 10.9 231.8 11 231.2 11 230.2 11 229.4 10.7 228.9 10.1zM237.3 13.6C237.2 13.5 237.2 13.5 237.2 13.3L237.2 3.3C237.2 3.2 237.2 3.1 237.3 3 237.4 2.9 237.4 2.9 237.5 2.9L238.1 2.9C238.2 2.9 238.3 2.9 238.4 3 238.5 3.1 238.5 3.1 238.5 3.3L238.5 4C239.1 3.2 239.9 2.8 241 2.8 242.1 2.8 242.8 3.1 243.4 3.8 243.9 4.5 244.2 5.3 244.2 6.3 244.2 6.4 244.2 6.6 244.2 6.8 244.2 7 244.2 7.2 244.2 7.3 244.2 8.3 243.9 9.2 243.4 9.8 242.9 10.5 242.1 10.8 241 10.8 239.9 10.8 239.1 10.4 238.6 9.7L238.6 13.2C238.6 13.3 238.6 13.4 238.5 13.4 238.4 13.5 238.4 13.5 238.3 13.5L237.6 13.5C237.5 13.7 237.4 13.6 237.3 13.6zM242.3 9.1C242.6 8.6 242.8 8.1 242.8 7.3 242.8 7.2 242.8 7.1 242.8 6.9 242.8 5 242.1 4 240.7 4 240 4 239.5 4.2 239.1 4.7 238.7 5.2 238.6 5.7 238.5 6.3 238.5 6.4 238.5 6.6 238.5 6.9 238.5 7.2 238.5 7.4 238.5 7.5 238.5 8.1 238.7 8.6 239.1 9.1 239.5 9.5 240 9.8 240.7 9.8 241.5 9.8 242 9.6 242.3 9.1zM246.6 10C246.1 9.3 245.8 8.5 245.8 7.4L245.8 6.9 245.8 6.4C245.8 5.4 246.1 4.5 246.7 3.8 247.2 3.1 248 2.8 249.1 2.8 250.1 2.8 251 3.2 251.5 3.9L251.5.4C251.5.3 251.5.2 251.6.2 251.7.1 251.7.1 251.8.1L252.5.1C252.6.1 252.7.1 252.7.2 252.8.3 252.8.3 252.8.4L252.8 10.4C252.8 10.5 252.8 10.6 252.7 10.6 252.6 10.7 252.6 10.7 252.5 10.7L251.9 10.7C251.8 10.7 251.7 10.7 251.7 10.6 251.6 10.5 251.6 10.5 251.6 10.4L251.6 9.8C251 10.6 250.2 10.9 249.1 10.9 248 11 247.2 10.6 246.6 10zM250.9 9.1C251.3 8.6 251.4 8.1 251.5 7.4 251.5 7.3 251.5 7.1 251.5 6.8 251.5 6.5 251.5 6.3 251.5 6.2 251.5 5.6 251.3 5.1 250.9 4.6 250.5 4.2 250 3.9 249.3 3.9 248.6 3.9 248.1 4.1 247.7 4.6 247.4 5.1 247.2 5.6 247.2 6.4L247.2 6.8C247.2 8.7 247.9 9.7 249.3 9.7 250 9.8 250.5 9.6 250.9 9.1zM255.9 10.7C255.5 10.5 255.2 10.2 254.9 9.9 254.7 9.6 254.5 9.2 254.5 8.8 254.5 8.1 254.8 7.6 255.3 7.2 255.8 6.8 256.6 6.5 257.5 6.4L259.8 6.1 259.8 5.7C259.8 4.7 259.2 4.2 258 4.2 257.5 4.2 257.2 4.3 256.9 4.5 256.6 4.7 256.4 4.9 256.3 5.2 256.3 5.3 256.2 5.4 256.2 5.4 256.2 5.4 256.1 5.5 256 5.5L255.4 5.5C255.3 5.5 255.2 5.5 255.2 5.4 255.1 5.3 255.1 5.3 255.1 5.2 255.1 5 255.2 4.7 255.4 4.4 255.6 4.1 255.9 3.8 256.4 3.6 256.9 3.4 257.4 3.3 258.1 3.3 259.2 3.3 260 3.6 260.5 4.1 261 4.6 261.2 5.3 261.2 6.1L261.2 11C261.2 11.1 261.2 11.2 261.1 11.2 261 11.3 261 11.3 260.9 11.3L260.2 11.3C260.1 11.3 260 11.3 260 11.2 259.9 11.1 259.9 11.1 259.9 11L259.9 10.3C259.7 10.6 259.4 10.9 258.9 11.1 258.5 11.3 257.9 11.4 257.3 11.4 256.8 11 256.3 10.9 255.9 10.7zM259.2 9.2C259.6 8.8 259.8 8.1 259.8 7.3L259.8 6.9 258 7.2C257.3 7.3 256.7 7.5 256.4 7.7 256 7.9 255.8 8.2 255.8 8.6 255.8 9 256 9.3 256.3 9.5 256.6 9.7 257 9.8 257.5 9.8 258.2 9.9 258.7 9.7 259.2 9.2zM263.9 8.2L263.9 4.2 262.7 4.2C262.6 4.2 262.5 4.2 262.5 4.1 262.4 4 262.4 4 262.4 3.9L262.4 3.4C262.4 3.3 262.4 3.2 262.5 3.2 262.6 3.1 262.6 3.1 262.7 3.1L263.9 3.1 263.9.6C263.9.5 263.9.4 264 .4 264.1.4 264.1.3 264.2.3L264.9.3C265 .3 265.1.3 265.1.4 265.2.5 265.2.5 265.2.6L265.2 3 267.1 3C267.2 3 267.3 3 267.3 3.1 267.4 3.2 267.4 3.2 267.4 3.3L267.4 3.8C267.4 3.9 267.4 4 267.3 4 267.2 4.1 267.2 4.1 267.1 4.1L265.2 4.1 265.2 8C265.2 8.5 265.3 8.9 265.4 9.2 265.6 9.5 265.8 9.6 266.2 9.6L267.1 9.6C267.2 9.6 267.3 9.6 267.3 9.7 267.4 9.8 267.4 9.8 267.4 9.9L267.4 10.4C267.4 10.5 267.4 10.6 267.3 10.6 267.2 10.6 267.2 10.7 267.1 10.7L266.1 10.7C264.7 10.8 263.9 9.9 263.9 8.2zM269.7 10C269.1 9.4 268.8 8.5 268.7 7.4L268.7 6.9 268.7 6.4C268.8 5.3 269.1 4.5 269.7 3.8 270.3 3.2 271.1 2.8 272.1 2.8 273.2 2.8 274.1 3.2 274.7 3.9 275.3 4.6 275.6 5.6 275.6 6.8L275.6 7C275.6 7.1 275.6 7.2 275.5 7.2 275.4 7.3 275.4 7.3 275.3 7.3L270.1 7.3 270.1 7.4C270.1 8.1 270.3 8.6 270.7 9.1 271.1 9.6 271.6 9.8 272.2 9.8 272.7 9.8 273.1 9.7 273.3 9.5 273.6 9.3 273.8 9.1 274 8.9 274.1 8.8 274.2 8.7 274.2 8.7 274.2 8.7 274.3 8.7 274.5 8.7L275.2 8.7C275.3 8.7 275.4 8.7 275.4 8.8 275.5 8.8 275.5 8.9 275.5 9 275.5 9.2 275.4 9.5 275.1 9.8 274.8 10.1 274.4 10.4 274 10.6 273.5 10.8 272.9 10.9 272.3 10.9 271.2 11 270.4 10.7 269.7 10zM274.3 6.4L274.3 6.4C274.3 5.7 274.1 5.1 273.7 4.6 273.3 4.2 272.8 3.9 272.2 3.9 271.5 3.9 271 4.1 270.7 4.6 270.3 5 270.1 5.6 270.1 6.3L270.1 6.3 274.3 6.3 274.3 6.4zM278.4 10.6C277.9 10.4 277.6 10.1 277.3 9.8 277.1 9.5 277 9.3 277 9.1 277 9 277 8.9 277.1 8.9 277.2 8.9 277.2 8.8 277.3 8.8L277.9 8.8C278 8.8 278 8.8 278 8.8 278 8.8 278.1 8.9 278.1 8.9 278.3 9.2 278.6 9.4 278.9 9.6 279.2 9.8 279.6 9.8 280 9.8 280.5 9.8 281 9.7 281.3 9.5 281.6 9.3 281.8 9 281.8 8.6 281.8 8.4 281.7 8.1 281.6 8 281.5 7.8 281.2 7.7 280.9 7.6 280.6 7.5 280.1 7.3 279.5 7.2 278.6 7 278 6.7 277.7 6.4 277.3 6 277.2 5.6 277.2 5 277.2 4.6 277.3 4.3 277.5 3.9 277.7 3.6 278 3.3 278.5 3.1 278.9 2.9 279.5 2.8 280.1 2.8 280.7 2.8 281.3 2.9 281.7 3.1 282.1 3.3 282.5 3.6 282.7 3.8 282.9 4.1 283 4.3 283 4.5 283 4.6 283 4.7 282.9 4.7 282.8 4.8 282.8 4.8 282.7 4.8L282.1 4.8C282 4.8 281.9 4.7 281.8 4.6 281.6 4.4 281.5 4.3 281.4 4.2 281.3 4.1 281.1 4 280.9 3.9 280.7 3.8 280.4 3.8 280.1 3.8 279.6 3.8 279.2 3.9 279 4.1 278.7 4.3 278.6 4.6 278.6 4.9 278.6 5.1 278.7 5.3 278.8 5.4 278.9 5.5 279.1 5.7 279.4 5.8 279.7 5.9 280.2 6.1 280.8 6.2 281.8 6.4 282.4 6.7 282.8 7.1 283.2 7.5 283.4 7.9 283.4 8.5 283.4 8.9 283.3 9.3 283 9.7 282.8 10.1 282.4 10.3 281.9 10.5 281.4 10.7 280.8 10.8 280.2 10.8 279.5 11 278.9 10.9 278.4 10.6zM289.2 8.2L289.2 4.2 288 4.2C287.9 4.2 287.8 4.2 287.8 4.1 287.7 4 287.7 4 287.7 3.9L287.7 3.4C287.7 3.3 287.7 3.2 287.8 3.2 287.9 3.1 287.9 3.1 288 3.1L289.2 3.1 289.2.6C289.2.5 289.2.4 289.3.4 289.4.4 289.4.3 289.5.3L290.2.3C290.3.3 290.4.3 290.4.4 290.5.5 290.5.5 290.5.6L290.5 3 292.4 3C292.5 3 292.6 3 292.6 3.1 292.7 3.2 292.7 3.2 292.7 3.3L292.7 3.8C292.7 3.9 292.7 4 292.6 4 292.5 4.1 292.5 4.1 292.4 4.1L290.5 4.1 290.5 8C290.5 8.5 290.6 8.9 290.7 9.2 290.9 9.5 291.1 9.6 291.5 9.6L292.4 9.6C292.5 9.6 292.6 9.6 292.6 9.7 292.7 9.8 292.7 9.8 292.7 9.9L292.7 10.4C292.7 10.5 292.7 10.6 292.6 10.6 292.5 10.7 292.5 10.7 292.4 10.7L291.4 10.7C290 10.8 289.2 9.9 289.2 8.2zM295 10C294.4 9.4 294.1 8.5 294 7.4L294 6.9 294 6.4C294.1 5.3 294.4 4.5 295 3.8 295.6 3.2 296.4 2.8 297.4 2.8 298.5 2.8 299.4 3.2 300 3.9 300.6 4.6 300.9 5.6 300.9 6.8L300.9 7C300.9 7.1 300.9 7.2 300.8 7.2 300.7 7.3 300.7 7.3 300.6 7.3L295.4 7.3 295.4 7.4C295.4 8.1 295.6 8.6 296 9.1 296.4 9.6 296.9 9.8 297.5 9.8 298 9.8 298.4 9.7 298.6 9.5 298.9 9.3 299.1 9.1 299.3 8.9 299.4 8.8 299.5 8.7 299.5 8.7 299.5 8.7 299.6 8.7 299.8 8.7L300.5 8.7C300.6 8.7 300.7 8.7 300.7 8.8 300.8 8.8 300.8 8.9 300.8 9 300.8 9.2 300.7 9.5 300.4 9.8 300.1 10.1 299.7 10.4 299.3 10.6 298.8 10.8 298.2 10.9 297.6 10.9 296.4 11 295.6 10.7 295 10zM299.5 6.4L299.5 6.4C299.5 5.7 299.3 5.1 298.9 4.6 298.5 4.2 298 3.9 297.4 3.9 296.7 3.9 296.2 4.1 295.9 4.6 295.5 5 295.3 5.6 295.3 6.3L295.3 6.3 299.5 6.3 299.5 6.4zM303.4 10.1C302.8 9.5 302.5 8.6 302.5 7.6L302.5 7 302.5 6.4C302.5 5.3 302.8 4.5 303.4 3.9 304 3.3 304.8 3 305.9 3 306.6 3 307.2 3.1 307.7 3.4 308.2 3.7 308.6 4 308.8 4.4 309 4.8 309.2 5.2 309.2 5.5 309.2 5.6 309.2 5.7 309.1 5.7 309 5.8 308.9 5.8 308.9 5.8L308.2 5.8C308.1 5.8 308 5.8 308 5.7 307.9 5.7 307.9 5.6 307.8 5.5 307.6 5 307.4 4.7 307.1 4.5 306.8 4.3 306.4 4.2 305.9 4.2 305.3 4.2 304.8 4.4 304.4 4.8 304 5.2 303.8 5.8 303.8 6.6L303.8 7.1 303.8 7.6C303.8 8.4 304 9 304.4 9.4 304.8 9.8 305.3 10 305.9 10 306.4 10 306.8 9.9 307.1 9.7 307.4 9.5 307.7 9.1 307.8 8.7 307.8 8.6 307.9 8.5 308 8.5 308 8.5 308.1 8.4 308.2 8.4L308.9 8.4C309 8.4 309.1 8.4 309.1 8.5 309.1 8.6 309.2 8.6 309.2 8.7 309.2 9.1 309 9.4 308.8 9.8 308.6 10.2 308.2 10.5 307.7 10.8 307.2 11.1 306.6 11.2 305.9 11.2 304.8 11 304 10.7 303.4 10.1zM311.1 10.7C311 10.6 311 10.6 311 10.5L311 .5C311 .4 311 .3 311.1.2 311.2.1 311.2.1 311.3.1L312 .1C312.1.1 312.2.1 312.3.2 312.4.3 312.4.3 312.4.5L312.4 4C312.7 3.6 313 3.3 313.4 3.2 313.8 3 314.3 2.9 314.9 2.9 315.9 2.9 316.6 3.2 317.1 3.8 317.6 4.4 317.9 5.2 317.9 6.2L317.9 10.5C317.9 10.6 317.9 10.7 317.8 10.7 317.7 10.7 317.7 10.8 317.6 10.8L316.9 10.8C316.8 10.8 316.7 10.8 316.7 10.7 316.6 10.6 316.6 10.6 316.6 10.5L316.6 6.3C316.6 5.6 316.4 5 316.1 4.6 315.8 4.2 315.2 4 314.6 4 314 4 313.4 4.2 313.1 4.6 312.7 5 312.5 5.6 312.5 6.3L312.5 10.5C312.5 10.6 312.5 10.7 312.4 10.7 312.3 10.8 312.3 10.8 312.2 10.8L311.5 10.8C311.3 10.8 311.2 10.8 311.1 10.7z" transform="translate(117 61)"/>
  </g>
</svg>
