<svg xmlns="http://www.w3.org/2000/svg" width="123.011" height="146.285" viewBox="0 0 123.011 146.285"><g transform="translate(0 0)"><path d="M570.313,154.546a16.669,16.669,0,0,1,1.425-2.382,4.585,4.585,0,0,1,2.57-2.018,3,3,0,0,1,2.472.554,3.291,3.291,0,0,1,1.448,2.084,4.631,4.631,0,0,1-.976,3.494,4.953,4.953,0,0,1-.753.889l3.65,2.59-.834,1.176Zm5.227,1.941a4.762,4.762,0,0,0,.785-.906c1.008-1.419.932-2.774-.325-3.665-1.2-.853-2.388-.414-3.309.883a6.047,6.047,0,0,0-.692,1.176Z" transform="translate(-570.313 -121.074)" fill="#424242"/><path d="M578.772,143.512a15.05,15.05,0,0,1,1.727-2.175,4.567,4.567,0,0,1,2.877-1.73,2.779,2.779,0,0,1,2.147.813,2.931,2.931,0,0,1,.636,3.485l.037.035a2.784,2.784,0,0,1,2.765.348,17.7,17.7,0,0,0,2.823,1.472l-1.022,1.087a14.533,14.533,0,0,1-2.454-1.284c-1.35-.814-2.181-.777-3.114.143l-.931.99,3.525,3.314-.987,1.051Zm4.694,2.434,1.01-1.075c1.055-1.123,1.109-2.414.18-3.288-1.051-.988-2.224-.658-3.281.441a5.914,5.914,0,0,0-.879,1.129Z" transform="translate(-572.791 -118.006)" fill="#424242"/><path d="M596.8,134.307l-3.363,2.745,2.545,3.119,3.749-3.059.764.938-4.866,3.97-7.06-8.653,4.673-3.814.764.938-3.556,2.9,2.231,2.735,3.364-2.745Z" transform="translate(-575.661 -115.063)" fill="#424242"/><path d="M610.591,125.157c-.844-1.312-1.858-2.889-2.533-4.106l-.043.024c.317,1.326.6,2.764.878,4.383l.972,5.683-.95.542-4.2-3.725c-1.24-1.105-2.342-2.135-3.273-3.131l-.029.016c.661,1.225,1.517,2.893,2.26,4.4l2.113,4.307-1.194.682-4.857-10.086,1.6-.911,4.332,3.747c1.084.964,2.023,1.84,2.842,2.709l.043-.025c-.314-1.118-.576-2.38-.842-3.85l-.949-5.677,1.6-.911,6.138,9.355-1.223.7Z" transform="translate(-578.931 -112.037)" fill="#424242"/><path d="M618.6,116.335,622.77,126.7l-1.338.539-4.173-10.362Z" transform="translate(-584.067 -111.191)" fill="#424242"/><path d="M625.12,113.214l1.753,6.375c.662,2.413,2.014,3.141,3.452,2.746,1.6-.439,2.331-1.775,1.677-4.155l-1.752-6.375,1.406-.387,1.726,6.28c.909,3.307-.46,5.144-2.792,5.785-2.205.606-4.213-.2-5.131-3.539l-1.744-6.343Z" transform="translate(-585.958 -109.75)" fill="#424242"/><path d="M650.708,115.383c-.207-1.546-.458-3.4-.554-4.793l-.049,0c-.274,1.336-.625,2.761-1.062,4.343l-1.528,5.56-1.09.088-2.229-5.156c-.656-1.526-1.218-2.927-1.64-4.223l-.033,0c.079,1.39.148,3.263.184,4.939l.089,4.8-1.37.11-.126-11.2,1.834-.148,2.335,5.231c.574,1.333,1.053,2.526,1.428,3.659l.049,0c.19-1.146.488-2.4.87-3.844l1.546-5.545,1.833-.148,1.6,11.076-1.4.114Z" transform="translate(-591.11 -109.059)" fill="#424242"/><path d="M673.578,123.986c-1.423-.638-2.8-1.319-4.007-1.971a2.169,2.169,0,0,0-.643-.274c-2.6-.53-4.52-2.828-3.935-6.375.583-3.53,3.115-5.446,6.09-4.956,2.991.494,4.553,3.136,4.017,6.388-.467,2.828-2.074,4.426-4.01,4.762l-.011.065c1.049.459,2.2.917,3.1,1.234Zm.006-7.369c.365-2.207-.4-4.667-2.741-5.053-2.4-.4-3.947,1.633-4.324,4.022-.4,2.335.541,4.656,2.764,5.023C671.555,120.982,673.17,119.133,673.584,116.616Z" transform="translate(-598.021 -109.433)" fill="#424242"/><path d="M685.422,113.609l-2.187,6.242c-.828,2.362-.13,3.73,1.278,4.223,1.565.549,2.928-.134,3.744-2.464l2.188-6.242,1.376.482L689.667,122c-1.134,3.238-3.305,3.971-5.589,3.17-2.159-.757-3.353-2.562-2.207-5.832l2.175-6.211Z" transform="translate(-602.866 -110.251)" fill="#424242"/><path d="M695.778,127.032l-2.678,2.55-1.315-.7,8.609-8.057,1.534.82-1.9,11.642-1.358-.727.6-3.659Zm3.759.733.551-3.349c.125-.76.291-1.423.45-2.07l-.029-.016c-.458.506-.94,1.019-1.45,1.517l-2.487,2.332Z" transform="translate(-605.901 -112.506)" fill="#424242"/><path d="M711.425,126.806l1.165.851-5.875,8.047,3.856,2.815-.714.977-5.02-3.665Z" transform="translate(-609.725 -114.258)" fill="#424242"/><path d="M721.788,135.2l-7.381,8.384-1.082-.952,7.381-8.384Z" transform="translate(-612.211 -116.437)" fill="#424242"/><path d="M726.521,140.725l-2.327-2.475.894-.84,5.663,6.025-.894.839-2.338-2.487-7.244,6.809-1-1.062Z" transform="translate(-613.955 -117.365)" fill="#424242"/><path d="M727.148,157.277l3.872-2.731,3.22-6.588.945,1.34-1.611,3.062c-.443.839-.806,1.5-1.242,2.234l.019.027c.777-.163,1.593-.271,2.531-.406l3.445-.463.945,1.341-7.4.635-3.886,2.74Z" transform="translate(-616.261 -120.455)" fill="#424242"/></g><g transform="translate(0.893 105.305)"><path d="M571.576,267.469l6.95-9.47.908,1.266-3.456,4.62c-.945,1.269-1.808,2.4-2.7,3.4l.02.027c1.234-.5,2.649-.941,4.123-1.387l5.584-1.681.9,1.252-11.4,3.263Z" transform="translate(-571.576 -257.999)" fill="#424242"/><path d="M586.042,277.543l-2.971-3.166-2.936,2.755,3.311,3.528-.882.828-4.3-4.579,8.144-7.642,4.128,4.4-.882.828-3.14-3.347-2.574,2.415,2.971,3.165Z" transform="translate(-573.536 -261.3)" fill="#424242"/><path d="M596.175,279.257l-2.619-2.163.781-.945,6.374,5.265-.781.945-2.631-2.174-6.331,7.664-1.124-.928Z" transform="translate(-576.928 -263.316)" fill="#424242"/><path d="M605.372,292.249l-3.663-2.332-2.163,3.4,4.083,2.6-.65,1.021-5.3-3.373,6-9.424,5.089,3.24-.65,1.02-3.872-2.465-1.9,2.978,3.664,2.333Z" transform="translate(-579.224 -265.657)" fill="#424242"/><path d="M613.315,290a15.032,15.032,0,0,1,2.6.963,4.566,4.566,0,0,1,2.54,2.195,2.782,2.782,0,0,1-.1,2.293,2.932,2.932,0,0,1-3.114,1.69l-.021.045a2.781,2.781,0,0,1,.53,2.736,17.839,17.839,0,0,0-.519,3.142l-1.35-.632a14.582,14.582,0,0,1,.455-2.733c.353-1.536.059-2.314-1.106-2.914l-1.23-.576-2.051,4.382-1.305-.611Zm-.851,5.218,1.336.626c1.395.653,2.639.3,3.18-.853.611-1.306-.067-2.318-1.441-2.979a5.911,5.911,0,0,0-1.347-.484Z" transform="translate(-582.436 -267.374)" fill="#424242"/><path d="M626.209,295.107l-3.716,10.529-1.359-.479,3.715-10.529Z" transform="translate(-586.095 -268.73)" fill="#424242"/><path d="M627.508,307.27l2.5-10.885,1.534.353,2.222,6.309a31.581,31.581,0,0,1,1.142,3.986l.036-.008c.2-1.483.477-2.815.867-4.511l1.046-4.555,1.325.3-2.5,10.885-1.421-.327-2.187-6.317a35.427,35.427,0,0,1-1.2-4.1l-.053,0c-.234,1.391-.5,2.707-.918,4.515l-1.069,4.652Z" transform="translate(-587.962 -269.245)" fill="#424242"/><path d="M645.9,307.231l-1.394,3.428-1.488-.1,4.536-10.892,1.736.117,3.054,11.4-1.538-.1-.955-3.586Zm3.73-.879-.875-3.282c-.2-.744-.32-1.417-.443-2.073l-.033,0c-.21.65-.437,1.317-.7,1.98l-1.309,3.152Z" transform="translate(-592.507 -270.206)" fill="#424242"/><path d="M658.837,300.051a14.971,14.971,0,0,1,2.743-.439,4.566,4.566,0,0,1,3.291.667,2.779,2.779,0,0,1,1.035,2.05,2.932,2.932,0,0,1-1.886,3l0,.05a2.784,2.784,0,0,1,1.806,2.125,17.71,17.71,0,0,0,1.089,2.994l-1.488.112a14.547,14.547,0,0,1-.943-2.605c-.446-1.512-1.084-2.046-2.394-2l-1.355.1.363,4.826-1.438.108Zm1.819,4.966,1.471-.111c1.537-.115,2.449-1.032,2.353-2.3-.107-1.437-1.2-1.987-2.717-1.89a5.941,5.941,0,0,0-1.412.239Z" transform="translate(-597.141 -270.181)" fill="#424242"/><path d="M674.7,308.758l-.978-4.637-4.781-5.563,1.606-.338,2.176,2.691c.6.737,1.061,1.334,1.562,2.025l.033-.007c.158-.778.38-1.571.627-2.487l.937-3.348,1.6-.339-2.34,7.048.981,4.654Z" transform="translate(-600.1 -269.353)" fill="#424242"/><path d="M698.278,300.654a7.163,7.163,0,0,1-2.506,1.644c-2.9,1.234-5.856.334-7.291-3.036a5.557,5.557,0,0,1,3.067-7.682,5.991,5.991,0,0,1,2.634-.583l.141,1.22a5.242,5.242,0,0,0-2.255.456c-2.408,1.026-3.353,3.247-2.2,5.946,1.072,2.515,3.209,3.514,5.709,2.449a5.767,5.767,0,0,0,1.983-1.35Z" transform="translate(-605.664 -267.664)" fill="#424242"/><path d="M698.148,289.324l1.24-.735,5.084,8.565,4.1-2.436.618,1.04-5.344,3.172Z" transform="translate(-608.658 -266.961)" fill="#424242"/><path d="M708.245,282.847l6.53,9.061-1.169.843-6.53-9.061Z" transform="translate(-611.273 -265.279)" fill="#424242"/><path d="M718.707,287.142l-7.5-8.275,1.166-1.056,6.445,1.784a31.612,31.612,0,0,1,3.92,1.343l.014-.034c-1.1-1.016-2.036-2-3.2-3.29l-3.137-3.462,1.007-.912,7.5,8.275-1.081.979-6.431-1.818a35.372,35.372,0,0,1-4.05-1.361l-.025.046c1.007.988,1.932,1.96,3.178,3.335l3.2,3.536Z" transform="translate(-612.485 -262.464)" fill="#424242"/><path d="M722.812,269.425l8.377,7.388-.954,1.081-8.377-7.388Z" transform="translate(-615.604 -261.346)" fill="#424242"/><path d="M739.249,264.586a7.154,7.154,0,0,1-1.283,2.707c-1.83,2.559-4.826,3.331-7.8,1.2a5.556,5.556,0,0,1-1.379-8.153,5.978,5.978,0,0,1,1.946-1.867l.754.967A5.242,5.242,0,0,0,729.8,261c-1.521,2.129-1.172,4.516,1.213,6.222,2.223,1.59,4.567,1.331,6.146-.879a5.753,5.753,0,0,0,.991-2.183Z" transform="translate(-617.28 -258.138)" fill="#424242"/></g><g transform="translate(8.499 36.657)"><path d="M610.46,160.9A28.068,28.068,0,0,0,583.1,183.082l-.049.194a20.552,20.552,0,0,0-.719,5.721c0,13.274,13.543,27.955,24.905,37.934,12.081,10.61,24.356,18.293,27.617,19.957,3.262-1.665,15.537-9.348,27.617-19.957,11.361-9.978,24.905-24.659,24.905-37.933a20.54,20.54,0,0,0-.719-5.721l-.049-.2a27.956,27.956,0,0,0-49.684-11.039l-2.071,2.748-2.071-2.748A28.1,28.1,0,0,0,610.46,160.9Z" transform="translate(-582.334 -160.905)" fill="#ffb74d" stroke="#424242" stroke-linecap="round" stroke-linejoin="round" stroke-width="3"/><g transform="translate(27.319 16.305)"><g transform="translate(0 0)"><path d="M631.979,204.491c2.411,3.812,2.289,8.216-.271,9.836s-6.592-.158-9-3.971-2.289-8.216.272-9.835S629.568,200.678,631.979,204.491Z" transform="translate(-620.973 -188.64)" fill="#fff"/><ellipse cx="5.804" cy="8.64" rx="5.804" ry="8.64" transform="translate(9.889 2.645) rotate(-13.171)" fill="#fff"/><path d="M675.983,204.491c-2.412,3.812-2.29,8.216.272,9.836s6.592-.158,9-3.971,2.289-8.216-.272-9.835S678.394,200.678,675.983,204.491Z" transform="translate(-636.582 -188.64)" fill="#fff"/><path d="M658.894,192.883c-1.087,4.647.562,9.005,3.683,9.736s6.533-2.444,7.62-7.091-.561-9.005-3.683-9.736S659.982,188.237,658.894,192.883Z" transform="translate(-631.985 -184.47)" fill="#fff"/></g><path d="M662.344,224.489a13.379,13.379,0,0,0-26.714,0,10.71,10.71,0,0,0,10.083,18.848,7.881,7.881,0,0,1,6.548,0,10.71,10.71,0,0,0,10.084-18.848Z" transform="translate(-623.783 -192.143)" fill="#fff"/></g></g></svg>