<svg xmlns="http://www.w3.org/2000/svg" width="115.039" height="154.498" viewBox="0 0 115.039 154.498"><g transform="translate(2.069 1.803)"><g transform="translate(0 0)"><g transform="translate(0)"><path d="M398.526,641.587A22.026,22.026,0,0,0,420,624.184l.038-.153a16.119,16.119,0,0,0,.564-4.489c0-10.417-10.628-21.938-19.544-29.768a135.146,135.146,0,0,0-21.673-15.661,135.193,135.193,0,0,0-21.672,15.661c-8.916,7.83-19.544,19.351-19.544,29.768a16.113,16.113,0,0,0,.565,4.489l.037.153a21.939,21.939,0,0,0,38.989,8.663l1.625-2.156,1.625,2.156A22.05,22.05,0,0,0,398.526,641.587Z" transform="translate(-323.931 -538.996)" fill="#ffab91" stroke="#424242" stroke-linecap="round" stroke-linejoin="round" stroke-width="3"/><ellipse cx="10.929" cy="16.269" rx="10.929" ry="16.269" transform="translate(0 29.506) rotate(-32.309)" stroke-width="3" stroke="#424242" stroke-linecap="round" stroke-linejoin="round" fill="#ffb74d"/><ellipse cx="11.561" cy="17.211" rx="11.561" ry="17.211" transform="translate(24.945 5.269) rotate(-13.171)" stroke-width="3" stroke="#424242" stroke-linecap="round" stroke-linejoin="round" fill="#ffb74d"/><ellipse cx="16.269" cy="10.929" rx="16.269" ry="10.929" transform="matrix(0.534, -0.845, 0.845, 0.534, 75.035, 45.324)" stroke-width="3" stroke="#424242" stroke-linecap="round" stroke-linejoin="round" fill="#ffb74d"/><ellipse cx="17.211" cy="11.561" rx="17.211" ry="11.561" transform="matrix(0.228, -0.974, 0.974, 0.228, 54.928, 33.517)" stroke-width="3" stroke="#424242" stroke-linecap="round" stroke-linejoin="round" fill="#ffb74d"/></g><g transform="translate(41.969 53.698)"><line y2="26.962" transform="translate(13.481)" fill="none" stroke="#fff" stroke-miterlimit="10" stroke-width="12"/><line x1="26.962" transform="translate(0 13.481)" fill="none" stroke="#fff" stroke-miterlimit="10" stroke-width="12"/></g></g><text transform="translate(52.423 122.311)" fill="#424242" font-size="18" font-family="OpenSans, Open Sans"><tspan x="-51.504" y="0">VETERINARY</tspan></text><text transform="translate(54.684 145.695)" fill="#ffab91" font-size="24" font-family="OpenSans-Extrabold, Open Sans" font-weight="800"><tspan x="-40.922" y="0">CLINIC</tspan></text></g></svg>