<svg xmlns="http://www.w3.org/2000/svg" width="178" height="138.896" viewBox="0 0 178 138.896"><g transform="translate(9 1.5)"><g transform="translate(18.137 0)"><g transform="translate(15.361)"><g transform="translate(0 0.796)"><path d="M206.678,493.741a16.708,16.708,0,0,1-23.63-23.629c6.525-6.525,28.6-4.975,28.6-4.975S213.2,487.216,206.678,493.741Z" transform="translate(-111.95 -464.976)" fill="#fff" stroke="#424242" stroke-linecap="round" stroke-linejoin="round" stroke-width="3"/><path d="M89.652,493.741a16.708,16.708,0,0,0,23.629-23.629c-6.525-6.525-28.6-4.975-28.6-4.975S83.127,487.216,89.652,493.741Z" transform="translate(-84.516 -464.976)" fill="#fff" stroke="#424242" stroke-linecap="round" stroke-linejoin="round" stroke-width="3"/></g><g transform="translate(8.127 8.314)"><path d="M198.289,499.691a13.989,13.989,0,1,1-19.783-19.783c5.463-5.462,23.948-4.164,23.948-4.164S203.751,494.228,198.289,499.691Z" transform="translate(-118.979 -475.608)" fill="#ffb74d"/><path d="M100.311,499.691a13.989,13.989,0,1,0,19.783-19.783c-5.463-5.462-23.948-4.164-23.948-4.164S94.848,494.228,100.311,499.691Z" transform="translate(-96.011 -475.608)" fill="#ffb74d"/></g><path d="M182.623,510.783a46.933,46.933,0,1,0-93.865,0Z" transform="translate(-85.759 -463.85)" fill="#fff" stroke="#424242" stroke-linecap="round" stroke-linejoin="round" stroke-width="3"/><path d="M180.136,470.236a18.867,18.867,0,1,0,24.64,28.209A47.062,47.062,0,0,0,180.136,470.236Z" transform="translate(-110.107 -465.721)" fill="#ffb74d"/><g transform="translate(22.388 20.125)"><path d="M124.94,496.694a4.379,4.379,0,1,1-4.379-4.38A4.379,4.379,0,0,1,124.94,496.694Z" transform="translate(-116.181 -492.314)" fill="#424242"/><path d="M190.466,496.694a4.379,4.379,0,1,1-4.379-4.38A4.379,4.379,0,0,1,190.466,496.694Z" transform="translate(-135.378 -492.314)" fill="#424242"/></g><g transform="translate(44.775 37.087)"><path d="M160.5,520.974a4.668,4.668,0,0,1-4.669-4.669" transform="translate(-150.183 -516.305)" fill="#fff" stroke="#424242" stroke-linecap="round" stroke-linejoin="round" stroke-width="3"/><path d="M147.844,520.974a4.668,4.668,0,0,0,4.669-4.669" transform="translate(-147.844 -516.305)" fill="#fff" stroke="#424242" stroke-linecap="round" stroke-linejoin="round" stroke-width="3"/></g><path d="M150.956,506.934a2.542,2.542,0,0,0-2.479,2.009l0,.018a1.863,1.863,0,0,0-.065.518c0,1.2,1.227,2.533,2.257,3.437a15.63,15.63,0,0,0,2.5,1.809,15.631,15.631,0,0,0,2.5-1.809c1.029-.9,2.257-2.234,2.257-3.437a1.863,1.863,0,0,0-.065-.518l0-.018a2.533,2.533,0,0,0-4.5-1l-.187.249-.187-.249A2.548,2.548,0,0,0,150.956,506.934Z" transform="translate(-103.234 -476.472)" fill="#424242"/><path d="M182.623,510.783a46.933,46.933,0,1,0-93.865,0Z" transform="translate(-85.759 -463.85)" fill="none" stroke="#424242" stroke-linecap="round" stroke-linejoin="round" stroke-width="3"/></g><g transform="translate(0 31.572)"><path d="M234.756,523.866a15.361,15.361,0,0,0-30.722,0Z" transform="translate(-104.171 -508.505)" fill="#fff" stroke="#424242" stroke-linecap="round" stroke-linejoin="round" stroke-width="3"/><path d="M93.512,523.866a15.361,15.361,0,1,0-30.721,0Z" transform="translate(-62.791 -508.505)" fill="#fff" stroke="#424242" stroke-linecap="round" stroke-linejoin="round" stroke-width="3"/></g></g><g transform="translate(18.137 88.964)"><g transform="translate(15.361)"><g transform="translate(0 12.479)"><path d="M89.652,612.221a16.708,16.708,0,0,1,23.629,23.629c-6.525,6.524-28.6,4.974-28.6,4.974S83.127,618.746,89.652,612.221Z" transform="translate(-84.516 -607.327)" fill="#fff" stroke="#424242" stroke-linecap="round" stroke-linejoin="round" stroke-width="3"/><path d="M206.678,612.221a16.708,16.708,0,1,0-23.63,23.629c6.525,6.524,28.6,4.974,28.6,4.974S213.2,618.746,206.678,612.221Z" transform="translate(-111.95 -607.327)" fill="#fff" stroke="#424242" stroke-linecap="round" stroke-linejoin="round" stroke-width="3"/></g><g transform="translate(8.127 10.44)"><path d="M100.311,608.541a13.989,13.989,0,0,1,19.783,19.783c-5.463,5.463-23.948,4.165-23.948,4.165S94.848,614,100.311,608.541Z" transform="translate(-96.011 -604.444)" fill="#ffab91"/><path d="M198.289,608.541a13.989,13.989,0,0,0-19.783,19.783c5.463,5.463,23.948,4.165,23.948,4.165S203.751,614,198.289,608.541Z" transform="translate(-118.979 -604.444)" fill="#ffab91"/></g><path d="M88.758,589.678a46.933,46.933,0,0,0,93.865,0Z" transform="translate(-85.759 -589.678)" fill="#fff" stroke="#424242" stroke-linecap="round" stroke-linejoin="round" stroke-width="3"/><path d="M116.5,635.387a18.867,18.867,0,1,0-24.64-28.209A47.062,47.062,0,0,0,116.5,635.387Z" transform="translate(-86.669 -592.968)" fill="#ffab91"/><g transform="translate(22.388 18.049)"><path d="M181.707,619.585a4.379,4.379,0,1,1,4.379,4.379A4.379,4.379,0,0,1,181.707,619.585Z" transform="translate(-135.378 -615.206)" fill="#424242"/><path d="M116.181,619.585a4.379,4.379,0,1,1,4.379,4.379A4.379,4.379,0,0,1,116.181,619.585Z" transform="translate(-116.181 -615.206)" fill="#424242"/></g><g transform="translate(44.775 5.178)"><path d="M147.844,597a4.668,4.668,0,0,1,4.669,4.668" transform="translate(-147.844 -597.001)" fill="#fff" stroke="#424242" stroke-linecap="round" stroke-linejoin="round" stroke-width="3"/><path d="M160.5,597a4.668,4.668,0,0,0-4.669,4.668" transform="translate(-150.183 -597.001)" fill="#fff" stroke="#424242" stroke-linecap="round" stroke-linejoin="round" stroke-width="3"/></g><path d="M155.376,609.747a2.542,2.542,0,0,0,2.479-2.009l0-.018a1.866,1.866,0,0,0,.065-.518c0-1.2-1.227-2.533-2.257-3.437a15.585,15.585,0,0,0-2.5-1.809,15.63,15.63,0,0,0-2.5,1.809c-1.029.9-2.257,2.234-2.257,3.437a1.867,1.867,0,0,0,.065.518l0,.018a2.533,2.533,0,0,0,4.5,1l.187-.25.187.25A2.548,2.548,0,0,0,155.376,609.747Z" transform="translate(-103.234 -593.275)" fill="#424242"/><path d="M88.758,589.678a46.933,46.933,0,0,0,93.865,0Z" transform="translate(-85.759 -589.678)" fill="none" stroke="#424242" stroke-linecap="round" stroke-linejoin="round" stroke-width="3"/></g><path d="M93.512,589.678a15.361,15.361,0,1,1-30.721,0Z" transform="translate(-62.791 -589.678)" fill="#fff" stroke="#424242" stroke-linecap="round" stroke-linejoin="round" stroke-width="3"/><path d="M234.756,589.678a15.361,15.361,0,1,1-30.722,0Z" transform="translate(-104.171 -589.678)" fill="#fff" stroke="#424242" stroke-linecap="round" stroke-linejoin="round" stroke-width="3"/></g><text transform="translate(80 80.515)" fill="#424242" font-size="39" font-family="OpenSans-Extrabold, Open Sans" font-weight="800"><tspan x="-88.597" y="0">PETSHOP</tspan></text></g></svg>