<svg xmlns="http://www.w3.org/2000/svg" width="178.34" height="119.114" viewBox="0 0 178.34 119.114"><g transform="translate(1.5 1.5)"><g transform="translate(32.511 0)"><g transform="translate(0 0.88)"><path d="M453.4,71.1a18.457,18.457,0,0,1-26.1-26.1c7.207-7.208,31.6-5.5,31.6-5.5S460.6,63.889,453.4,71.1Z" transform="translate(-348.75 -39.321)" fill="#fff" stroke="#424242" stroke-linecap="round" stroke-linejoin="round" stroke-width="3"/><path d="M324.118,71.1a18.457,18.457,0,0,0,26.1-26.1c-7.208-7.208-31.6-5.5-31.6-5.5S316.91,63.889,324.118,71.1Z" transform="translate(-318.445 -39.321)" fill="#fff" stroke="#424242" stroke-linecap="round" stroke-linejoin="round" stroke-width="3"/></g><g transform="translate(8.978 9.183)"><path d="M444.128,77.669a15.453,15.453,0,1,1-21.854-21.854c6.035-6.035,26.455-4.6,26.455-4.6S450.162,71.635,444.128,77.669Z" transform="translate(-356.516 -51.066)" fill="#ffab91"/><path d="M335.893,77.669a15.453,15.453,0,0,0,21.854-21.854c-6.035-6.035-26.455-4.6-26.455-4.6S329.858,71.635,335.893,77.669Z" transform="translate(-331.144 -51.066)" fill="#ffab91"/></g><path d="M426.823,89.923a51.846,51.846,0,0,0-103.692,0Z" transform="translate(-319.818 -38.077)" fill="#fff" stroke="#424242" stroke-linecap="round" stroke-linejoin="round" stroke-width="3"/><path d="M425.048,45.612a19.732,19.732,0,1,0,25.771,29.5A49.219,49.219,0,0,0,425.048,45.612Z" transform="translate(-347.143 -40.285)" fill="#424242"/><g transform="translate(24.732 22.232)"><path d="M363.1,74.359a4.838,4.838,0,1,1-4.838-4.838A4.838,4.838,0,0,1,363.1,74.359Z" transform="translate(-353.425 -69.521)" fill="#424242"/><ellipse cx="4.838" cy="4.838" rx="4.838" ry="4.838" transform="translate(51.179)" fill="#fff"/></g><g transform="translate(49.462 40.97)"><path d="M402.381,101.18a5.157,5.157,0,0,1-5.157-5.157" transform="translate(-390.987 -96.023)" fill="#fff" stroke="#424242" stroke-linecap="round" stroke-linejoin="round" stroke-width="3"/><path d="M388.4,101.18a5.157,5.157,0,0,0,5.157-5.157" transform="translate(-388.402 -96.023)" fill="#fff" stroke="#424242" stroke-linecap="round" stroke-linejoin="round" stroke-width="3"/></g><path d="M391.84,85.671A2.81,2.81,0,0,0,389.1,87.89l0,.02a2.071,2.071,0,0,0-.071.573c0,1.329,1.355,2.8,2.492,3.8a17.269,17.269,0,0,0,2.765,2,17.237,17.237,0,0,0,2.764-2c1.137-1,2.492-2.468,2.492-3.8a2.072,2.072,0,0,0-.071-.573l0-.02a2.8,2.8,0,0,0-4.973-1.105l-.207.275-.207-.275A2.813,2.813,0,0,0,391.84,85.671Z" transform="translate(-339.123 -52.021)" fill="#424242"/><path d="M426.823,89.923a51.846,51.846,0,0,0-103.692,0Z" transform="translate(-319.818 -38.077)" fill="none" stroke="#424242" stroke-linecap="round" stroke-linejoin="round" stroke-width="3"/></g><line x2="175.34" transform="translate(0 51.846)" stroke-width="3" stroke="#424242" stroke-linecap="round" stroke-linejoin="round" fill="none"/><line x2="175.34" transform="translate(0 92.221)" stroke-width="3" stroke="#424242" stroke-linecap="round" stroke-linejoin="round" fill="none"/><text transform="translate(83.885 111.614)" fill="#424242" font-size="19" font-family="OpenSans-Semibold, Open Sans" font-weight="600"><tspan x="-44.67" y="0">PET SHOP</tspan></text><text transform="translate(85.845 84.176)" fill="#ffb74d" font-size="37" font-family="OpenSans-Extrabold, Open Sans" font-weight="800"><tspan x="-78.77" y="0">FRIENDS</tspan></text></g></svg>