<?xml version="1.0" encoding="utf-8"?>
<!-- Generator: Adobe Illustrator 25.2.0, SVG Export Plug-In . SVG Version: 6.00 Build 0)  -->
<svg version="1.1" id="Layer_1" xmlns="http://www.w3.org/2000/svg" xmlns:xlink="http://www.w3.org/1999/xlink" x="0px" y="0px"
	 viewBox="0 0 64 64" style="enable-background:new 0 0 64 64;" xml:space="preserve">
<style type="text/css">
	.st0{fill:none;}
	.st1{fill:#071723;}
</style>
<g>
	<path class="st0" d="M28.3,14.3c-7.3,0-13.3,6-13.3,13.3c0,7.3,6,13.3,13.3,13.3s13.3-6,13.3-13.3S35.7,14.3,28.3,14.3z"/>
	<path class="st1" d="M54.1,50.6L43.4,39.5c2.7-3.4,4.2-7.6,4.2-12c0-10.6-8.6-19.2-19.2-19.2c-10.6,0-19.2,8.6-19.2,19.2
		s8.6,19.2,19.2,19.2c3.8,0,7.5-1.1,10.6-3.2l10.8,11.2c0.6,0.6,1.3,0.9,2.1,0.9c0.8,0,1.5-0.3,2.1-0.8c0.6-0.6,0.9-1.3,0.9-2.1
		C54.9,52,54.6,51.2,54.1,50.6z M28.3,40.8c-7.3,0-13.3-6-13.3-13.3c0-7.3,6-13.3,13.3-13.3s13.3,6,13.3,13.3
		C41.6,34.9,35.7,40.8,28.3,40.8z"/>
</g>
</svg>
