<svg xmlns="http://www.w3.org/2000/svg" viewBox="0 0 32 32"><title>Artboard-1</title><g id="Monitor_TV" data-name="Monitor TV"><rect x="12" y="22" width="8" height="8" rx="1" ry="1" style="fill:#bbdefb"/><path d="M20,23v6a1.0029,1.0029,0,0,1-1,1H16V22h3A1.0029,1.0029,0,0,1,20,23Z" style="fill:#90caf9"/><rect x="2" y="2" width="28" height="22" rx="1" ry="1" style="fill:#bbdefb"/><path d="M30,3V23a1.0029,1.0029,0,0,1-1,1H16V2H29A1.0029,1.0029,0,0,1,30,3Z" style="fill:#90caf9"/><path d="M24,29a1.0029,1.0029,0,0,1-1,1H9a1,1,0,0,1,0-2H23A1.0029,1.0029,0,0,1,24,29Z" style="fill:#90caf9"/><path d="M30,19v4a1.0029,1.0029,0,0,1-1,1H3a1.0029,1.0029,0,0,1-1-1V19Z" style="fill:#90caf9"/><path d="M30,19v4a1.0029,1.0029,0,0,1-1,1H16V19Z" style="fill:#64b5f6"/><path d="M24,29a1.0029,1.0029,0,0,1-1,1H16V28h7A1.0029,1.0029,0,0,1,24,29Z" style="fill:#64b5f6"/></g></svg>